<svg xmlns="http://www.w3.org/2000/svg" viewBox="0 0 180.51 372.75"><defs><style>.cls-1{fill:#e7e7e7;}.cls-2{fill:#ededed;}.cls-3{fill:#e1e1e1;}.cls-4{fill:#a9a9a9;}.cls-5{fill:#b3b3b3;}</style></defs><g id="Layer_2" data-name="Layer 2"><g id="addons"><g id="toiletpaper"><ellipse class="cls-1" cx="155.95" cy="65.38" rx="19.39" ry="65.38"/><rect class="cls-1" x="41.07" y="65.38" width="114.88" height="65.38"/><path class="cls-2" d="M156,0H41.07V65.38H175.33C175.33,29.27,166.65,0,156,0Z"/><ellipse class="cls-3" cx="41.07" cy="65.38" rx="19.39" ry="65.38"/><path class="cls-4" d="M46.17,65.38c0,1.74-.08,3.42-.22,5-.64,7.06-2.58,12.2-4.88,12.2s-4.25-5.14-4.88-12.2c-.14-1.58-.22-3.26-.22-5s.08-3.42.22-5c.63-7.07,2.58-12.21,4.88-12.21S45.31,53.31,46,60.38C46.09,62,46.17,63.64,46.17,65.38Z"/><path class="cls-5" d="M114.79,230.76h-1.17a9.94,9.94,0,0,1-9.94-9.94V184.09a25,25,0,0,0-25-25H25a15,15,0,0,1-15-15V85.38a15,15,0,0,1,15-15H46c.14-1.58.22-3.26.22-5s-.08-3.42-.22-5H25a25,25,0,0,0-25,25v58.71a25,25,0,0,0,25,25H78.68a15,15,0,0,1,15,15v36.73a9.94,9.94,0,0,1-9.94,9.94h0a10,10,0,0,0-10,10v122a10,10,0,0,0,10,10h31.05a10,10,0,0,0,10-10v-122A10,10,0,0,0,114.79,230.76Z"/><path class="cls-2" d="M180.51,175.63c-6.72,3.28-106.56,2.69-114.88,0-5.18-5.91-5.18-20.42-5.18-20.42V65.38H175.33v90.28S175.49,170.61,180.51,175.63Z"/></g></g></g></svg>