<svg xmlns="http://www.w3.org/2000/svg" xmlns:xlink="http://www.w3.org/1999/xlink" viewBox="0 0 984.57 788.93"><defs><style>.cls-1,.cls-2,.cls-3{fill:none;stroke-miterlimit:10;}.cls-1{stroke:#ccc;}.cls-2,.cls-3{stroke-linecap:round;stroke-width:10px;}.cls-2{stroke:url(#linear-gradient);}.cls-3{stroke:#b3b3b3;}.cls-4{fill:#d1d1d1;}.cls-5{fill:#b3b3b3;}.cls-6{fill:url(#linear-gradient-2);}.cls-7{fill:url(#linear-gradient-3);}.cls-8{fill:url(#linear-gradient-4);}.cls-9{fill:url(#linear-gradient-5);}.cls-10{fill:url(#linear-gradient-6);}.cls-11{fill:url(#linear-gradient-7);}.cls-12{fill:url(#linear-gradient-8);}.cls-13{fill:url(#linear-gradient-9);}.cls-14{fill:url(#linear-gradient-10);}.cls-15{fill:url(#linear-gradient-11);}</style><linearGradient id="linear-gradient" x1="89.18" y1="251.86" x2="984.57" y2="251.86" gradientUnits="userSpaceOnUse"><stop offset="0" stop-color="#e52e7d"/><stop offset="1" stop-color="#ff9d33"/></linearGradient><linearGradient id="linear-gradient-2" x1="798.4" y1="40.2" x2="798.4" y2="-33.95" xlink:href="#linear-gradient"/><linearGradient id="linear-gradient-3" x1="820.81" y1="40.2" x2="820.81" y2="-33.95" xlink:href="#linear-gradient"/><linearGradient id="linear-gradient-4" x1="838.05" y1="40.2" x2="838.05" y2="-33.95" xlink:href="#linear-gradient"/><linearGradient id="linear-gradient-5" x1="864.68" y1="40.2" x2="864.68" y2="-33.95" xlink:href="#linear-gradient"/><linearGradient id="linear-gradient-6" x1="882.78" y1="40.2" x2="882.78" y2="-33.95" xlink:href="#linear-gradient"/><linearGradient id="linear-gradient-7" x1="898.14" y1="40.2" x2="898.14" y2="-33.95" xlink:href="#linear-gradient"/><linearGradient id="linear-gradient-8" x1="918.11" y1="40.2" x2="918.11" y2="-33.95" xlink:href="#linear-gradient"/><linearGradient id="linear-gradient-9" x1="938.69" y1="40.2" x2="938.69" y2="-33.95" xlink:href="#linear-gradient"/><linearGradient id="linear-gradient-10" x1="958.32" y1="40.2" x2="958.32" y2="-33.95" xlink:href="#linear-gradient"/><linearGradient id="linear-gradient-11" x1="973.17" y1="40.2" x2="973.17" y2="-33.95" xlink:href="#linear-gradient"/></defs><g id="Layer_2" data-name="Layer 2"><g id="Layer_1-2" data-name="Layer 1"><polyline class="cls-1" points="23.03 1.41 23.03 754.92 979.57 754.92"/><path class="cls-2" d="M94.18,450.19l16-11.93A2150.8,2150.8,0,0,1,979.57,53.54h0"/><path class="cls-3" d="M65,737.31S287.29,393,563,393"/><path class="cls-4" d="M466.4,393a2.57,2.57,0,0,1,2.56-2.57h0a2.57,2.57,0,0,1,2.56,2.57h0a2.55,2.55,0,0,1-2.56,2.56h0A2.56,2.56,0,0,1,466.4,393Zm-19.24,0a2.58,2.58,0,0,1,2.57-2.57h0a2.57,2.57,0,0,1,2.56,2.57h0a2.55,2.55,0,0,1-2.56,2.56h0A2.57,2.57,0,0,1,447.16,393Zm-19.23,0a2.57,2.57,0,0,1,2.56-2.57h0a2.57,2.57,0,0,1,2.57,2.57h0a2.55,2.55,0,0,1-2.57,2.56h0A2.56,2.56,0,0,1,427.93,393Zm-19.23,0a2.57,2.57,0,0,1,2.56-2.57h0a2.57,2.57,0,0,1,2.56,2.57h0a2.55,2.55,0,0,1-2.56,2.56h0A2.56,2.56,0,0,1,408.7,393Zm-19.24,0a2.58,2.58,0,0,1,2.57-2.57h0a2.57,2.57,0,0,1,2.56,2.57h0a2.55,2.55,0,0,1-2.56,2.56h0A2.57,2.57,0,0,1,389.46,393Zm-19.23,0a2.57,2.57,0,0,1,2.56-2.57h0a2.57,2.57,0,0,1,2.57,2.57h0a2.55,2.55,0,0,1-2.57,2.56h0A2.56,2.56,0,0,1,370.23,393ZM351,393a2.57,2.57,0,0,1,2.56-2.57h0a2.57,2.57,0,0,1,2.56,2.57h0a2.55,2.55,0,0,1-2.56,2.56h0A2.56,2.56,0,0,1,351,393Zm-19.24,0a2.58,2.58,0,0,1,2.57-2.57h0a2.57,2.57,0,0,1,2.56,2.57h0a2.55,2.55,0,0,1-2.56,2.56h0A2.57,2.57,0,0,1,331.76,393Zm-19.23,0a2.57,2.57,0,0,1,2.56-2.57h0a2.57,2.57,0,0,1,2.57,2.57h0a2.55,2.55,0,0,1-2.57,2.56h0A2.56,2.56,0,0,1,312.53,393Zm-19.23,0a2.57,2.57,0,0,1,2.56-2.57h0a2.57,2.57,0,0,1,2.56,2.57h0a2.55,2.55,0,0,1-2.56,2.56h0A2.56,2.56,0,0,1,293.3,393Zm-19.24,0a2.58,2.58,0,0,1,2.57-2.57h0a2.57,2.57,0,0,1,2.56,2.57h0a2.55,2.55,0,0,1-2.56,2.56h0A2.57,2.57,0,0,1,274.06,393Zm-19.23,0a2.57,2.57,0,0,1,2.56-2.57h0A2.57,2.57,0,0,1,260,393h0a2.55,2.55,0,0,1-2.57,2.56h0A2.56,2.56,0,0,1,254.83,393Zm-19.23,0a2.57,2.57,0,0,1,2.56-2.57h0a2.57,2.57,0,0,1,2.56,2.57h0a2.55,2.55,0,0,1-2.56,2.56h0A2.56,2.56,0,0,1,235.6,393Zm-19.24,0a2.58,2.58,0,0,1,2.57-2.57h0a2.57,2.57,0,0,1,2.56,2.57h0a2.55,2.55,0,0,1-2.56,2.56h0A2.57,2.57,0,0,1,216.36,393Zm-19.23,0a2.57,2.57,0,0,1,2.56-2.57h0a2.57,2.57,0,0,1,2.57,2.57h0a2.55,2.55,0,0,1-2.57,2.56h0A2.56,2.56,0,0,1,197.13,393Z"/><path class="cls-5" d="M323.41,356.23a10,10,0,0,1-3.73,4.33,10.3,10.3,0,0,1-14.91-4.34,15.28,15.28,0,0,1-1.35-6.64v-1.29a15.28,15.28,0,0,1,1.35-6.64,9.88,9.88,0,0,1,9.3-5.87,10.36,10.36,0,0,1,5.58,1.51,10.05,10.05,0,0,1,3.75,4.34,15.49,15.49,0,0,1,1.34,6.66v1.29A15.56,15.56,0,0,1,323.41,356.23Zm-4.83-14.45a5.22,5.22,0,0,0-4.51-2.24,5.41,5.41,0,0,0-3.25,1,6.32,6.32,0,0,0-2.1,3,13.65,13.65,0,0,0-.73,4.76v1.32a13.64,13.64,0,0,0,.74,4.76,6.35,6.35,0,0,0,2.12,3,5.38,5.38,0,0,0,3.26,1,5.16,5.16,0,0,0,4.49-2.25,11.36,11.36,0,0,0,1.57-6.5v-1.32A11.15,11.15,0,0,0,318.58,341.78Z"/><path class="cls-5" d="M344.42,342.71v19h-4.13l-.11-1.88a6.52,6.52,0,0,1-5.32,2.23,6.12,6.12,0,0,1-4.62-1.72c-1.12-1.15-1.67-2.94-1.67-5.36V342.71h4.37V355a3.66,3.66,0,0,0,.82,2.67,3,3,0,0,0,2.15.8q3,0,4.12-2.17V342.71Z"/><path class="cls-5" d="M358.08,342.42a3.9,3.9,0,0,1,.7.16l0,4.13a11.34,11.34,0,0,0-1.74-.14q-2.94,0-3.94,2.2v13h-4.37v-19h4.16l.13,2.14a5.39,5.39,0,0,1,1.79-1.85,4.7,4.7,0,0,1,2.48-.65A6.78,6.78,0,0,1,358.08,342.42Z"/><path class="cls-5" d="M386,355.39a6.09,6.09,0,0,1-1.1,3.36,7.4,7.4,0,0,1-2.82,2.42,8.29,8.29,0,0,1-3.84.9,8.65,8.65,0,0,1-4.79-1.26,7.74,7.74,0,0,1-2.93-3.44,11.91,11.91,0,0,1-1-4.86v-.6a11.75,11.75,0,0,1,1-4.86,7.84,7.84,0,0,1,2.93-3.43,9.43,9.43,0,0,1,8.77-.36A6.72,6.72,0,0,1,385,345.8a7.5,7.5,0,0,1,1,3.74H381.9a4.09,4.09,0,0,0-.51-1.85,3.45,3.45,0,0,0-1.27-1.33,3.67,3.67,0,0,0-1.93-.49,3.45,3.45,0,0,0-3.28,1.7,8.91,8.91,0,0,0-1,4.34v.6q0,6,4.25,6.05a4.1,4.1,0,0,0,1.83-.41,3.36,3.36,0,0,0,1.32-1.12,3.11,3.11,0,0,0,.54-1.64Z"/><path class="cls-5" d="M389.49,347.06a8.2,8.2,0,0,1,3.06-3.45,8.68,8.68,0,0,1,4.71-1.26,8.81,8.81,0,0,1,4.76,1.26,8.22,8.22,0,0,1,3.07,3.45,11.3,11.3,0,0,1,1.06,5v.37a11.26,11.26,0,0,1-1.06,5,8.13,8.13,0,0,1-3.07,3.44,9.57,9.57,0,0,1-9.46,0,8.07,8.07,0,0,1-3.07-3.44,11.26,11.26,0,0,1-1.07-5V352A11.31,11.31,0,0,1,389.49,347.06Zm4.43,9.77a3.77,3.77,0,0,0,3.38,1.73,3.87,3.87,0,0,0,2.5-.82,4.8,4.8,0,0,0,1.49-2.21,9.2,9.2,0,0,0,.49-3.12V352a9.29,9.29,0,0,0-.49-3.12,4.86,4.86,0,0,0-1.5-2.23,3.88,3.88,0,0,0-2.53-.82,3.77,3.77,0,0,0-2.49.82,4.92,4.92,0,0,0-1.49,2.23,9.55,9.55,0,0,0-.48,3.12v.37A7.92,7.92,0,0,0,393.92,356.83Z"/><path class="cls-5" d="M435.06,344.05q1.6,1.69,1.6,5.37v12.3h-4.37V349.4a3.56,3.56,0,0,0-.84-2.71,4.19,4.19,0,0,0-4.8,0,4,4,0,0,0-1.31,2l0,.4v12.67H421V349.45a3.63,3.63,0,0,0-.86-2.72,3.48,3.48,0,0,0-2.5-.81,3.7,3.7,0,0,0-3.57,2.06v13.74h-4.37v-19h4.11l.14,2a6.36,6.36,0,0,1,2.35-1.75,7.73,7.73,0,0,1,3.13-.61,6.49,6.49,0,0,1,3.13.72,4.74,4.74,0,0,1,2.06,2.18,6.68,6.68,0,0,1,2.44-2.13,7.24,7.24,0,0,1,3.39-.77A6,6,0,0,1,435.06,344.05Z"/><path class="cls-5" d="M454.31,343.55a7.3,7.3,0,0,1,2.54,3.37,13.73,13.73,0,0,1,.86,5.1v.37a13.49,13.49,0,0,1-.87,5,7.68,7.68,0,0,1-2.54,3.44,7,7,0,0,1-8.94-.8v9H441V342.71h4l.17,1.91a6.33,6.33,0,0,1,5.08-2.27A6.78,6.78,0,0,1,454.31,343.55Zm-1,8.47a8.17,8.17,0,0,0-1.07-4.4,3.54,3.54,0,0,0-3.22-1.7,3.86,3.86,0,0,0-3.69,2.13v8.35a3.9,3.9,0,0,0,3.73,2.16,3.49,3.49,0,0,0,3.19-1.73,8.32,8.32,0,0,0,1.06-4.44Z"/><path class="cls-5" d="M477.33,353.58H464.94a6.27,6.27,0,0,0,.75,2.59,4.59,4.59,0,0,0,1.72,1.75,4.82,4.82,0,0,0,2.52.64,5.7,5.7,0,0,0,4.74-2.32L477,358.5a8.16,8.16,0,0,1-2.88,2.55,9.12,9.12,0,0,1-4.47,1,9.53,9.53,0,0,1-4.85-1.2,8.21,8.21,0,0,1-3.18-3.3,9.84,9.84,0,0,1-1.1-4.69v-.72a11.27,11.27,0,0,1,1.12-5.16,8.38,8.38,0,0,1,3.09-3.43,8.94,8.94,0,0,1,8.95,0,7.12,7.12,0,0,1,2.73,3.3,12.47,12.47,0,0,1,.91,4.91ZM473,350.09a5.31,5.31,0,0,0-1-3,3.37,3.37,0,0,0-2.85-1.18,3.54,3.54,0,0,0-2.77,1.19,6.24,6.24,0,0,0-1.36,3.36h8Z"/><path class="cls-5" d="M489.49,358.28v3.37a9.08,9.08,0,0,1-2.85.42,5.08,5.08,0,0,1-3.66-1.28,5.48,5.48,0,0,1-1.33-4.1V345.94h-3.09v-3.23h3.09v-4.64H486v4.64h3.34v3.23H486V356.4a2.1,2.1,0,0,0,.5,1.62,2.15,2.15,0,0,0,1.47.43A7.42,7.42,0,0,0,489.49,358.28Z"/><path class="cls-5" d="M496.87,336.09a2.28,2.28,0,0,1,.66,1.68,2.21,2.21,0,0,1-.66,1.65,2.51,2.51,0,0,1-1.81.65,2.47,2.47,0,0,1-1.81-.64,2.19,2.19,0,0,1-.67-1.66,2.25,2.25,0,0,1,.67-1.68,2.44,2.44,0,0,1,1.81-.66A2.47,2.47,0,0,1,496.87,336.09Zm-4,25.63v-19h4.38v19Z"/><path class="cls-5" d="M510.73,358.28v3.37a9,9,0,0,1-2.84.42,5.08,5.08,0,0,1-3.66-1.28,5.48,5.48,0,0,1-1.34-4.1V345.94H499.8v-3.23h3.09v-4.64h4.38v4.64h3.34v3.23h-3.34V356.4a2.1,2.1,0,0,0,.49,1.62,2.18,2.18,0,0,0,1.48.43A7.25,7.25,0,0,0,510.73,358.28Z"/><path class="cls-5" d="M513.64,347.06a8.22,8.22,0,0,1,3.07-3.45,8.63,8.63,0,0,1,4.71-1.26,8.77,8.77,0,0,1,4.75,1.26,8.24,8.24,0,0,1,3.08,3.45,11.44,11.44,0,0,1,1.06,5v.37a11.4,11.4,0,0,1-1.06,5,8.13,8.13,0,0,1-3.07,3.44,9.57,9.57,0,0,1-9.46,0,8.09,8.09,0,0,1-3.08-3.44,11.26,11.26,0,0,1-1.06-5V352A11.3,11.3,0,0,1,513.64,347.06Zm4.44,9.77a3.76,3.76,0,0,0,3.37,1.73,3.9,3.9,0,0,0,2.51-.82,4.8,4.8,0,0,0,1.49-2.21,9.46,9.46,0,0,0,.48-3.12V352a9.55,9.55,0,0,0-.48-3.12,4.86,4.86,0,0,0-1.5-2.23,3.9,3.9,0,0,0-2.53-.82,3.8,3.8,0,0,0-2.5.82,4.9,4.9,0,0,0-1.48,2.23A9.29,9.29,0,0,0,517,352v.37A7.92,7.92,0,0,0,518.08,356.83Z"/><path class="cls-5" d="M543.23,342.42a3.7,3.7,0,0,1,.7.16l0,4.13a11.34,11.34,0,0,0-1.74-.14c-1.95,0-3.27.73-3.93,2.2v13h-4.38v-19H538l.12,2.14a5.39,5.39,0,0,1,1.79-1.85,4.73,4.73,0,0,1,2.48-.65A6.63,6.63,0,0,1,543.23,342.42Z"/><path class="cls-5" d="M548.09,351.76a4.3,4.3,0,0,1-1.77-3.62,5.07,5.07,0,0,1,.9-2.9,6.27,6.27,0,0,1,2.59-2.1,9,9,0,0,1,3.87-.79,9.66,9.66,0,0,1,4.07.8,6.26,6.26,0,0,1,2.66,2.16,5.45,5.45,0,0,1,.93,3.11H557a2.72,2.72,0,0,0-.38-1.4,2.67,2.67,0,0,0-1.12-1,3.79,3.79,0,0,0-1.79-.39,3.56,3.56,0,0,0-2.3.67,2.08,2.08,0,0,0-.81,1.67,1.73,1.73,0,0,0,.34,1.07,2.93,2.93,0,0,0,1.19.8,14,14,0,0,0,2.34.66,18.72,18.72,0,0,1,3.85,1.2,5.88,5.88,0,0,1,2.35,1.83,4.61,4.61,0,0,1,.83,2.81,4.91,4.91,0,0,1-1,3,6.17,6.17,0,0,1-2.72,2,10.43,10.43,0,0,1-4.06.73,9.55,9.55,0,0,1-4.32-.91,7,7,0,0,1-2.78-2.37,5.59,5.59,0,0,1-.94-3.08h4.23a2.78,2.78,0,0,0,1.19,2.35,4.63,4.63,0,0,0,2.69.76,4.32,4.32,0,0,0,2.49-.62,2,2,0,0,0,.89-1.66,2,2,0,0,0-.32-1.15,2.86,2.86,0,0,0-1.2-.88,12.73,12.73,0,0,0-2.52-.73A12.86,12.86,0,0,1,548.09,351.76Z"/><path class="cls-5" d="M6.06,172.65a3.26,3.26,0,0,1-1,1.24,2.44,2.44,0,0,1-1.47.44A2.48,2.48,0,0,1,2,173.84a3.18,3.18,0,0,1-1-1.35,5.14,5.14,0,0,1-.37-2,4.45,4.45,0,0,1,.45-2,3.4,3.4,0,0,1,1.22-1.37A3.24,3.24,0,0,1,4,166.61v1a2.59,2.59,0,0,0-1.33.35,2.44,2.44,0,0,0-.91,1,3.34,3.34,0,0,0-.34,1.57,4,4,0,0,0,.28,1.55,2.22,2.22,0,0,0,.76,1,1.8,1.8,0,0,0,1.06.33,1.77,1.77,0,0,0,1-.29,2.55,2.55,0,0,0,.77-.95A8.53,8.53,0,0,0,6,170.31a10.25,10.25,0,0,1,.78-2.09A3.45,3.45,0,0,1,7.82,167a2.7,2.7,0,0,1,1.53-.43,2.59,2.59,0,0,1,1.58.5,3.14,3.14,0,0,1,1,1.39,5.4,5.4,0,0,1,.36,2,5.59,5.59,0,0,1-.37,2,3.6,3.6,0,0,1-1.13,1.59,3,3,0,0,1-1.91.62v-1a2.26,2.26,0,0,0,1.49-.48,2.7,2.7,0,0,0,.85-1.21,4.91,4.91,0,0,0,.26-1.59,4.18,4.18,0,0,0-.27-1.56,2.36,2.36,0,0,0-.75-1,1.85,1.85,0,0,0-1.12-.36,1.93,1.93,0,0,0-1.08.29,2.37,2.37,0,0,0-.79,1,9.62,9.62,0,0,0-.69,1.86A11.68,11.68,0,0,1,6.06,172.65Z"/><path class="cls-5" d="M8,164.27h.18a4,4,0,0,0,1.7-.37,3.14,3.14,0,0,0,1.22-1,2.67,2.67,0,0,0,.44-1.5,3,3,0,0,0-.28-1.34,2.72,2.72,0,0,0-.87-1l.44-.6a3.49,3.49,0,0,1,1.09,1.2,3.74,3.74,0,0,1,.41,1.8,3.65,3.65,0,0,1-.53,2,3.58,3.58,0,0,1-1.48,1.35,4.53,4.53,0,0,1-2.14.49H7.84a4.93,4.93,0,0,1-2.25-.49,3.75,3.75,0,0,1-1.5-1.33,3.39,3.39,0,0,1,0-3.61,3.2,3.2,0,0,1,1.36-1.15,4.94,4.94,0,0,1,2-.39H8ZM4.7,162.85a2.7,2.7,0,0,0,1,.92,4.06,4.06,0,0,0,1.5.46v-5.06H7.09a3.6,3.6,0,0,0-1.36.29,2.44,2.44,0,0,0-1,.82,2.22,2.22,0,0,0-.38,1.3A2.4,2.4,0,0,0,4.7,162.85Z"/><path class="cls-5" d="M4.3,150.72A3.38,3.38,0,0,1,6.66,150h5.5V151H6.66a2.51,2.51,0,0,0-1.78.51A2,2,0,0,0,4.36,153a2.27,2.27,0,0,0,.57,1.56,3.45,3.45,0,0,0,1.43,1h5.8v.93H3.71v-.89l1.43,0A3.39,3.39,0,0,1,4,154.32a3.05,3.05,0,0,1-.43-1.59A2.6,2.6,0,0,1,4.3,150.72Z"/><path class="cls-5" d="M7.73,146.45a2.43,2.43,0,0,1-.75,1,1.81,1.81,0,0,1-1.13.34,1.9,1.9,0,0,1-1.15-.37,2.51,2.51,0,0,1-.84-1,3.82,3.82,0,0,1-.31-1.57,3.92,3.92,0,0,1,.33-1.67,2.48,2.48,0,0,1,.9-1.08,2.3,2.3,0,0,1,1.3-.37v.94a1.57,1.57,0,0,0-.85.26,1.91,1.91,0,0,0-.64.75,2.66,2.66,0,0,0-.24,1.17,2.72,2.72,0,0,0,.21,1.15,1.59,1.59,0,0,0,.55.68,1.24,1.24,0,0,0,.71.22,1.27,1.27,0,0,0,.69-.18A1.44,1.44,0,0,0,7,146a6.51,6.51,0,0,0,.45-1.41A7.36,7.36,0,0,1,8,142.88a2.39,2.39,0,0,1,.78-1,2,2,0,0,1,1.14-.31,2,2,0,0,1,1.23.39,2.38,2.38,0,0,1,.83,1.09,4.17,4.17,0,0,1,.3,1.64,4.25,4.25,0,0,1-.35,1.78,2.66,2.66,0,0,1-.93,1.14,2.17,2.17,0,0,1-1.25.39v-.93a1.54,1.54,0,0,0,1.32-.75,3.11,3.11,0,0,0,.41-1.63,3,3,0,0,0-.21-1.18,1.75,1.75,0,0,0-.55-.75,1.23,1.23,0,0,0-.75-.25A1.43,1.43,0,0,0,9,143a3.86,3.86,0,0,0-.72,1.78A8.27,8.27,0,0,1,7.73,146.45Z"/><path class="cls-5" d="M11.32,133.36a2.68,2.68,0,0,0,.74-.2h.1v1a4,4,0,0,1-1.18.19,3.55,3.55,0,0,1,1,1.19,3.63,3.63,0,0,1,.37,1.67,3.1,3.1,0,0,1-.31,1.43,2.34,2.34,0,0,1-.85,1,2.38,2.38,0,0,1-1.24.34,2.27,2.27,0,0,1-1.42-.47,2.81,2.81,0,0,1-.93-1.33,5.8,5.8,0,0,1-.33-2v-1.73h-1a1.82,1.82,0,0,0-1.43.57,2.26,2.26,0,0,0-.52,1.61,2.73,2.73,0,0,0,.23,1.16,1.91,1.91,0,0,0,.62.81,1.35,1.35,0,0,0,.86.29v.94a2.07,2.07,0,0,1-1.21-.41,2.92,2.92,0,0,1-.92-1.16,3.76,3.76,0,0,1-.36-1.67,4,4,0,0,1,.31-1.61,2.45,2.45,0,0,1,.93-1.08,2.78,2.78,0,0,1,1.51-.39h4.09A7.26,7.26,0,0,0,11.32,133.36Zm-.29,2a2.63,2.63,0,0,0-1.2-1H8V136a5.27,5.27,0,0,0,.23,1.64,2.21,2.21,0,0,0,.65,1,1.44,1.44,0,0,0,1,.37,1.58,1.58,0,0,0,1.43-.9,2.14,2.14,0,0,0,.22-1A3.07,3.07,0,0,0,11,135.41Z"/><path class="cls-5" d="M12.2,127.57c0,.11.06.26.09.44a5.25,5.25,0,0,1,0,.56,1.79,1.79,0,0,1-.51,1.36,2.46,2.46,0,0,1-1.71.48H4.48V132H3.71v-1.55H1.54v-.94H3.71v-1.74h.77v1.74H10.1a1.63,1.63,0,0,0,1.11-.29,1.12,1.12,0,0,0,.29-.8,4.43,4.43,0,0,0-.09-.77Z"/><path class="cls-5" d="M.81,124.72a.65.65,0,0,1,.46-.17.64.64,0,0,1,.44.17.69.69,0,0,1,.17.48.65.65,0,0,1-.17.46.6.6,0,0,1-.44.18.62.62,0,0,1-.64-.64A.65.65,0,0,1,.81,124.72Zm11.35.94H3.71v-.93h8.45Z"/><path class="cls-5" d="M5.62,122.23A3.72,3.72,0,0,1,4.1,120.9a3.82,3.82,0,0,1,0-4,3.58,3.58,0,0,1,1.52-1.33,4.86,4.86,0,0,1,2.19-.47h.25a4.9,4.9,0,0,1,2.2.47,3.6,3.6,0,0,1,1.51,1.32,3.52,3.52,0,0,1,.55,2,3.59,3.59,0,0,1-.55,2,3.69,3.69,0,0,1-1.51,1.33,5,5,0,0,1-2.2.47H7.81A5,5,0,0,1,5.62,122.23Zm4.18-.8a3,3,0,0,0,1.25-1,2.73,2.73,0,0,0,0-3.06,2.89,2.89,0,0,0-1.25-1,4.49,4.49,0,0,0-1.74-.33H7.81a4.43,4.43,0,0,0-1.72.33,3.08,3.08,0,0,0-1.26,1,2.49,2.49,0,0,0-.48,1.53,2.44,2.44,0,0,0,.48,1.52,3.08,3.08,0,0,0,1.26,1,4.43,4.43,0,0,0,1.72.33h.25A4.49,4.49,0,0,0,9.8,121.43Z"/><path class="cls-5" d="M4.3,107.53a3.38,3.38,0,0,1,2.36-.69h5.5v.93H6.66a2.51,2.51,0,0,0-1.78.51,2,2,0,0,0-.52,1.49,2.27,2.27,0,0,0,.57,1.56,3.43,3.43,0,0,0,1.43,1h5.8v.94H3.71v-.9l1.43,0A3.33,3.33,0,0,1,4,111.12a3.05,3.05,0,0,1-.43-1.59A2.59,2.59,0,0,1,4.3,107.53Z"/><path class="cls-5" d="M5.62,100.56a3.53,3.53,0,0,1-2.07-3.29,3.67,3.67,0,0,1,.55-2A3.72,3.72,0,0,1,5.62,94a5,5,0,0,1,2.19-.47h.25a5,5,0,0,1,2.2.47,3.74,3.74,0,0,1,1.51,1.32,3.67,3.67,0,0,1-1.51,5.29,4.9,4.9,0,0,1-2.2.47H7.81A4.86,4.86,0,0,1,5.62,100.56Zm4.18-.8a3,3,0,0,0,1.25-1,2.51,2.51,0,0,0,.47-1.54,2.43,2.43,0,0,0-.47-1.52,3,3,0,0,0-1.25-1,4.49,4.49,0,0,0-1.74-.33H7.81a4.26,4.26,0,0,0-1.72.34,3,3,0,0,0-1.26,1,2.66,2.66,0,0,0,0,3.05,3,3,0,0,0,1.26,1,4.43,4.43,0,0,0,1.72.33h.25A4.49,4.49,0,0,0,9.8,99.76Z"/><path class="cls-5" d="M1.3,89.51A2,2,0,0,0,2.66,90h1v-2h.77v2h7.68v.93H4.48v1.4H3.71v-1.4h-1a2.7,2.7,0,0,1-2-.67A2.41,2.41,0,0,1,0,88.38a3.66,3.66,0,0,1,.13-1l.78.07a3.85,3.85,0,0,0-.09.86A1.54,1.54,0,0,0,1.3,89.51Z"/><path class="cls-5" d="M7.73,81.19a2.36,2.36,0,0,1-.75,1,1.81,1.81,0,0,1-1.13.34,1.9,1.9,0,0,1-1.15-.37,2.51,2.51,0,0,1-.84-1,3.82,3.82,0,0,1-.31-1.57,3.87,3.87,0,0,1,.33-1.66,2.45,2.45,0,0,1,.9-1.09,2.3,2.3,0,0,1,1.3-.37v.94a1.57,1.57,0,0,0-.85.26,1.87,1.87,0,0,0-.64.76,2.64,2.64,0,0,0-.24,1.16,2.8,2.8,0,0,0,.21,1.16,1.56,1.56,0,0,0,.55.67,1.24,1.24,0,0,0,.71.22,1.27,1.27,0,0,0,.69-.18A1.46,1.46,0,0,0,7,80.73a6.83,6.83,0,0,0,.45-1.42A7.36,7.36,0,0,1,8,77.62a2.39,2.39,0,0,1,.78-1,2.19,2.19,0,0,1,2.37.08A2.43,2.43,0,0,1,12,77.83a4.17,4.17,0,0,1,.3,1.64A4.22,4.22,0,0,1,12,81.25,2.66,2.66,0,0,1,11,82.39a2.17,2.17,0,0,1-1.25.39v-.93a1.54,1.54,0,0,0,1.32-.75,3.09,3.09,0,0,0,.41-1.63,3,3,0,0,0-.21-1.18,1.75,1.75,0,0,0-.55-.75,1.23,1.23,0,0,0-.75-.25A1.43,1.43,0,0,0,9,77.77a3.91,3.91,0,0,0-.72,1.78A8.06,8.06,0,0,1,7.73,81.19Z"/><path class="cls-5" d="M11.32,68.1a3.14,3.14,0,0,0,.74-.19h.1v1a4,4,0,0,1-1.18.18,3.49,3.49,0,0,1,1,1.2A3.56,3.56,0,0,1,12.32,72,3.08,3.08,0,0,1,12,73.38a2.34,2.34,0,0,1-.85,1,2.4,2.4,0,0,1-2.66-.13,2.76,2.76,0,0,1-.93-1.33,5.8,5.8,0,0,1-.33-2V69.1h-1a1.82,1.82,0,0,0-1.43.57,2.28,2.28,0,0,0-.52,1.61,2.7,2.7,0,0,0,.23,1.16,1.91,1.91,0,0,0,.62.81,1.36,1.36,0,0,0,.86.3v.93a2,2,0,0,1-1.21-.41,2.92,2.92,0,0,1-.92-1.16,3.76,3.76,0,0,1-.36-1.67,4.05,4.05,0,0,1,.31-1.61,2.45,2.45,0,0,1,.93-1.08,2.78,2.78,0,0,1,1.51-.39h4.09A7.26,7.26,0,0,0,11.32,68.1ZM11,70.15a2.69,2.69,0,0,0-1.2-1.05H8v1.6a5.27,5.27,0,0,0,.23,1.64,2.25,2.25,0,0,0,.65,1,1.48,1.48,0,0,0,1,.36,1.54,1.54,0,0,0,1.43-.9,2.11,2.11,0,0,0,.22-1A3.07,3.07,0,0,0,11,70.15Z"/><path class="cls-5" d="M12.2,62.31c0,.11.06.26.09.44a5.25,5.25,0,0,1,0,.56,1.77,1.77,0,0,1-.51,1.36,2.41,2.41,0,0,1-1.71.49H4.48V66.7H3.71V65.16H1.54v-1H3.71V62.47h.77v1.74H10.1a1.63,1.63,0,0,0,1.11-.29,1.11,1.11,0,0,0,.29-.8,4.43,4.43,0,0,0-.09-.77Z"/><path class="cls-5" d="M.81,59.46a.65.65,0,0,1,.46-.17.64.64,0,0,1,.44.17.69.69,0,0,1,.17.48.64.64,0,0,1-.17.46.6.6,0,0,1-.44.18.62.62,0,0,1-.46-.18.6.6,0,0,1-.18-.46A.65.65,0,0,1,.81,59.46Zm11.35.95H3.71v-.93h8.45Z"/><path class="cls-5" d="M7.73,55.76a2.36,2.36,0,0,1-.75,1,1.81,1.81,0,0,1-1.13.34A1.9,1.9,0,0,1,4.7,56.7a2.51,2.51,0,0,1-.84-1,3.82,3.82,0,0,1-.31-1.57,3.87,3.87,0,0,1,.33-1.66,2.45,2.45,0,0,1,.9-1.09A2.3,2.3,0,0,1,6.08,51v.94a1.57,1.57,0,0,0-.85.26,1.94,1.94,0,0,0-.64.76,2.64,2.64,0,0,0-.24,1.16,2.8,2.8,0,0,0,.21,1.16,1.56,1.56,0,0,0,.55.67,1.24,1.24,0,0,0,.71.22A1.27,1.27,0,0,0,6.51,56,1.46,1.46,0,0,0,7,55.3a6.83,6.83,0,0,0,.45-1.42A7.53,7.53,0,0,1,8,52.19a2.39,2.39,0,0,1,.78-1,2.19,2.19,0,0,1,2.37.08A2.43,2.43,0,0,1,12,52.4a4.17,4.17,0,0,1,.3,1.64A4.22,4.22,0,0,1,12,55.82,2.66,2.66,0,0,1,11,57a2.17,2.17,0,0,1-1.25.39v-.93a1.54,1.54,0,0,0,1.32-.75A3.09,3.09,0,0,0,11.52,54a3,3,0,0,0-.21-1.18,1.75,1.75,0,0,0-.55-.75,1.23,1.23,0,0,0-.75-.25A1.43,1.43,0,0,0,9,52.34a3.91,3.91,0,0,0-.72,1.78A8.06,8.06,0,0,1,7.73,55.76Z"/><path class="cls-5" d="M1.3,46.78a2,2,0,0,0,1.36.43h1v-2h.77v2h7.68v.93H4.48v1.41H3.71V48.14h-1a2.74,2.74,0,0,1-2-.66A2.41,2.41,0,0,1,0,45.65a3.56,3.56,0,0,1,.13-1l.78.07a3.85,3.85,0,0,0-.09.86A1.54,1.54,0,0,0,1.3,46.78Z"/><path class="cls-5" d="M11.32,37.37a2.72,2.72,0,0,0,.74-.19h.1v1a4.3,4.3,0,0,1-1.18.19,3.37,3.37,0,0,1,1,1.19,3.6,3.6,0,0,1,.37,1.67A3.1,3.1,0,0,1,12,42.66a2.25,2.25,0,0,1-.85,1A2.29,2.29,0,0,1,9.92,44a2.26,2.26,0,0,1-1.42-.46,2.84,2.84,0,0,1-.93-1.34,5.76,5.76,0,0,1-.33-2V38.38h-1a1.82,1.82,0,0,0-1.43.56,2.29,2.29,0,0,0-.52,1.61,2.7,2.7,0,0,0,.23,1.16,2,2,0,0,0,.62.82,1.42,1.42,0,0,0,.86.29v.94a2,2,0,0,1-1.21-.42,2.88,2.88,0,0,1-.92-1.15,3.79,3.79,0,0,1-.36-1.67,4,4,0,0,1,.31-1.61,2.43,2.43,0,0,1,.93-1.09,2.87,2.87,0,0,1,1.51-.38h4.09A5.82,5.82,0,0,0,11.32,37.37ZM11,39.42a2.67,2.67,0,0,0-1.2-1H8V40a5.21,5.21,0,0,0,.23,1.63,2.2,2.2,0,0,0,.65,1,1.48,1.48,0,0,0,1,.36,1.52,1.52,0,0,0,.84-.23,1.61,1.61,0,0,0,.59-.67,2.08,2.08,0,0,0,.22-1A3.09,3.09,0,0,0,11,39.42Z"/><path class="cls-5" d="M9.55,28.57a2.74,2.74,0,0,1,1.42.48,2.92,2.92,0,0,1,1,1.18,3.55,3.55,0,0,1,.36,1.58,3.41,3.41,0,0,1-.55,2A3.5,3.5,0,0,1,10.27,35a5.52,5.52,0,0,1-2.17.41H7.77A5.51,5.51,0,0,1,5.61,35a3.44,3.44,0,0,1-1.5-1.23,3.37,3.37,0,0,1-.56-2,3.59,3.59,0,0,1,.37-1.63A2.94,2.94,0,0,1,5,29a3.22,3.22,0,0,1,1.58-.47v.89a2.44,2.44,0,0,0-1.16.36,2.15,2.15,0,0,0-.77.84,2.52,2.52,0,0,0-.27,1.17,2.39,2.39,0,0,0,.47,1.51,2.62,2.62,0,0,0,1.23.87,5,5,0,0,0,1.72.28H8.1a5.13,5.13,0,0,0,1.72-.27,2.55,2.55,0,0,0,1.24-.88,2.42,2.42,0,0,0,.46-1.53,2.64,2.64,0,0,0-.23-1.12,2.15,2.15,0,0,0-.67-.85,2,2,0,0,0-1.07-.38Z"/><path class="cls-5" d="M12.2,23.34a4.13,4.13,0,0,1,.09.44,5.12,5.12,0,0,1,0,.56,1.8,1.8,0,0,1-.51,1.36,2.46,2.46,0,0,1-1.71.48H4.48v1.55H3.71V26.18H1.54v-.95H3.71V23.49h.77v1.74H10.1a1.57,1.57,0,0,0,1.11-.29,1.09,1.09,0,0,0,.29-.8,4.34,4.34,0,0,0-.09-.76Z"/><path class="cls-5" d="M.81,20.49a.62.62,0,0,1,.46-.18.6.6,0,0,1,.44.18.66.66,0,0,1,.17.47.68.68,0,0,1-.17.47.64.64,0,0,1-.44.17.65.65,0,0,1-.46-.17A.64.64,0,0,1,.63,21,.63.63,0,0,1,.81,20.49Zm11.35.94H3.71V20.5h8.45Z"/><path class="cls-5" d="M5.62,18A3.53,3.53,0,0,1,3.55,14.7a3.67,3.67,0,0,1,.55-2,3.72,3.72,0,0,1,1.52-1.33,5,5,0,0,1,2.19-.47h.25a5,5,0,0,1,2.2.47,3.74,3.74,0,0,1,1.51,1.32,3.55,3.55,0,0,1,.55,2A3.57,3.57,0,0,1,10.26,18a5,5,0,0,1-2.2.47H7.81A5,5,0,0,1,5.62,18Zm4.18-.8a2.91,2.91,0,0,0,1.25-1,2.46,2.46,0,0,0,.47-1.53,2.43,2.43,0,0,0-.47-1.52,3,3,0,0,0-1.25-1,4.49,4.49,0,0,0-1.74-.33H7.81a4.26,4.26,0,0,0-1.72.34,3,3,0,0,0-1.26,1,2.66,2.66,0,0,0,0,3,3,3,0,0,0,1.26,1,4.43,4.43,0,0,0,1.72.33h.25A4.49,4.49,0,0,0,9.8,17.19Z"/><path class="cls-5" d="M4.3,3.29A3.38,3.38,0,0,1,6.66,2.6h5.5v.94H6.66a2.51,2.51,0,0,0-1.78.51,2,2,0,0,0-.52,1.48,2.27,2.27,0,0,0,.57,1.56,3.45,3.45,0,0,0,1.43,1h5.8V9H3.71V8.09l1.43,0A3.39,3.39,0,0,1,4,6.89,3.05,3.05,0,0,1,3.55,5.3,2.6,2.6,0,0,1,4.3,3.29Z"/><path class="cls-5" d="M805.8,782.37h-5.17l-1.17,3.18h-1l4.3-11.37h.91L808,785.55h-1Zm-.3-.82-2.28-6.2-2.28,6.2Z"/><path class="cls-5" d="M820.55,777.7a3.38,3.38,0,0,1,.7,2.35v5.5h-.93V780a2.41,2.41,0,0,0-.53-1.77,2,2,0,0,0-1.5-.52,2.46,2.46,0,0,0-1.3.33,2.39,2.39,0,0,0-.86.84,2.47,2.47,0,0,0-.35,1v5.59h-.94V780a2.29,2.29,0,0,0-.53-1.7,2.13,2.13,0,0,0-1.52-.51,2.25,2.25,0,0,0-1.59.56,3.08,3.08,0,0,0-.87,1.43v5.81h-.94V777.1h.91l0,1.37a3.09,3.09,0,0,1,2.74-1.52,3.07,3.07,0,0,1,1.61.39,2.19,2.19,0,0,1,.92,1.24,3.18,3.18,0,0,1,1.17-1.19,3.26,3.26,0,0,1,1.72-.44A2.71,2.71,0,0,1,820.55,777.7Z"/><path class="cls-5" d="M823.58,779a3.72,3.72,0,0,1,1.33-1.52,3.62,3.62,0,0,1,2-.54,3.69,3.69,0,0,1,2,.54,3.63,3.63,0,0,1,1.32,1.52,4.86,4.86,0,0,1,.47,2.19v.25a4.9,4.9,0,0,1-.47,2.2,3.6,3.6,0,0,1-1.32,1.51,3.5,3.5,0,0,1-2,.55,3.59,3.59,0,0,1-2-.55,3.69,3.69,0,0,1-1.33-1.51,5,5,0,0,1-.46-2.2v-.25A5,5,0,0,1,823.58,779Zm.81,4.18a3,3,0,0,0,1,1.26,2.77,2.77,0,0,0,3.06,0,3,3,0,0,0,1-1.26,4.5,4.5,0,0,0,.34-1.74v-.25a4.43,4.43,0,0,0-.34-1.72,3.08,3.08,0,0,0-1-1.26,2.49,2.49,0,0,0-1.53-.48,2.44,2.44,0,0,0-1.52.48,3,3,0,0,0-1,1.26,4.26,4.26,0,0,0-.34,1.72v.25A4.32,4.32,0,0,0,824.39,783.19Z"/><path class="cls-5" d="M839,777.1v8.45h-.9l0-1.07a3,3,0,0,1-2.69,1.23,2.65,2.65,0,0,1-2-.77,3.41,3.41,0,0,1-.74-2.43V777.1h.94v5.42a2.59,2.59,0,0,0,.53,1.82,1.89,1.89,0,0,0,1.42.56,2.85,2.85,0,0,0,1.69-.45,2.31,2.31,0,0,0,.87-1.22V777.1Z"/><path class="cls-5" d="M847.07,777.69a3.38,3.38,0,0,1,.69,2.36v5.5h-.93v-5.5a2.51,2.51,0,0,0-.51-1.78,2,2,0,0,0-1.49-.52,2.29,2.29,0,0,0-1.56.57,3.43,3.43,0,0,0-.95,1.43v5.8h-.94V777.1h.9l0,1.43a3.33,3.33,0,0,1,1.17-1.16,3,3,0,0,1,1.59-.42A2.58,2.58,0,0,1,847.07,777.69Z"/><path class="cls-5" d="M853.54,785.59l-.44.09a5.25,5.25,0,0,1-.56,0,1.77,1.77,0,0,1-1.36-.51,2.39,2.39,0,0,1-.49-1.71v-5.62h-1.54v-.77h1.54v-2.17h.95v2.17h1.74v.77h-1.74v5.62a1.63,1.63,0,0,0,.29,1.11,1.11,1.11,0,0,0,.8.29,4.43,4.43,0,0,0,.77-.09Z"/><path class="cls-5" d="M859.19,779a3.5,3.5,0,0,1,3.29-2.06A3.53,3.53,0,0,1,865.8,779a5,5,0,0,1,.46,2.19v.25a5,5,0,0,1-.46,2.2,3.74,3.74,0,0,1-1.32,1.51,3.55,3.55,0,0,1-2,.55,3.54,3.54,0,0,1-3.31-2.06,4.9,4.9,0,0,1-.47-2.2v-.25A4.86,4.86,0,0,1,859.19,779Zm.8,4.18a3,3,0,0,0,1,1.26,2.55,2.55,0,0,0,1.54.46,2.51,2.51,0,0,0,1.52-.46,3,3,0,0,0,1-1.26,4.32,4.32,0,0,0,.34-1.74v-.25a4.43,4.43,0,0,0-.34-1.72,3,3,0,0,0-1-1.26,2.49,2.49,0,0,0-1.53-.48,2.46,2.46,0,0,0-1.52.48,3,3,0,0,0-1,1.26,4.43,4.43,0,0,0-.34,1.72v.25A4.5,4.5,0,0,0,860,783.19Z"/><path class="cls-5" d="M870.24,774.69a2,2,0,0,0-.44,1.36v1.05h2v.77h-2v7.68h-.93v-7.68h-1.4v-.77h1.4v-1.05a2.74,2.74,0,0,1,.66-2,2.42,2.42,0,0,1,1.84-.69,4.09,4.09,0,0,1,1,.13l-.07.78a3.91,3.91,0,0,0-.86-.09A1.54,1.54,0,0,0,870.24,774.69Z"/><path class="cls-5" d="M883.83,777.1v8.31a4,4,0,0,1-.42,1.88,3,3,0,0,1-1.18,1.22,3.7,3.7,0,0,1-1.79.42,3.9,3.9,0,0,1-1.65-.38,3.17,3.17,0,0,1-1.3-1.07l.52-.57a3.45,3.45,0,0,0,1.09.93,2.9,2.9,0,0,0,1.28.29,2.35,2.35,0,0,0,1.85-.71,2.79,2.79,0,0,0,.66-2v-1a3,3,0,0,1-1.09.93,3.39,3.39,0,0,1-1.54.33,2.79,2.79,0,0,1-1.71-.54,3.41,3.41,0,0,1-1.13-1.52,5.81,5.81,0,0,1-.4-2.24v-.16a6.12,6.12,0,0,1,.39-2.28,3.29,3.29,0,0,1,1.13-1.5,2.91,2.91,0,0,1,1.74-.52,3.19,3.19,0,0,1,1.55.35,3,3,0,0,1,1.08,1l0-1.22ZM882,784.48a2.76,2.76,0,0,0,.93-1.14v-3.91a2.86,2.86,0,0,0-.89-1.21,2.41,2.41,0,0,0-1.54-.46,2.15,2.15,0,0,0-1.39.45,2.64,2.64,0,0,0-.84,1.24,5.5,5.5,0,0,0-.27,1.8v.16a5.5,5.5,0,0,0,.27,1.8,2.65,2.65,0,0,0,.83,1.24,2.12,2.12,0,0,0,1.38.45A2.6,2.6,0,0,0,882,784.48Z"/><path class="cls-5" d="M886.69,781.38v.18a4,4,0,0,0,.37,1.7,3.07,3.07,0,0,0,1,1.22,2.67,2.67,0,0,0,1.5.44,3,3,0,0,0,1.34-.28,2.72,2.72,0,0,0,1-.87l.6.44a3.49,3.49,0,0,1-1.2,1.09,3.74,3.74,0,0,1-1.8.41,3.63,3.63,0,0,1-3.31-2,4.65,4.65,0,0,1-.48-2.14v-.33a4.93,4.93,0,0,1,.49-2.25,3.75,3.75,0,0,1,1.33-1.5,3.45,3.45,0,0,1,3.61,0,3.11,3.11,0,0,1,1.14,1.36,4.94,4.94,0,0,1,.4,2v.57Zm1.42-3.29a2.7,2.7,0,0,0-.92,1,4.06,4.06,0,0,0-.46,1.5h5.06v-.11a3.46,3.46,0,0,0-.3-1.36,2.34,2.34,0,0,0-.81-1,2.22,2.22,0,0,0-1.3-.38A2.4,2.4,0,0,0,888.11,778.09Z"/><path class="cls-5" d="M898.45,777.89a3.74,3.74,0,0,0-.62,0,2.27,2.27,0,0,0-1.51.5,2.69,2.69,0,0,0-.84,1.39v5.82h-.93V777.1h.91l0,1.33a2.74,2.74,0,0,1,.95-1.09,2.57,2.57,0,0,1,1.43-.39l.34,0a1.26,1.26,0,0,1,.28.07Z"/><path class="cls-5" d="M911.05,777.7a3.38,3.38,0,0,1,.7,2.35v5.5h-.93V780a2.41,2.41,0,0,0-.53-1.77,2,2,0,0,0-1.5-.52,2.46,2.46,0,0,0-1.3.33,2.39,2.39,0,0,0-.86.84,2.47,2.47,0,0,0-.35,1v5.59h-.94V780a2.29,2.29,0,0,0-.53-1.7,2.13,2.13,0,0,0-1.52-.51,2.25,2.25,0,0,0-1.59.56,3.08,3.08,0,0,0-.87,1.43v5.81h-.94V777.1h.91l0,1.37a3.09,3.09,0,0,1,2.74-1.52,3.07,3.07,0,0,1,1.61.39,2.19,2.19,0,0,1,.92,1.24,3.18,3.18,0,0,1,1.17-1.19A3.26,3.26,0,0,1,909,777,2.71,2.71,0,0,1,911.05,777.7Z"/><path class="cls-5" d="M915.29,781.12a2.5,2.5,0,0,1-1-.74,1.84,1.84,0,0,1-.34-1.14,1.92,1.92,0,0,1,.37-1.15,2.51,2.51,0,0,1,1-.84A3.86,3.86,0,0,1,917,777a3.92,3.92,0,0,1,1.67.32,2.54,2.54,0,0,1,1.08.9,2.3,2.3,0,0,1,.37,1.3h-.94a1.57,1.57,0,0,0-.26-.85,1.91,1.91,0,0,0-.75-.64,2.66,2.66,0,0,0-1.17-.24,2.75,2.75,0,0,0-1.15.21,1.59,1.59,0,0,0-.68.55,1.24,1.24,0,0,0-.22.71,1.27,1.27,0,0,0,.18.69,1.49,1.49,0,0,0,.67.51,6.7,6.7,0,0,0,1.41.45,7.36,7.36,0,0,1,1.69.57,2.47,2.47,0,0,1,1,.78,2,2,0,0,1,.31,1.14,2,2,0,0,1-.39,1.23,2.38,2.38,0,0,1-1.09.83,4.17,4.17,0,0,1-1.64.3,4.25,4.25,0,0,1-1.78-.35,2.66,2.66,0,0,1-1.14-.93,2.17,2.17,0,0,1-.39-1.25h.93a1.53,1.53,0,0,0,.76,1.32,3,3,0,0,0,1.62.41,3,3,0,0,0,1.18-.21,1.75,1.75,0,0,0,.75-.55,1.23,1.23,0,0,0,.25-.75,1.43,1.43,0,0,0-.48-1.06,3.86,3.86,0,0,0-1.78-.72A8.27,8.27,0,0,1,915.29,781.12Z"/><path class="cls-5" d="M932.28,784.71a2.68,2.68,0,0,0,.2.74v.1h-1a3.93,3.93,0,0,1-.19-1.17,3.55,3.55,0,0,1-2.86,1.33,3.1,3.1,0,0,1-1.43-.31,2.34,2.34,0,0,1-1-.85,2.4,2.4,0,0,1,.13-2.66,2.81,2.81,0,0,1,1.33-.93,5.8,5.8,0,0,1,2-.33h1.73v-1a1.82,1.82,0,0,0-.57-1.43,2.26,2.26,0,0,0-1.61-.52,2.73,2.73,0,0,0-1.16.23,1.91,1.91,0,0,0-.81.62,1.36,1.36,0,0,0-.3.86h-.93a2,2,0,0,1,.41-1.21,2.92,2.92,0,0,1,1.16-.92,3.76,3.76,0,0,1,1.67-.35,4.06,4.06,0,0,1,1.61.3,2.45,2.45,0,0,1,1.08.93,2.79,2.79,0,0,1,.39,1.52v4.08A7.26,7.26,0,0,0,932.28,784.71Zm-2-.29a2.63,2.63,0,0,0,1-1.2v-1.87h-1.6a5.27,5.27,0,0,0-1.64.23,2.39,2.39,0,0,0-1,.65,1.48,1.48,0,0,0-.36,1,1.58,1.58,0,0,0,.9,1.43,2.14,2.14,0,0,0,1,.22A3.07,3.07,0,0,0,930.23,784.42Z"/><path class="cls-5" d="M940.76,777.1l-3.16,8.45h-.76l-3.17-8.45h1l2.59,7.17,2.57-7.17Z"/><path class="cls-5" d="M942.13,779a3.65,3.65,0,0,1,1.33-1.52,3.88,3.88,0,0,1,3.95,0,3.65,3.65,0,0,1,1.33,1.52,5,5,0,0,1,.47,2.19v.25a5,5,0,0,1-.47,2.2,3.6,3.6,0,0,1-1.32,1.51,3.84,3.84,0,0,1-4,0,3.62,3.62,0,0,1-1.33-1.51,5,5,0,0,1-.47-2.2v-.25A5,5,0,0,1,942.13,779Zm.8,4.18a3,3,0,0,0,1,1.26,2.77,2.77,0,0,0,3.06,0,3.06,3.06,0,0,0,1-1.26,4.49,4.49,0,0,0,.33-1.74v-.25a4.43,4.43,0,0,0-.33-1.72,3.08,3.08,0,0,0-1-1.26,2.68,2.68,0,0,0-3.06,0,3.06,3.06,0,0,0-1,1.26,4.43,4.43,0,0,0-.33,1.72v.25A4.49,4.49,0,0,0,942.93,783.19Z"/><path class="cls-5" d="M952.2,774.2a.65.65,0,0,1,.17.46.64.64,0,0,1-.17.44.68.68,0,0,1-.47.17.66.66,0,0,1-.47-.17.6.6,0,0,1-.18-.44.62.62,0,0,1,.18-.46.63.63,0,0,1,.47-.18A.64.64,0,0,1,952.2,774.2Zm-.94,11.35V777.1h.93v8.45Z"/><path class="cls-5" d="M961.17,773.55v12h-.87l0-1.13a3,3,0,0,1-1.09,1,3.44,3.44,0,0,1-1.55.33,2.81,2.81,0,0,1-1.71-.54,3.5,3.5,0,0,1-1.14-1.52,6,6,0,0,1-.39-2.24v-.16a6.12,6.12,0,0,1,.39-2.28,3.29,3.29,0,0,1,1.13-1.5,2.92,2.92,0,0,1,1.73-.52,3.2,3.2,0,0,1,1.53.34,2.93,2.93,0,0,1,1.08,1v-4.73Zm-1.88,10.94a2.83,2.83,0,0,0,.94-1.11v-4a2.87,2.87,0,0,0-.9-1.18,2.44,2.44,0,0,0-1.53-.45,2.17,2.17,0,0,0-1.39.45,2.7,2.7,0,0,0-.83,1.24,5.23,5.23,0,0,0-.28,1.8v.16a5.23,5.23,0,0,0,.28,1.8,2.63,2.63,0,0,0,.82,1.24,2.13,2.13,0,0,0,1.39.45A2.62,2.62,0,0,0,959.29,784.49Z"/><path class="cls-5" d="M964.05,781.38v.18a4,4,0,0,0,.36,1.7,3,3,0,0,0,1,1.22,2.62,2.62,0,0,0,1.5.44,3,3,0,0,0,1.33-.28,2.72,2.72,0,0,0,1-.87l.6.44a3.49,3.49,0,0,1-1.2,1.09,3.71,3.71,0,0,1-1.8.41,3.65,3.65,0,0,1-1.95-.53,3.58,3.58,0,0,1-1.35-1.48,4.53,4.53,0,0,1-.49-2.14v-.33a4.93,4.93,0,0,1,.49-2.25,3.75,3.75,0,0,1,1.33-1.5,3.45,3.45,0,0,1,3.61,0,3.13,3.13,0,0,1,1.15,1.36,4.94,4.94,0,0,1,.39,2v.57Zm1.41-3.29a2.78,2.78,0,0,0-.92,1,4.06,4.06,0,0,0-.46,1.5h5.06v-.11a3.64,3.64,0,0,0-.29-1.36,2.44,2.44,0,0,0-.82-1,2.22,2.22,0,0,0-1.3-.38A2.4,2.4,0,0,0,965.46,778.09Z"/><path class="cls-5" d="M978.33,773.55v12h-.87l-.05-1.13a3,3,0,0,1-1.09,1,3.41,3.41,0,0,1-1.55.33,2.81,2.81,0,0,1-1.71-.54,3.41,3.41,0,0,1-1.13-1.52,5.81,5.81,0,0,1-.4-2.24v-.16a6.12,6.12,0,0,1,.39-2.28,3.31,3.31,0,0,1,1.14-1.5,2.9,2.9,0,0,1,1.73-.52,3.19,3.19,0,0,1,1.52.34,3,3,0,0,1,1.09,1v-4.73Zm-1.87,10.94a2.91,2.91,0,0,0,.94-1.11v-4a3,3,0,0,0-.9-1.18,2.44,2.44,0,0,0-1.53-.45,2.13,2.13,0,0,0-1.39.45,2.64,2.64,0,0,0-.84,1.24,5.5,5.5,0,0,0-.27,1.8v.16a5.5,5.5,0,0,0,.27,1.8,2.65,2.65,0,0,0,.83,1.24,2.12,2.12,0,0,0,1.38.45A2.68,2.68,0,0,0,976.46,784.49Z"/><path class="cls-6" d="M807.73,21.5A10,10,0,0,1,804,25.83a11,11,0,0,1-11.12,0,10,10,0,0,1-3.78-4.34,15.25,15.25,0,0,1-1.35-6.64V13.57a15.44,15.44,0,0,1,1.34-6.65,10.22,10.22,0,0,1,3.76-4.35,10.95,10.95,0,0,1,11.13,0,9.94,9.94,0,0,1,3.75,4.34,15.43,15.43,0,0,1,1.34,6.66v1.28A15.56,15.56,0,0,1,807.73,21.5ZM802.9,7.06a5.2,5.2,0,0,0-4.51-2.24,5.34,5.34,0,0,0-3.25,1,6.09,6.09,0,0,0-2.1,3,13.55,13.55,0,0,0-.73,4.75v1.32a13.41,13.41,0,0,0,.74,4.76,6.28,6.28,0,0,0,2.11,3,5.4,5.4,0,0,0,3.26,1,5.13,5.13,0,0,0,4.49-2.25,11.26,11.26,0,0,0,1.58-6.5V13.53A11.1,11.1,0,0,0,802.9,7.06Z"/><path class="cls-7" d="M828.74,8V27h-4.13l-.11-1.88a6.52,6.52,0,0,1-5.32,2.23,6.12,6.12,0,0,1-4.62-1.72c-1.12-1.15-1.67-2.93-1.67-5.36V8h4.37V20.3a3.59,3.59,0,0,0,.82,2.66,3,3,0,0,0,2.15.8q3,0,4.11-2.16V8Z"/><path class="cls-8" d="M842.4,7.7a2.94,2.94,0,0,1,.69.16l0,4.13a10.4,10.4,0,0,0-1.74-.15,3.91,3.91,0,0,0-3.94,2.2V27H833V8h4.16l.13,2.14a5.27,5.27,0,0,1,1.79-1.84,4.61,4.61,0,0,1,2.48-.65A5.25,5.25,0,0,1,842.4,7.7Z"/><path class="cls-9" d="M869.94,2.45a7.59,7.59,0,0,1,3.22,2.9,8.09,8.09,0,0,1,1.11,4.23,8.05,8.05,0,0,1-1.1,4.27,7,7,0,0,1-3.2,2.74,12.23,12.23,0,0,1-5.05.95h-5.27V27H855.1V1.41h9.82A11.19,11.19,0,0,1,869.94,2.45Zm-1.41,10.29a4.16,4.16,0,0,0,1.17-3.13,5,5,0,0,0-.51-2.26,4,4,0,0,0-1.58-1.65,5.33,5.33,0,0,0-2.69-.62h-5.27v8.8h5.27A5,5,0,0,0,868.53,12.74Z"/><path class="cls-10" d="M887.12,7.7a2.92,2.92,0,0,1,.7.16l0,4.13a10.22,10.22,0,0,0-1.74-.15,3.9,3.9,0,0,0-3.93,2.2V27h-4.38V8h4.17l.12,2.14a5.36,5.36,0,0,1,1.79-1.84,4.64,4.64,0,0,1,2.48-.65A5.16,5.16,0,0,1,887.12,7.7Z"/><path class="cls-11" d="M890.34,12.34a8.19,8.19,0,0,1,3.07-3.46,8.72,8.72,0,0,1,4.71-1.25,8.86,8.86,0,0,1,4.75,1.25A8.21,8.21,0,0,1,906,12.34a11.37,11.37,0,0,1,1.06,5v.37a11.37,11.37,0,0,1-1.06,5,8.16,8.16,0,0,1-3.07,3.45,9.64,9.64,0,0,1-9.46,0,8.12,8.12,0,0,1-3.08-3.45,11.23,11.23,0,0,1-1.06-5v-.37A11.23,11.23,0,0,1,890.34,12.34Zm4.44,9.77a3.75,3.75,0,0,0,3.37,1.72,3.85,3.85,0,0,0,2.51-.82,4.77,4.77,0,0,0,1.49-2.2,9.57,9.57,0,0,0,.48-3.13v-.37a9.55,9.55,0,0,0-.48-3.12,4.77,4.77,0,0,0-1.5-2.22,3.91,3.91,0,0,0-2.53-.83,3.81,3.81,0,0,0-2.5.83,4.82,4.82,0,0,0-1.48,2.22,9.29,9.29,0,0,0-.49,3.12v.37A8,8,0,0,0,894.78,22.11Z"/><path class="cls-12" d="M926.46,0V27h-4l-.21-2a6.23,6.23,0,0,1-5.08,2.33,6.5,6.5,0,0,1-4-1.24,8,8,0,0,1-2.61-3.45,12.92,12.92,0,0,1-.91-4.95v-.37a13.31,13.31,0,0,1,.9-5.08,7.69,7.69,0,0,1,2.61-3.41,6.66,6.66,0,0,1,4-1.21,6.12,6.12,0,0,1,4.84,2.09V0Zm-4.37,21.47v-8a3.9,3.9,0,0,0-3.73-2.24,3.49,3.49,0,0,0-3.19,1.71,8.35,8.35,0,0,0-1,4.43v.37a8.35,8.35,0,0,0,1,4.38,3.48,3.48,0,0,0,3.18,1.68A3.93,3.93,0,0,0,922.09,21.47Z"/><path class="cls-13" d="M946.62,8V27h-4.13l-.11-1.88a6.52,6.52,0,0,1-5.32,2.23,6.12,6.12,0,0,1-4.62-1.72c-1.12-1.15-1.67-2.93-1.67-5.36V8h4.37V20.3A3.63,3.63,0,0,0,936,23a3,3,0,0,0,2.15.8q3,0,4.12-2.16V8Z"/><path class="cls-14" d="M966.55,20.67A6.18,6.18,0,0,1,965.44,24a7.47,7.47,0,0,1-2.81,2.43,8.32,8.32,0,0,1-3.85.89A8.68,8.68,0,0,1,954,26.08a7.75,7.75,0,0,1-2.93-3.44,11.84,11.84,0,0,1-1-4.86v-.59a11.68,11.68,0,0,1,1-4.86A7.87,7.87,0,0,1,954,8.89a8.6,8.6,0,0,1,4.76-1.26,8.69,8.69,0,0,1,4,.9,6.83,6.83,0,0,1,2.73,2.54,7.51,7.51,0,0,1,1,3.74h-4.13a4.44,4.44,0,0,0-.51-1.85,3.48,3.48,0,0,0-1.28-1.33,3.7,3.7,0,0,0-1.92-.49,3.45,3.45,0,0,0-3.29,1.71,8.86,8.86,0,0,0-.95,4.34v.59q0,6,4.26,6a4.19,4.19,0,0,0,1.82-.4,3.38,3.38,0,0,0,1.32-1.13,3.18,3.18,0,0,0,.55-1.63Z"/><path class="cls-15" d="M978.64,23.55v3.37a9,9,0,0,1-2.85.42,5,5,0,0,1-3.65-1.28A5.41,5.41,0,0,1,970.8,22V11.21h-3.09V8h3.09V3.34h4.38V8h3.33v3.23h-3.33V21.67a2.09,2.09,0,0,0,.49,1.62,2.17,2.17,0,0,0,1.47.43A6.77,6.77,0,0,0,978.64,23.55Z"/></g></g></svg>