<svg xmlns="http://www.w3.org/2000/svg" viewBox="0 0 896.22 870.29"><defs><style>.cls-1{fill:#666;}.cls-2{fill:#4d4d4d;}.cls-3{fill:#b3b3b3;}.cls-4{fill:none;stroke:#b3b3b3;stroke-linecap:round;stroke-miterlimit:10;}</style></defs><g id="Layer_2" data-name="Layer 2"><g id="Normal"><g id="stem"><rect class="cls-1" x="-23.82" y="397.94" width="957.64" height="32.41" transform="translate(-159.58 443.04) rotate(-45)"/></g><g id="handle"><polygon class="cls-1" points="467.97 447.81 460.91 440.75 481.6 420.06 485.19 423.65 474.83 433.98 467.97 447.81"/><rect class="cls-2" x="429.48" y="311.08" width="51.05" height="206.14" rx="10" transform="translate(426.11 -200.43) rotate(45)"/><path class="cls-2" d="M491.73,341.32c-1.92-1.91-5.84-1.11-8.76,1.81s-3.72,6.83-1.8,8.75Z"/><path class="cls-2" d="M477.59,355.47c-1.92-1.92-5.84-1.11-8.76,1.8s-3.72,6.84-1.8,8.76Z"/><path class="cls-2" d="M463.44,369.61c-1.92-1.92-5.83-1.11-8.75,1.8s-3.72,6.84-1.8,8.76Z"/><path class="cls-2" d="M449.3,383.75c-1.92-1.92-5.84-1.11-8.75,1.81s-3.73,6.83-1.81,8.75Z"/><path class="cls-2" d="M435.16,397.89c-1.92-1.92-5.84-1.11-8.75,1.81s-3.73,6.83-1.81,8.75Z"/><path class="cls-2" d="M421,412c-1.92-1.92-5.84-1.12-8.76,1.8s-3.72,6.83-1.8,8.75Z"/><path class="cls-2" d="M406.88,426.18c-1.92-1.92-5.84-1.11-8.76,1.8s-3.72,6.84-1.8,8.76Z"/><path class="cls-2" d="M392.73,440.32c-1.92-1.92-5.83-1.11-8.75,1.8s-3.72,6.84-1.8,8.76Z"/><path class="cls-2" d="M527.82,377.42c1.92,1.92,1.12,5.84-1.8,8.75s-6.83,3.73-8.75,1.81Z"/><path class="cls-2" d="M513.68,391.56c1.92,1.92,1.11,5.84-1.8,8.76s-6.84,3.72-8.76,1.8Z"/><path class="cls-2" d="M499.54,405.71c1.92,1.91,1.11,5.83-1.8,8.75s-6.84,3.72-8.76,1.8Z"/><path class="cls-2" d="M457.11,448.13c1.92,1.92,1.12,5.84-1.8,8.76s-6.84,3.72-8.75,1.8Z"/><path class="cls-2" d="M443,462.27c1.92,1.92,1.11,5.84-1.8,8.76s-6.84,3.72-8.76,1.8Z"/><path class="cls-2" d="M428.83,476.42c1.92,1.92,1.11,5.83-1.8,8.75s-6.84,3.72-8.76,1.8Z"/></g><g id="pointer"><path class="cls-3" d="M879.06,102.3c-1,.59-8.63-2.78-10.14-3.49-4-.44-7.46.21-11.64-.39-7.76,1-21.33,8.07-26.45,8.88s-14.81,2.92-22.74,2.92-18.1,3.08-26.87,11.85c-5.21,5.21-5.84,6.89-12.73,14.68a10,10,0,0,1-14.14,0l-22-22a10,10,0,0,1,0-14.14c9.84-10.84-14,15.49,13.61-13.8,12.87-13.66,14-37.45,33.78-57.19,2.89-2.9,7-9.46,9.55-11.94,4.7-3.85,15-7.62,16.73,1.57h0c.15.58.26,1.17.37,1.78,6.85-8.77,21.48-6.73,20.68,4.23,5.36-4.51,10.15-1.86,14,1.57s1.37,11.52.79,14.53c12.79-9.83,26.63-20.19,36.48-33.63C893-8.38,902.73,3.37,891.06,18.16a283.22,283.22,0,0,1-29.62,31.33c-6.5,5.81-16,13.39-21.34,20.49-.9.86-3.52,5.79-4.35,11-.73,4.63,19.13,1.23,22.48,1C867.89,81,886.64,93.52,879.06,102.3Z"/></g><g id="Brush"><rect class="cls-3" x="90.9" y="681.73" width="51.05" height="141.99" rx="10" transform="translate(566.36 138.14) rotate(45)"/><polyline class="cls-4" points="208.48 769.77 171.5 731.51 211.1 766.9"/><polyline class="cls-4" points="202.99 774.41 171.5 731.51 205.97 771.91"/><polyline class="cls-4" points="213.56 764.11 171.5 731.51 215.74 760.89"/><polyline class="cls-4" points="200.41 777.84 163.43 739.58 203.03 774.97"/><polyline class="cls-4" points="194.92 782.48 163.43 739.58 197.9 779.99"/><polyline class="cls-4" points="205.49 772.18 163.43 739.58 207.67 768.96"/><polyline class="cls-4" points="192.34 785.91 155.36 747.65 194.96 783.04"/><polyline class="cls-4" points="186.85 790.55 155.36 747.65 189.83 788.06"/><polyline class="cls-4" points="197.42 780.25 155.36 747.65 199.6 777.03"/><polyline class="cls-4" points="184.27 793.98 147.29 755.72 186.89 791.11"/><polyline class="cls-4" points="178.78 798.62 147.29 755.72 181.76 796.13"/><polyline class="cls-4" points="189.35 788.32 147.29 755.72 191.53 785.1"/><polyline class="cls-4" points="176.2 802.05 139.22 763.79 178.82 799.18"/><polyline class="cls-4" points="170.7 806.69 139.22 763.79 173.69 804.2"/><polyline class="cls-4" points="181.28 796.39 139.22 763.79 183.46 793.17"/><polyline class="cls-4" points="168.13 810.12 131.15 771.87 170.75 807.25"/><polyline class="cls-4" points="162.63 814.76 131.15 771.87 165.62 812.27"/><polyline class="cls-4" points="173.21 804.46 131.15 771.87 175.39 801.24"/><polyline class="cls-4" points="160.06 818.19 123.08 779.94 162.68 815.32"/><polyline class="cls-4" points="154.56 822.83 123.08 779.94 157.55 820.34"/><polyline class="cls-4" points="165.14 812.53 123.08 779.94 167.32 809.31"/><polyline class="cls-4" points="151.99 826.26 115 788.01 154.61 823.39"/><polyline class="cls-4" points="146.49 830.9 115 788.01 149.47 828.41"/><polyline class="cls-4" points="157.06 820.6 115 788.01 159.25 817.38"/><polyline class="cls-4" points="143.92 834.34 106.94 796.08 146.54 831.46"/><polyline class="cls-4" points="138.42 838.97 106.94 796.08 141.41 836.48"/><polyline class="cls-4" points="149 828.67 106.94 796.08 151.18 825.45"/><polyline class="cls-4" points="135.85 842.4 98.86 804.15 138.47 839.53"/><polyline class="cls-4" points="130.35 847.04 98.86 804.15 133.33 844.55"/><polyline class="cls-4" points="140.92 836.74 98.86 804.15 143.11 833.52"/><polyline class="cls-4" points="127.78 850.48 90.79 812.22 130.4 847.6"/><polyline class="cls-4" points="122.28 855.11 90.79 812.22 125.26 852.62"/><polyline class="cls-4" points="132.85 844.81 90.79 812.22 135.04 841.6"/><polyline class="cls-4" points="98.26 659.55 136.52 696.53 101.13 656.93"/><polyline class="cls-4" points="93.63 665.05 136.52 696.53 96.12 662.06"/><polyline class="cls-4" points="103.93 654.47 136.52 696.53 107.14 652.29"/><polyline class="cls-4" points="90.19 667.62 128.45 704.6 93.06 665"/><polyline class="cls-4" points="85.56 673.12 128.45 704.6 88.05 670.13"/><polyline class="cls-4" points="95.86 662.54 128.45 704.6 99.07 660.36"/><polyline class="cls-4" points="82.12 675.69 120.38 712.67 84.99 673.07"/><polyline class="cls-4" points="77.48 681.19 120.38 712.67 79.98 678.2"/><polyline class="cls-4" points="87.78 670.61 120.38 712.67 91 668.43"/><polyline class="cls-4" points="74.05 683.76 112.31 720.75 76.92 681.14"/><polyline class="cls-4" points="69.41 689.26 112.31 720.75 71.91 686.27"/><polyline class="cls-4" points="79.72 678.68 112.31 720.75 82.93 676.5"/><polyline class="cls-4" points="65.98 691.83 104.24 728.82 68.85 689.21"/><polyline class="cls-4" points="61.34 697.33 104.24 728.82 63.84 694.35"/><polyline class="cls-4" points="71.64 686.75 104.24 728.82 74.86 684.57"/><polyline class="cls-4" points="57.91 699.9 96.17 736.89 60.78 697.28"/><polyline class="cls-4" points="53.27 705.4 96.17 736.89 55.77 702.42"/><polyline class="cls-4" points="63.57 694.83 96.17 736.89 66.79 692.64"/><polyline class="cls-4" points="49.84 707.97 88.1 744.96 52.71 705.36"/><polyline class="cls-4" points="45.2 713.47 88.1 744.96 47.7 710.49"/><polyline class="cls-4" points="55.5 702.9 88.1 744.96 58.72 700.71"/><polyline class="cls-4" points="41.77 716.04 80.03 753.03 44.64 713.42"/><polyline class="cls-4" points="37.13 721.54 80.03 753.03 39.62 718.56"/><polyline class="cls-4" points="47.43 710.97 80.03 753.03 50.65 708.78"/><polyline class="cls-4" points="33.7 724.12 71.95 761.1 36.57 721.5"/><polyline class="cls-4" points="29.06 729.61 71.95 761.1 31.55 726.63"/><polyline class="cls-4" points="39.36 719.04 71.95 761.1 42.58 716.86"/><polyline class="cls-4" points="25.63 732.19 63.88 769.17 28.5 729.57"/><polyline class="cls-4" points="20.99 737.68 63.88 769.17 23.48 734.7"/><polyline class="cls-4" points="31.29 727.11 63.88 769.17 34.51 724.92"/><polyline class="cls-4" points="17.56 740.26 55.81 777.24 20.43 737.64"/><polyline class="cls-4" points="12.92 745.75 55.81 777.24 15.41 742.77"/><polyline class="cls-4" points="23.22 735.18 55.81 777.24 26.44 733"/><polyline class="cls-4" points="28.69 840.35 65.67 802.09 26.07 837.48"/><polyline class="cls-4" points="34.18 844.99 65.67 802.09 31.2 842.5"/><polyline class="cls-4" points="23.61 834.69 65.67 802.09 21.43 831.47"/><polyline class="cls-4" points="38.97 850.64 75.95 812.38 36.35 847.76"/><polyline class="cls-4" points="44.47 855.27 75.95 812.38 41.48 852.78"/><polyline class="cls-4" points="33.89 844.97 75.95 812.38 31.71 841.75"/><polyline class="cls-4" points="59.01 864.07 81.15 815.68 55.58 862.24"/><polyline class="cls-4" points="65.73 866.62 81.15 815.68 62.09 865.26"/><polyline class="cls-4" points="52.34 860.42 81.15 815.68 49.21 858.12"/><polyline class="cls-4" points="88.6 869.65 83.82 816.65 84.71 869.75"/><polyline class="cls-4" points="95.7 868.52 83.82 816.65 91.86 869.15"/><polyline class="cls-4" points="80.99 869.79 83.82 816.65 77.13 869.34"/><polyline class="cls-4" points="110.85 863.1 87.94 815.07 107.24 864.55"/><polyline class="cls-4" points="117.11 859.57 87.94 815.07 113.73 861.49"/><polyline class="cls-4" points="103.76 865.87 87.94 815.07 99.99 866.79"/><polyline class="cls-4" points="6.22 811.28 54.6 789.14 8.05 814.71"/><polyline class="cls-4" points="3.67 804.55 54.6 789.14 5.03 808.2"/><polyline class="cls-4" points="9.87 817.95 54.6 789.14 12.18 821.08"/><polyline class="cls-4" points="0.64 781.69 53.63 786.47 0.54 785.58"/><polyline class="cls-4" points="1.77 774.59 53.63 786.47 1.14 778.42"/><polyline class="cls-4" points="0.5 789.3 53.63 786.47 0.95 793.16"/><polyline class="cls-4" points="7.19 759.44 55.22 782.35 5.74 763.05"/><polyline class="cls-4" points="10.72 753.18 55.22 782.35 8.79 756.55"/><polyline class="cls-4" points="4.42 766.52 55.22 782.35 3.5 770.3"/><polyline class="cls-4" points="20.29 831.95 57.27 793.7 17.67 829.08"/><polyline class="cls-4" points="25.78 836.59 57.27 793.7 22.8 834.1"/><polyline class="cls-4" points="15.21 826.29 57.27 793.7 13.03 823.07"/></g></g></g></svg>