<svg xmlns="http://www.w3.org/2000/svg" viewBox="0 0 157.06 896.51"><defs><style>.cls-1{fill:#666;}.cls-2{fill:#4d4d4d;}.cls-3{fill:#b3b3b3;}.cls-4{fill:none;stroke:#b3b3b3;stroke-linecap:round;stroke-miterlimit:10;}</style></defs><g id="Layer_2" data-name="Layer 2"><g id="Normal_-_Contracted" data-name="Normal - Contracted"><g id="stem"><rect class="cls-1" x="63.02" y="126.33" width="32.41" height="645.68"/></g><g id="handle_copy" data-name="handle copy"><polygon class="cls-1" points="112.2 462.57 102.21 462.57 102.21 433.31 107.29 433.31 107.28 447.94 112.2 462.57"/><rect class="cls-2" x="53.7" y="344.87" width="51.05" height="206.14" rx="10"/><path class="cls-2" d="M53.7,370.48c-2.71,0-4.91,3.34-4.91,7.46s2.2,7.47,4.91,7.47Z"/><path class="cls-2" d="M53.7,390.48c-2.71,0-4.91,3.34-4.91,7.46s2.2,7.47,4.91,7.47Z"/><path class="cls-2" d="M53.7,410.48c-2.71,0-4.91,3.34-4.91,7.46s2.2,7.47,4.91,7.47Z"/><path class="cls-2" d="M53.7,430.48c-2.71,0-4.91,3.34-4.91,7.46s2.2,7.47,4.91,7.47Z"/><path class="cls-2" d="M53.7,450.48c-2.71,0-4.91,3.34-4.91,7.46s2.2,7.47,4.91,7.47Z"/><path class="cls-2" d="M53.7,470.48c-2.71,0-4.91,3.34-4.91,7.46s2.2,7.47,4.91,7.47Z"/><path class="cls-2" d="M53.7,490.48c-2.71,0-4.91,3.34-4.91,7.46s2.2,7.47,4.91,7.47Z"/><path class="cls-2" d="M53.7,510.48c-2.71,0-4.91,3.34-4.91,7.46s2.2,7.47,4.91,7.47Z"/><path class="cls-2" d="M104.75,370.48c2.72,0,4.92,3.34,4.92,7.46s-2.2,7.47-4.92,7.47Z"/><path class="cls-2" d="M104.75,390.48c2.72,0,4.92,3.34,4.92,7.46s-2.2,7.47-4.92,7.47Z"/><path class="cls-2" d="M104.75,410.48c2.72,0,4.92,3.34,4.92,7.46s-2.2,7.47-4.92,7.47Z"/><path class="cls-2" d="M104.75,470.48c2.72,0,4.92,3.34,4.92,7.46s-2.2,7.47-4.92,7.47Z"/><path class="cls-2" d="M104.75,490.48c2.72,0,4.92,3.34,4.92,7.46s-2.2,7.47-4.92,7.47Z"/><path class="cls-2" d="M104.75,510.48c2.72,0,4.92,3.34,4.92,7.46s-2.2,7.47-4.92,7.47Z"/></g><g id="pointer_copy" data-name="pointer copy"><path class="cls-3" d="M157.06,82.33c-.3,1.13-8.07,4.14-9.64,4.7-3.15,2.53-5.13,5.43-8.51,8-4.77,6.2-9.38,20.79-12.43,25s-8.41,12.54-14,18.14-10.62,15-10.62,27.38c0,7.37.74,9,1.38,19.38a10,10,0,0,1-10,10h-31a10,10,0,0,1-10-10c-.71-14.61,1.07,20.84-.13-19.38-.56-18.76-16.56-36.41-16.56-64.32,0-4.1-1.75-11.63-1.69-15.2.61-6,5.19-16,12.94-10.72h0c.51.3,1,.64,1.52,1-1.36-11,10.42-20,17.61-11.63.6-7,5.86-8.5,11-8.8S86,63,87.73,65.54c2.09-16,4.56-33.1,2-49.57C88.61-5.75,103.84-4.35,106,14.35a282.82,282.82,0,0,1,1.21,43.1c-.48,8.7-1.86,20.8-.6,29.58,0,1.24,1.61,6.58,4.7,10.84,2.76,3.8,14.4-12.66,16.58-15.2C134.1,75.18,156.21,70.77,157.06,82.33Z"/></g><g id="Brush_copy" data-name="Brush copy"><rect class="cls-3" x="53.7" y="701.01" width="51.05" height="141.99" rx="10"/><polyline class="cls-4" points="156.37 718.96 103.17 718.06 156.2 715.08"/><polyline class="cls-4" points="155.77 726.13 103.17 718.06 156.11 722.26"/><polyline class="cls-4" points="155.96 711.37 103.17 718.06 155.23 707.55"/><polyline class="cls-4" points="156.37 730.38 103.17 729.48 156.2 726.5"/><polyline class="cls-4" points="155.77 737.54 103.17 729.48 156.11 733.67"/><polyline class="cls-4" points="155.96 722.78 103.17 729.48 155.23 718.96"/><polyline class="cls-4" points="156.37 741.79 103.17 740.89 156.2 737.91"/><polyline class="cls-4" points="155.77 748.96 103.17 740.89 156.11 745.08"/><polyline class="cls-4" points="155.96 734.2 103.17 740.89 155.23 730.38"/><polyline class="cls-4" points="156.37 753.2 103.17 752.3 156.2 749.32"/><polyline class="cls-4" points="155.77 760.37 103.17 752.3 156.11 756.5"/><polyline class="cls-4" points="155.96 745.61 103.17 752.3 155.23 741.79"/><polyline class="cls-4" points="156.37 764.62 103.17 763.72 156.2 760.74"/><polyline class="cls-4" points="155.77 771.78 103.17 763.72 156.11 767.91"/><polyline class="cls-4" points="155.96 757.02 103.17 763.72 155.23 753.2"/><polyline class="cls-4" points="156.37 776.03 103.17 775.13 156.2 772.15"/><polyline class="cls-4" points="155.77 783.2 103.17 775.13 156.11 779.32"/><polyline class="cls-4" points="155.96 768.43 103.17 775.13 155.23 764.62"/><polyline class="cls-4" points="156.37 787.45 103.17 786.54 156.2 783.56"/><polyline class="cls-4" points="155.77 794.61 103.17 786.54 156.11 790.74"/><polyline class="cls-4" points="155.96 779.85 103.17 786.54 155.23 776.03"/><polyline class="cls-4" points="156.37 798.86 103.17 797.96 156.2 794.98"/><polyline class="cls-4" points="155.77 806.02 103.17 797.96 156.11 802.15"/><polyline class="cls-4" points="155.96 791.26 103.17 797.96 155.23 787.45"/><polyline class="cls-4" points="156.37 810.27 103.17 809.37 156.2 806.39"/><polyline class="cls-4" points="155.77 817.43 103.17 809.37 156.11 813.56"/><polyline class="cls-4" points="155.96 802.68 103.17 809.37 155.23 798.86"/><polyline class="cls-4" points="156.37 821.68 103.17 820.78 156.2 817.8"/><polyline class="cls-4" points="155.77 828.85 103.17 820.78 156.11 824.98"/><polyline class="cls-4" points="155.96 814.09 103.17 820.78 155.23 810.27"/><polyline class="cls-4" points="156.37 833.1 103.17 832.2 156.2 829.22"/><polyline class="cls-4" points="155.77 840.26 103.17 832.2 156.11 836.39"/><polyline class="cls-4" points="155.96 825.5 103.17 832.2 155.23 821.68"/><polyline class="cls-4" points="0.5 718.96 53.7 718.06 0.68 715.08"/><polyline class="cls-4" points="1.11 726.13 53.7 718.06 0.76 722.26"/><polyline class="cls-4" points="0.92 711.37 53.7 718.06 1.65 707.55"/><polyline class="cls-4" points="0.5 730.38 53.7 729.48 0.68 726.5"/><polyline class="cls-4" points="1.11 737.54 53.7 729.48 0.76 733.67"/><polyline class="cls-4" points="0.92 722.78 53.7 729.48 1.65 718.96"/><polyline class="cls-4" points="0.5 741.79 53.7 740.89 0.68 737.91"/><polyline class="cls-4" points="1.11 748.96 53.7 740.89 0.76 745.08"/><polyline class="cls-4" points="0.92 734.2 53.7 740.89 1.65 730.38"/><polyline class="cls-4" points="0.5 753.2 53.7 752.3 0.68 749.32"/><polyline class="cls-4" points="1.11 760.37 53.7 752.3 0.76 756.5"/><polyline class="cls-4" points="0.92 745.61 53.7 752.3 1.65 741.79"/><polyline class="cls-4" points="0.5 764.62 53.7 763.72 0.68 760.74"/><polyline class="cls-4" points="1.11 771.78 53.7 763.72 0.76 767.91"/><polyline class="cls-4" points="0.92 757.02 53.7 763.72 1.65 753.2"/><polyline class="cls-4" points="0.5 776.03 53.7 775.13 0.68 772.15"/><polyline class="cls-4" points="1.11 783.2 53.7 775.13 0.76 779.32"/><polyline class="cls-4" points="0.92 768.43 53.7 775.13 1.65 764.62"/><polyline class="cls-4" points="0.5 787.45 53.7 786.54 0.68 783.56"/><polyline class="cls-4" points="1.11 794.61 53.7 786.54 0.76 790.74"/><polyline class="cls-4" points="0.92 779.85 53.7 786.54 1.65 776.03"/><polyline class="cls-4" points="0.5 798.86 53.7 797.96 0.68 794.98"/><polyline class="cls-4" points="1.11 806.02 53.7 797.96 0.76 802.15"/><polyline class="cls-4" points="0.92 791.26 53.7 797.96 1.65 787.45"/><polyline class="cls-4" points="0.5 810.27 53.7 809.37 0.68 806.39"/><polyline class="cls-4" points="1.11 817.43 53.7 809.37 0.76 813.56"/><polyline class="cls-4" points="0.92 802.68 53.7 809.37 1.65 798.86"/><polyline class="cls-4" points="0.5 821.68 53.7 820.78 0.68 817.8"/><polyline class="cls-4" points="1.11 828.85 53.7 820.78 0.76 824.98"/><polyline class="cls-4" points="0.92 814.09 53.7 820.78 1.65 810.27"/><polyline class="cls-4" points="0.5 833.1 53.7 832.2 0.68 829.22"/><polyline class="cls-4" points="1.11 840.26 53.7 832.2 0.76 836.39"/><polyline class="cls-4" points="0.92 825.5 53.7 832.2 1.65 821.68"/><polyline class="cls-4" points="79.15 896.01 78.25 842.8 75.27 895.83"/><polyline class="cls-4" points="86.31 895.4 78.25 842.8 82.44 895.75"/><polyline class="cls-4" points="71.55 895.59 78.25 842.8 67.73 894.86"/><polyline class="cls-4" points="93.69 896.01 92.79 842.8 89.81 895.83"/><polyline class="cls-4" points="100.86 895.4 92.79 842.8 96.98 895.75"/><polyline class="cls-4" points="86.1 895.59 92.79 842.8 82.28 894.86"/><polyline class="cls-4" points="117.36 891.34 98.8 841.47 113.64 892.46"/><polyline class="cls-4" points="123.92 888.38 98.8 841.47 120.38 890"/><polyline class="cls-4" points="110.06 893.47 98.8 841.47 106.22 894.06"/><polyline class="cls-4" points="142.23 874.36 101.38 840.26 139.56 877.18"/><polyline class="cls-4" points="146.45 868.54 101.38 840.26 144.19 871.7"/><polyline class="cls-4" points="136.95 879.84 101.38 840.26 133.9 882.25"/><polyline class="cls-4" points="153.33 854 103.17 836.23 151.8 857.57"/><polyline class="cls-4" points="155.27 847.07 103.17 836.23 154.24 850.82"/><polyline class="cls-4" points="150.28 860.97 103.17 836.23 148.26 864.29"/><polyline class="cls-4" points="42.7 891.34 61.26 841.47 46.42 892.46"/><polyline class="cls-4" points="36.15 888.38 61.26 841.47 39.69 890"/><polyline class="cls-4" points="50 893.47 61.26 841.47 53.85 894.06"/><polyline class="cls-4" points="17.84 874.36 58.69 840.26 20.51 877.18"/><polyline class="cls-4" points="13.61 868.54 58.69 840.26 15.88 871.7"/><polyline class="cls-4" points="23.12 879.84 58.69 840.26 26.16 882.25"/><polyline class="cls-4" points="6.74 854 56.9 836.23 8.26 857.57"/><polyline class="cls-4" points="4.8 847.07 56.9 836.23 5.83 850.82"/><polyline class="cls-4" points="9.78 860.97 56.9 836.23 11.8 864.29"/><polyline class="cls-4" points="67.27 896.01 66.37 842.8 63.39 895.83"/><polyline class="cls-4" points="74.43 895.4 66.37 842.8 70.56 895.75"/><polyline class="cls-4" points="59.67 895.59 66.37 842.8 55.86 894.86"/></g></g></g></svg>