<svg xmlns="http://www.w3.org/2000/svg" viewBox="0 0 158.58 1206.02"><defs><style>.cls-1{fill:#666;}.cls-2{fill:#4d4d4d;}.cls-3{fill:#b3b3b3;}.cls-4{fill:none;stroke:#b3b3b3;stroke-linecap:round;stroke-miterlimit:10;}</style></defs><g id="Layer_2" data-name="Layer 2"><g id="Normal"><g id="stem"><rect class="cls-1" x="63.02" y="123.88" width="32.41" height="957.64"/></g><g id="handle"><polygon class="cls-1" points="112.2 617.33 102.21 617.33 102.21 588.07 107.29 588.07 107.28 602.7 112.2 617.33"/><rect class="cls-2" x="53.7" y="499.63" width="51.05" height="206.14" rx="10"/><path class="cls-2" d="M53.7,525.23c-2.71,0-4.91,3.34-4.91,7.47s2.2,7.46,4.91,7.46Z"/><path class="cls-2" d="M53.7,545.23c-2.71,0-4.91,3.34-4.91,7.47s2.2,7.46,4.91,7.46Z"/><path class="cls-2" d="M53.7,565.23c-2.71,0-4.91,3.34-4.91,7.47s2.2,7.46,4.91,7.46Z"/><path class="cls-2" d="M53.7,585.23c-2.71,0-4.91,3.34-4.91,7.47s2.2,7.46,4.91,7.46Z"/><path class="cls-2" d="M53.7,605.23c-2.71,0-4.91,3.34-4.91,7.47s2.2,7.46,4.91,7.46Z"/><path class="cls-2" d="M53.7,625.23c-2.71,0-4.91,3.34-4.91,7.47s2.2,7.46,4.91,7.46Z"/><path class="cls-2" d="M53.7,645.23c-2.71,0-4.91,3.34-4.91,7.47s2.2,7.46,4.91,7.46Z"/><path class="cls-2" d="M53.7,665.23c-2.71,0-4.91,3.34-4.91,7.47s2.2,7.46,4.91,7.46Z"/><path class="cls-2" d="M104.75,525.23c2.72,0,4.92,3.34,4.92,7.47s-2.2,7.46-4.92,7.46Z"/><path class="cls-2" d="M104.75,545.23c2.72,0,4.92,3.34,4.92,7.47s-2.2,7.46-4.92,7.46Z"/><path class="cls-2" d="M104.75,565.23c2.72,0,4.92,3.34,4.92,7.47s-2.2,7.46-4.92,7.46Z"/><path class="cls-2" d="M104.75,625.23c2.72,0,4.92,3.34,4.92,7.47s-2.2,7.46-4.92,7.46Z"/><path class="cls-2" d="M104.75,645.23c2.72,0,4.92,3.34,4.92,7.47s-2.2,7.46-4.92,7.46Z"/><path class="cls-2" d="M104.75,665.23c2.72,0,4.92,3.34,4.92,7.47s-2.2,7.46-4.92,7.46Z"/></g><g id="pointer"><path class="cls-3" d="M158.58,82.33c-.3,1.13-8.07,4.14-9.64,4.7-3.15,2.53-5.13,5.43-8.51,8-4.77,6.2-9.38,20.79-12.43,25s-8.41,12.54-14,18.14-10.62,15-10.62,27.38c0,7.37.74,9,1.38,19.38a10,10,0,0,1-10,10h-31a10,10,0,0,1-10-10c-.71-14.61,1.07,20.84-.13-19.38C53,146.73,37,129.08,37,101.17c0-4.1-1.75-11.63-1.69-15.2.61-6,5.19-16,12.94-10.72h0c.51.3,1,.64,1.52,1-1.36-11,10.42-20,17.61-11.63.6-7,5.86-8.5,11-8.8S87.53,63,89.25,65.54c2.09-16,4.55-33.1,2-49.57-1.14-21.72,14.08-20.32,16.29-1.62a282.82,282.82,0,0,1,1.21,43.1c-.49,8.7-1.86,20.8-.6,29.58,0,1.24,1.6,6.58,4.7,10.84,2.75,3.8,14.39-12.66,16.58-15.2C135.61,75.18,157.72,70.77,158.58,82.33Z"/></g><g id="Brush"><rect class="cls-3" x="53.7" y="1010.52" width="51.05" height="141.99" rx="10"/><polyline class="cls-4" points="156.37 1028.47 103.17 1027.57 156.2 1024.59"/><polyline class="cls-4" points="155.77 1035.64 103.17 1027.57 156.11 1031.77"/><polyline class="cls-4" points="155.96 1020.88 103.17 1027.57 155.23 1017.06"/><polyline class="cls-4" points="156.37 1039.89 103.17 1038.99 156.2 1036.01"/><polyline class="cls-4" points="155.77 1047.05 103.17 1038.99 156.11 1043.18"/><polyline class="cls-4" points="155.96 1032.29 103.17 1038.99 155.23 1028.47"/><polyline class="cls-4" points="156.37 1051.3 103.17 1050.4 156.2 1047.42"/><polyline class="cls-4" points="155.77 1058.47 103.17 1050.4 156.11 1054.6"/><polyline class="cls-4" points="155.96 1043.71 103.17 1050.4 155.23 1039.89"/><polyline class="cls-4" points="156.37 1062.72 103.17 1061.81 156.2 1058.83"/><polyline class="cls-4" points="155.77 1069.88 103.17 1061.81 156.11 1066.01"/><polyline class="cls-4" points="155.96 1055.12 103.17 1061.81 155.23 1051.3"/><polyline class="cls-4" points="156.37 1074.13 103.17 1073.23 156.2 1070.25"/><polyline class="cls-4" points="155.77 1081.29 103.17 1073.23 156.11 1077.42"/><polyline class="cls-4" points="155.96 1066.53 103.17 1073.23 155.23 1062.72"/><polyline class="cls-4" points="156.37 1085.54 103.17 1084.64 156.2 1081.66"/><polyline class="cls-4" points="155.77 1092.71 103.17 1084.64 156.11 1088.84"/><polyline class="cls-4" points="155.96 1077.95 103.17 1084.64 155.23 1074.13"/><polyline class="cls-4" points="156.37 1096.96 103.17 1096.05 156.2 1093.07"/><polyline class="cls-4" points="155.77 1104.12 103.17 1096.05 156.11 1100.25"/><polyline class="cls-4" points="155.96 1089.36 103.17 1096.05 155.23 1085.54"/><polyline class="cls-4" points="156.37 1108.37 103.17 1107.47 156.2 1104.49"/><polyline class="cls-4" points="155.77 1115.53 103.17 1107.47 156.11 1111.66"/><polyline class="cls-4" points="155.96 1100.77 103.17 1107.47 155.23 1096.96"/><polyline class="cls-4" points="156.37 1119.78 103.17 1118.88 156.2 1115.9"/><polyline class="cls-4" points="155.77 1126.95 103.17 1118.88 156.11 1123.08"/><polyline class="cls-4" points="155.96 1112.19 103.17 1118.88 155.23 1108.37"/><polyline class="cls-4" points="156.37 1131.2 103.17 1130.3 156.2 1127.31"/><polyline class="cls-4" points="155.77 1138.36 103.17 1130.3 156.11 1134.49"/><polyline class="cls-4" points="155.96 1123.6 103.17 1130.3 155.23 1119.78"/><polyline class="cls-4" points="156.37 1142.61 103.17 1141.71 156.2 1138.73"/><polyline class="cls-4" points="155.77 1149.77 103.17 1141.71 156.11 1145.9"/><polyline class="cls-4" points="155.96 1135.01 103.17 1141.71 155.23 1131.2"/><polyline class="cls-4" points="0.5 1028.47 53.7 1027.57 0.68 1024.59"/><polyline class="cls-4" points="1.11 1035.64 53.7 1027.57 0.76 1031.77"/><polyline class="cls-4" points="0.92 1020.88 53.7 1027.57 1.65 1017.06"/><polyline class="cls-4" points="0.5 1039.89 53.7 1038.99 0.68 1036.01"/><polyline class="cls-4" points="1.11 1047.05 53.7 1038.99 0.76 1043.18"/><polyline class="cls-4" points="0.92 1032.29 53.7 1038.99 1.65 1028.47"/><polyline class="cls-4" points="0.5 1051.3 53.7 1050.4 0.68 1047.42"/><polyline class="cls-4" points="1.11 1058.47 53.7 1050.4 0.76 1054.6"/><polyline class="cls-4" points="0.92 1043.71 53.7 1050.4 1.65 1039.89"/><polyline class="cls-4" points="0.5 1062.72 53.7 1061.81 0.68 1058.83"/><polyline class="cls-4" points="1.11 1069.88 53.7 1061.81 0.76 1066.01"/><polyline class="cls-4" points="0.92 1055.12 53.7 1061.81 1.65 1051.3"/><polyline class="cls-4" points="0.5 1074.13 53.7 1073.23 0.68 1070.25"/><polyline class="cls-4" points="1.11 1081.29 53.7 1073.23 0.76 1077.42"/><polyline class="cls-4" points="0.92 1066.53 53.7 1073.23 1.65 1062.72"/><polyline class="cls-4" points="0.5 1085.54 53.7 1084.64 0.68 1081.66"/><polyline class="cls-4" points="1.11 1092.71 53.7 1084.64 0.76 1088.84"/><polyline class="cls-4" points="0.92 1077.95 53.7 1084.64 1.65 1074.13"/><polyline class="cls-4" points="0.5 1096.96 53.7 1096.05 0.68 1093.07"/><polyline class="cls-4" points="1.11 1104.12 53.7 1096.05 0.76 1100.25"/><polyline class="cls-4" points="0.92 1089.36 53.7 1096.05 1.65 1085.54"/><polyline class="cls-4" points="0.5 1108.37 53.7 1107.47 0.68 1104.49"/><polyline class="cls-4" points="1.11 1115.53 53.7 1107.47 0.76 1111.66"/><polyline class="cls-4" points="0.92 1100.77 53.7 1107.47 1.65 1096.96"/><polyline class="cls-4" points="0.5 1119.78 53.7 1118.88 0.68 1115.9"/><polyline class="cls-4" points="1.11 1126.95 53.7 1118.88 0.76 1123.08"/><polyline class="cls-4" points="0.92 1112.19 53.7 1118.88 1.65 1108.37"/><polyline class="cls-4" points="0.5 1131.2 53.7 1130.3 0.68 1127.31"/><polyline class="cls-4" points="1.11 1138.36 53.7 1130.3 0.76 1134.49"/><polyline class="cls-4" points="0.92 1123.6 53.7 1130.3 1.65 1119.78"/><polyline class="cls-4" points="0.5 1142.61 53.7 1141.71 0.68 1138.73"/><polyline class="cls-4" points="1.11 1149.77 53.7 1141.71 0.76 1145.9"/><polyline class="cls-4" points="0.92 1135.01 53.7 1141.71 1.65 1131.2"/><polyline class="cls-4" points="79.15 1205.52 78.25 1152.31 75.27 1205.34"/><polyline class="cls-4" points="86.31 1204.91 78.25 1152.31 82.44 1205.26"/><polyline class="cls-4" points="71.55 1205.1 78.25 1152.31 67.73 1204.37"/><polyline class="cls-4" points="93.69 1205.52 92.79 1152.31 89.81 1205.34"/><polyline class="cls-4" points="100.86 1204.91 92.79 1152.31 96.98 1205.26"/><polyline class="cls-4" points="86.1 1205.1 92.79 1152.31 82.28 1204.37"/><polyline class="cls-4" points="117.36 1200.85 98.8 1150.98 113.64 1201.97"/><polyline class="cls-4" points="123.92 1197.89 98.8 1150.98 120.38 1199.51"/><polyline class="cls-4" points="110.06 1202.99 98.8 1150.98 106.22 1203.57"/><polyline class="cls-4" points="142.23 1183.87 101.38 1149.77 139.56 1186.69"/><polyline class="cls-4" points="146.45 1178.05 101.38 1149.77 144.19 1181.21"/><polyline class="cls-4" points="136.95 1189.35 101.38 1149.77 133.9 1191.76"/><polyline class="cls-4" points="153.33 1163.51 103.17 1145.74 151.8 1167.08"/><polyline class="cls-4" points="155.27 1156.58 103.17 1145.74 154.24 1160.33"/><polyline class="cls-4" points="150.28 1170.48 103.17 1145.74 148.26 1173.8"/><polyline class="cls-4" points="42.7 1200.85 61.26 1150.98 46.42 1201.97"/><polyline class="cls-4" points="36.15 1197.89 61.26 1150.98 39.69 1199.51"/><polyline class="cls-4" points="50 1202.99 61.26 1150.98 53.85 1203.57"/><polyline class="cls-4" points="17.84 1183.87 58.69 1149.77 20.51 1186.69"/><polyline class="cls-4" points="13.61 1178.05 58.69 1149.77 15.88 1181.21"/><polyline class="cls-4" points="23.12 1189.35 58.69 1149.77 26.16 1191.76"/><polyline class="cls-4" points="6.74 1163.51 56.9 1145.74 8.26 1167.08"/><polyline class="cls-4" points="4.8 1156.58 56.9 1145.74 5.83 1160.33"/><polyline class="cls-4" points="9.78 1170.48 56.9 1145.74 11.8 1173.8"/><polyline class="cls-4" points="67.27 1205.52 66.37 1152.31 63.39 1205.34"/><polyline class="cls-4" points="74.43 1204.91 66.37 1152.31 70.56 1205.26"/><polyline class="cls-4" points="59.67 1205.1 66.37 1152.31 55.86 1204.37"/></g></g></g></svg>