<svg xmlns="http://www.w3.org/2000/svg" viewBox="0 0 896.51 157.06"><defs><style>.cls-1{fill:#666;}.cls-2{fill:#4d4d4d;}.cls-3{fill:#b3b3b3;}.cls-4{fill:none;stroke:#b3b3b3;stroke-linecap:round;stroke-miterlimit:10;}</style></defs><g id="Layer_2" data-name="Layer 2"><g id="Normal_-_Contracted" data-name="Normal - Contracted"><g id="stem"><rect class="cls-1" x="124.5" y="63.02" width="645.68" height="32.41"/></g><g id="handle_copy" data-name="handle copy"><polygon class="cls-1" points="433.93 112.2 433.93 102.21 463.19 102.21 463.19 107.29 448.56 107.28 433.93 112.2"/><rect class="cls-2" x="423.04" y="-23.84" width="51.05" height="206.14" rx="10" transform="translate(527.79 -369.34) rotate(90)"/><path class="cls-2" d="M526,53.7c0-2.71-3.34-4.91-7.47-4.91S511.1,51,511.1,53.7Z"/><path class="cls-2" d="M506,53.7c0-2.71-3.34-4.91-7.47-4.91S491.1,51,491.1,53.7Z"/><path class="cls-2" d="M486,53.7c0-2.71-3.34-4.91-7.47-4.91S471.1,51,471.1,53.7Z"/><path class="cls-2" d="M466,53.7c0-2.71-3.34-4.91-7.47-4.91S451.1,51,451.1,53.7Z"/><path class="cls-2" d="M446,53.7c0-2.71-3.34-4.91-7.47-4.91S431.1,51,431.1,53.7Z"/><path class="cls-2" d="M426,53.7c0-2.71-3.34-4.91-7.47-4.91S411.1,51,411.1,53.7Z"/><path class="cls-2" d="M406,53.7c0-2.71-3.34-4.91-7.47-4.91S391.1,51,391.1,53.7Z"/><path class="cls-2" d="M386,53.7c0-2.71-3.34-4.91-7.47-4.91S371.1,51,371.1,53.7Z"/><path class="cls-2" d="M526,104.75c0,2.72-3.34,4.92-7.47,4.92s-7.46-2.2-7.46-4.92Z"/><path class="cls-2" d="M506,104.75c0,2.72-3.34,4.92-7.47,4.92s-7.46-2.2-7.46-4.92Z"/><path class="cls-2" d="M486,104.75c0,2.72-3.34,4.92-7.47,4.92s-7.46-2.2-7.46-4.92Z"/><path class="cls-2" d="M426,104.75c0,2.72-3.34,4.92-7.47,4.92s-7.46-2.2-7.46-4.92Z"/><path class="cls-2" d="M406,104.75c0,2.72-3.34,4.92-7.47,4.92s-7.46-2.2-7.46-4.92Z"/><path class="cls-2" d="M386,104.75c0,2.72-3.34,4.92-7.47,4.92s-7.46-2.2-7.46-4.92Z"/></g><g id="pointer_copy" data-name="pointer copy"><path class="cls-3" d="M814.18,157.06c-1.13-.3-4.14-8.07-4.7-9.64-2.53-3.15-5.43-5.13-8-8.51-6.21-4.77-20.8-9.38-25-12.43s-12.54-8.41-18.14-14-15-10.62-27.38-10.62c-7.37,0-9,.74-19.39,1.38a10,10,0,0,1-10-10v-31a10,10,0,0,1,10-10c14.62-.71-20.84,1.07,19.39-.13,18.75-.56,36.4-16.56,64.32-16.56,4.09,0,11.63-1.75,15.2-1.69,6,.61,16,5.19,10.72,12.94h0c-.3.51-.64,1-1,1.52,11-1.36,20,10.42,11.63,17.61,7,.6,8.5,5.86,8.8,11S833.5,86,831,87.73c16,2.09,33.1,4.56,49.57,2,21.72-1.14,20.32,14.09,1.62,16.29a282.86,282.86,0,0,1-43.1,1.21c-8.7-.48-20.8-1.86-29.58-.6-1.24,0-6.58,1.61-10.84,4.7-3.8,2.76,12.65,14.4,15.2,16.58C821.33,134.1,825.74,156.21,814.18,157.06Z"/></g><g id="Brush_copy" data-name="Brush copy"><rect class="cls-3" x="98.98" y="8.23" width="51.05" height="141.99" rx="10" transform="translate(203.73 -45.27) rotate(90)"/><polyline class="cls-4" points="177.54 156.37 178.44 103.17 181.43 156.2"/><polyline class="cls-4" points="170.38 155.77 178.44 103.17 174.25 156.11"/><polyline class="cls-4" points="185.14 155.96 178.44 103.17 188.96 155.23"/><polyline class="cls-4" points="166.13 156.37 167.03 103.17 170.01 156.2"/><polyline class="cls-4" points="158.97 155.77 167.03 103.17 162.84 156.11"/><polyline class="cls-4" points="173.72 155.96 167.03 103.17 177.54 155.23"/><polyline class="cls-4" points="154.72 156.37 155.62 103.17 158.6 156.2"/><polyline class="cls-4" points="147.55 155.77 155.62 103.17 151.42 156.11"/><polyline class="cls-4" points="162.31 155.96 155.62 103.17 166.13 155.23"/><polyline class="cls-4" points="143.3 156.37 144.2 103.17 147.19 156.2"/><polyline class="cls-4" points="136.14 155.77 144.2 103.17 140.01 156.11"/><polyline class="cls-4" points="150.9 155.96 144.2 103.17 154.72 155.23"/><polyline class="cls-4" points="131.89 156.37 132.79 103.17 135.77 156.2"/><polyline class="cls-4" points="124.72 155.77 132.79 103.17 128.6 156.11"/><polyline class="cls-4" points="139.48 155.96 132.79 103.17 143.3 155.23"/><polyline class="cls-4" points="120.47 156.37 121.38 103.17 124.36 156.2"/><polyline class="cls-4" points="113.31 155.77 121.38 103.17 117.18 156.11"/><polyline class="cls-4" points="128.07 155.96 121.38 103.17 131.89 155.23"/><polyline class="cls-4" points="109.06 156.37 109.96 103.17 112.94 156.2"/><polyline class="cls-4" points="101.9 155.77 109.96 103.17 105.77 156.11"/><polyline class="cls-4" points="116.66 155.96 109.96 103.17 120.47 155.23"/><polyline class="cls-4" points="97.65 156.37 98.55 103.17 101.53 156.2"/><polyline class="cls-4" points="90.48 155.77 98.55 103.17 94.36 156.11"/><polyline class="cls-4" points="105.24 155.96 98.55 103.17 109.06 155.23"/><polyline class="cls-4" points="86.23 156.37 87.14 103.17 90.12 156.2"/><polyline class="cls-4" points="79.07 155.77 87.14 103.17 82.94 156.11"/><polyline class="cls-4" points="93.83 155.96 87.14 103.17 97.65 155.23"/><polyline class="cls-4" points="74.82 156.37 75.72 103.17 78.7 156.2"/><polyline class="cls-4" points="67.66 155.77 75.72 103.17 71.53 156.11"/><polyline class="cls-4" points="82.42 155.96 75.72 103.17 86.23 155.23"/><polyline class="cls-4" points="63.41 156.37 64.31 103.17 67.29 156.2"/><polyline class="cls-4" points="56.24 155.77 64.31 103.17 60.12 156.11"/><polyline class="cls-4" points="71 155.96 64.31 103.17 74.82 155.23"/><polyline class="cls-4" points="177.54 0.5 178.44 53.7 181.43 0.68"/><polyline class="cls-4" points="170.38 1.11 178.44 53.7 174.25 0.76"/><polyline class="cls-4" points="185.14 0.92 178.44 53.7 188.96 1.65"/><polyline class="cls-4" points="166.13 0.5 167.03 53.7 170.01 0.68"/><polyline class="cls-4" points="158.97 1.11 167.03 53.7 162.84 0.76"/><polyline class="cls-4" points="173.72 0.92 167.03 53.7 177.54 1.65"/><polyline class="cls-4" points="154.72 0.5 155.62 53.7 158.6 0.68"/><polyline class="cls-4" points="147.55 1.11 155.62 53.7 151.42 0.76"/><polyline class="cls-4" points="162.31 0.92 155.62 53.7 166.13 1.65"/><polyline class="cls-4" points="143.3 0.5 144.2 53.7 147.19 0.68"/><polyline class="cls-4" points="136.14 1.11 144.2 53.7 140.01 0.76"/><polyline class="cls-4" points="150.9 0.92 144.2 53.7 154.72 1.65"/><polyline class="cls-4" points="131.89 0.5 132.79 53.7 135.77 0.68"/><polyline class="cls-4" points="124.72 1.11 132.79 53.7 128.6 0.76"/><polyline class="cls-4" points="139.48 0.92 132.79 53.7 143.3 1.65"/><polyline class="cls-4" points="120.47 0.5 121.38 53.7 124.36 0.68"/><polyline class="cls-4" points="113.31 1.11 121.38 53.7 117.18 0.76"/><polyline class="cls-4" points="128.07 0.92 121.38 53.7 131.89 1.65"/><polyline class="cls-4" points="109.06 0.5 109.96 53.7 112.94 0.68"/><polyline class="cls-4" points="101.9 1.11 109.96 53.7 105.77 0.76"/><polyline class="cls-4" points="116.66 0.92 109.96 53.7 120.47 1.65"/><polyline class="cls-4" points="97.65 0.5 98.55 53.7 101.53 0.68"/><polyline class="cls-4" points="90.48 1.11 98.55 53.7 94.36 0.76"/><polyline class="cls-4" points="105.24 0.92 98.55 53.7 109.06 1.65"/><polyline class="cls-4" points="86.23 0.5 87.14 53.7 90.12 0.68"/><polyline class="cls-4" points="79.07 1.11 87.14 53.7 82.94 0.76"/><polyline class="cls-4" points="93.83 0.92 87.14 53.7 97.65 1.65"/><polyline class="cls-4" points="74.82 0.5 75.72 53.7 78.7 0.68"/><polyline class="cls-4" points="67.66 1.11 75.72 53.7 71.53 0.76"/><polyline class="cls-4" points="82.42 0.92 75.72 53.7 86.23 1.65"/><polyline class="cls-4" points="63.41 0.5 64.31 53.7 67.29 0.68"/><polyline class="cls-4" points="56.24 1.11 64.31 53.7 60.12 0.76"/><polyline class="cls-4" points="71 0.92 64.31 53.7 74.82 1.65"/><polyline class="cls-4" points="0.5 79.15 53.7 78.25 0.68 75.27"/><polyline class="cls-4" points="1.11 86.31 53.7 78.25 0.76 82.44"/><polyline class="cls-4" points="0.92 71.55 53.7 78.25 1.65 67.73"/><polyline class="cls-4" points="0.5 93.69 53.7 92.79 0.68 89.81"/><polyline class="cls-4" points="1.11 100.86 53.7 92.79 0.76 96.98"/><polyline class="cls-4" points="0.92 86.1 53.7 92.79 1.65 82.28"/><polyline class="cls-4" points="5.17 117.36 55.04 98.8 4.04 113.64"/><polyline class="cls-4" points="8.13 123.92 55.04 98.8 6.51 120.38"/><polyline class="cls-4" points="3.03 110.06 55.04 98.8 2.45 106.22"/><polyline class="cls-4" points="22.15 142.23 56.24 101.38 19.33 139.56"/><polyline class="cls-4" points="27.97 146.45 56.24 101.38 24.81 144.19"/><polyline class="cls-4" points="16.67 136.95 56.24 101.38 14.26 133.9"/><polyline class="cls-4" points="42.51 153.33 60.28 103.17 38.94 151.8"/><polyline class="cls-4" points="49.44 155.27 60.28 103.17 45.69 154.24"/><polyline class="cls-4" points="35.54 150.28 60.28 103.17 32.22 148.26"/><polyline class="cls-4" points="5.17 42.7 55.04 61.26 4.04 46.42"/><polyline class="cls-4" points="8.13 36.15 55.04 61.26 6.51 39.69"/><polyline class="cls-4" points="3.03 50 55.04 61.26 2.45 53.85"/><polyline class="cls-4" points="22.15 17.84 56.24 58.69 19.33 20.51"/><polyline class="cls-4" points="27.97 13.61 56.24 58.69 24.81 15.88"/><polyline class="cls-4" points="16.67 23.12 56.24 58.69 14.26 26.16"/><polyline class="cls-4" points="42.51 6.74 60.28 56.9 38.94 8.26"/><polyline class="cls-4" points="49.44 4.8 60.28 56.9 45.69 5.83"/><polyline class="cls-4" points="35.54 9.78 60.28 56.9 32.22 11.8"/><polyline class="cls-4" points="0.5 67.27 53.7 66.37 0.68 63.39"/><polyline class="cls-4" points="1.11 74.43 53.7 66.37 0.76 70.56"/><polyline class="cls-4" points="0.92 59.67 53.7 66.37 1.65 55.86"/></g></g></g></svg>