<svg xmlns="http://www.w3.org/2000/svg" viewBox="0 0 2135.02 2062.26"><defs><style>.cls-1{fill:#666;}.cls-2{fill:#b3b3b3;}.cls-3{fill:#e6e6e6;}.cls-4{fill:none;}</style></defs><g id="Layer_2" data-name="Layer 2"><g id="Layer_1-2" data-name="Layer 1"><g id="device"><rect class="cls-1" y="424.22" width="771.12" height="85.19"/><path class="cls-2" d="M1193.55,675.36c-3-.78-10.88-21.21-12.35-25.33-6.64-8.28-14.27-13.47-20.92-22.37C1144,615.13,1105.63,603,1094.62,595s-32.94-22.1-47.67-36.83-39.39-27.91-72-27.91c-19.37,0-336.9,2-364.19,3.63a26.27,26.27,0,0,1-26.28-26.28V426a26.27,26.27,0,0,1,26.28-26.28c38.41-1.86,258.48,2.82,364.19-.35,49.29-1.48,95.69-43.52,169-43.52,10.76,0,30.56-4.6,39.94-4.44,15.89,1.6,42,13.65,28.18,34h0c-.79,1.34-1.68,2.65-2.63,4,29-3.57,52.44,27.4,30.57,46.29,18.34,1.57,22.34,15.4,23.13,29s-18.87,23.94-25.52,28.46c42,5.49,87,12,130.28,5.31,57.09-3,53.41,37,4.25,42.81-30.2,3.72-79.85,5.17-113.27,3.18-22.86-1.27-54.66-4.88-77.74-1.57-3.26-.06-17.3,4.22-28.49,12.35-10,7.25,33.26,37.84,40,43.57C1212.36,615,1223.94,673.12,1193.55,675.36Z"/></g><g id="toilet"><path class="cls-3" d="M2135,787.77H1311.77a20.33,20.33,0,0,0-20.26,22.2c13.21,140.33,146.76,293.5,239.27,391,0,0,292.45,247.6,292.45,373.57s-44.51,285.83-86.09,394.84c34.19,39.73,223.9,39.73,397.88,39.73Z"/><path class="cls-3" d="M2135,675.6l-811.7-197.28a4.9,4.9,0,0,1-3.54-6.17c6.65-21.93,22-49.55,49-42.63,18,4.61,439,101.84,766.23,177"/></g></g><g id="frame"><rect class="cls-4" width="2135.02" height="2062.26"/></g></g></svg>