<svg xmlns="http://www.w3.org/2000/svg" viewBox="0 0 2135.02 1657.64"><defs><style>.cls-1{fill:#666;}.cls-2{fill:#b3b3b3;}.cls-3{fill:#e6e6e6;}.cls-4{fill:none;}</style></defs><g id="Layer_2" data-name="Layer 2"><g id="Layer_1-2" data-name="Layer 1"><g id="device"><rect class="cls-1" y="72.78" width="771.12" height="85.19"/><path class="cls-2" d="M1193.55,323.93c-3-.79-10.88-21.21-12.35-25.34-6.64-8.27-14.27-13.47-20.92-22.37-16.3-12.52-54.65-24.63-65.66-32.66s-32.94-22.09-47.67-36.82-39.39-27.91-72-27.91c-19.37,0-336.9,1.95-364.19,3.63a26.29,26.29,0,0,1-26.28-26.29V74.59A26.27,26.27,0,0,1,610.8,48.31C649.21,46.46,869.28,51.13,975,48c49.29-1.48,95.69-43.52,169-43.52,10.76,0,30.56-4.6,39.94-4.45,15.89,1.6,42,13.65,28.18,34h0c-.79,1.34-1.68,2.66-2.63,4,29-3.58,52.44,27.39,30.57,46.28,18.34,1.58,22.34,15.4,23.13,29s-18.87,23.95-25.52,28.47c42,5.49,87,12,130.28,5.3,57.09-3,53.41,37,4.25,42.82-30.2,3.72-79.85,5.16-113.27,3.18-22.86-1.27-54.66-4.89-77.74-1.58-3.26-.05-17.3,4.22-28.49,12.35-10,7.25,33.26,37.84,40,43.58C1212.36,263.57,1223.94,321.69,1193.55,323.93Z"/></g><g id="toilet"><path class="cls-3" d="M2135,436.33H1311.77a20.33,20.33,0,0,0-20.26,22.21c13.21,140.33,146.76,293.5,239.27,391,0,0,292.45,247.59,292.45,373.56s-44.51,285.83-86.09,394.85c34.19,39.72,223.9,39.72,397.88,39.72Z"/><path class="cls-3" d="M2135,324.16l-811.7-197.28a4.89,4.89,0,0,1-3.54-6.17c6.65-21.93,22-49.55,49-42.63,18,4.61,439,101.84,766.23,177"/></g></g><g id="frame"><rect class="cls-4" width="2135.02" height="1657.64"/></g></g></svg>