<svg xmlns="http://www.w3.org/2000/svg" viewBox="0 0 252.07 123.45"><defs><style>.cls-1{fill:#333;}</style></defs><g id="Layer_2" data-name="Layer 2"><g id="Layer_2-2" data-name="Layer 2"><path class="cls-1" d="M185.75,106.67A17.16,17.16,0,0,0,184,98.86a17.29,17.29,0,0,0,13.8-16.39,17,17,0,0,0-1.71-7.8,17.3,17.3,0,0,0,13.81-16.39,16.86,16.86,0,0,0-1.53-7.42H235a17.09,17.09,0,0,0,17.09-17.42,17.38,17.38,0,0,0-17.49-16.77H182.25A17.12,17.12,0,0,0,165.16,0H153.94a52.36,52.36,0,0,0-34.27,12.78L107.83,23a27.37,27.37,0,0,1-17.9,6.67,10,10,0,0,0-10,10V99.29a10,10,0,0,0,10,10,56.43,56.43,0,0,1,21.35,4.18L129.84,121a33.11,33.11,0,0,0,12.51,2.45h25.9A17.39,17.39,0,0,0,185.75,106.67Zm-43.4,6.78a23.19,23.19,0,0,1-8.75-1.71l-18.55-7.54a66.58,66.58,0,0,0-25.12-4.91V39.71a37.35,37.35,0,0,0,24.45-9.12l11.84-10.25A42.34,42.34,0,0,1,153.94,10h11.22a7.09,7.09,0,0,1,7.07,6.67H151.31a5,5,0,0,0,0,10h83.27a7.34,7.34,0,0,1,7.49,7,7.08,7.08,0,0,1-2,5.1A7,7,0,0,1,235,40.86H192.85a5,5,0,0,0,0,10,7.1,7.1,0,0,1,7.09,7.23,7.35,7.35,0,0,1-7.49,7h-11.7a5,5,0,0,0,0,10,7.06,7.06,0,0,1,5.07,2.12,7.19,7.19,0,0,1,2,5.11,7.35,7.35,0,0,1-7.5,7h-11.7a5,5,0,1,0,0,10,7,7,0,0,1,5.07,2.13,7.16,7.16,0,0,1,2,5.1,7.35,7.35,0,0,1-7.5,7Z"/></g><g id="Layer_3" data-name="Layer 3"><path class="cls-1" d="M89.93,29.77v9.94H5a5,5,0,0,1-5-5H0a5,5,0,0,1,5-5Z"/><path class="cls-1" d="M89.93,99.29v10H5a5,5,0,0,1-5-5H0a5,5,0,0,1,5-5Z"/></g></g></svg>