<svg xmlns="http://www.w3.org/2000/svg" viewBox="0 0 911.94 913.12"><defs><style>.cls-1,.cls-5,.cls-8{fill:none;}.cls-2{fill:#666;}.cls-3{fill:#4d4d4d;}.cls-4{fill:#b3b3b3;}.cls-5,.cls-8{stroke:#b3b3b3;stroke-miterlimit:10;}.cls-5{stroke-linecap:round;}.cls-6{font-size:24px;font-family:Heebo-Regular, Heebo;}.cls-7{letter-spacing:-0.01em;}</style></defs><g id="Layer_2" data-name="Layer 2"><g id="frame"><rect class="cls-1" y="1.18" width="911.94" height="911.94"/></g><g id="object"><g id="stem"><rect class="cls-2" x="440.29" y="138.55" width="32.41" height="645.68"/></g><polygon class="cls-2" points="489.47 474.79 479.48 474.79 479.48 445.53 484.56 445.53 484.55 460.16 489.47 474.79"/><rect class="cls-3" x="430.97" y="357.09" width="51.05" height="206.14" rx="10"/><path class="cls-3" d="M431,382.7c-2.71,0-4.91,3.34-4.91,7.46s2.2,7.47,4.91,7.47Z"/><path class="cls-3" d="M431,402.7c-2.71,0-4.91,3.34-4.91,7.46s2.2,7.47,4.91,7.47Z"/><path class="cls-3" d="M431,422.7c-2.71,0-4.91,3.34-4.91,7.46s2.2,7.47,4.91,7.47Z"/><path class="cls-3" d="M431,442.7c-2.71,0-4.91,3.34-4.91,7.46s2.2,7.47,4.91,7.47Z"/><path class="cls-3" d="M431,462.7c-2.71,0-4.91,3.34-4.91,7.46s2.2,7.47,4.91,7.47Z"/><path class="cls-3" d="M431,482.7c-2.71,0-4.91,3.34-4.91,7.46s2.2,7.47,4.91,7.47Z"/><path class="cls-3" d="M431,502.7c-2.71,0-4.91,3.34-4.91,7.46s2.2,7.47,4.91,7.47Z"/><path class="cls-3" d="M431,522.7c-2.71,0-4.91,3.34-4.91,7.46s2.2,7.47,4.91,7.47Z"/><path class="cls-3" d="M482,382.7c2.71,0,4.91,3.34,4.91,7.46s-2.2,7.47-4.91,7.47Z"/><path class="cls-3" d="M482,402.7c2.71,0,4.91,3.34,4.91,7.46s-2.2,7.47-4.91,7.47Z"/><path class="cls-3" d="M482,422.7c2.71,0,4.91,3.34,4.91,7.46s-2.2,7.47-4.91,7.47Z"/><path class="cls-3" d="M482,482.7c2.71,0,4.91,3.34,4.91,7.46s-2.2,7.47-4.91,7.47Z"/><path class="cls-3" d="M482,502.7c2.71,0,4.91,3.34,4.91,7.46s-2.2,7.47-4.91,7.47Z"/><path class="cls-3" d="M482,522.7c2.71,0,4.91,3.34,4.91,7.46s-2.2,7.47-4.91,7.47Z"/><path class="cls-4" d="M534.33,94.55c-.3,1.13-8.07,4.14-9.64,4.7-3.15,2.52-5.13,5.43-8.51,8-4.77,6.2-9.38,20.79-12.43,25s-8.41,12.54-14,18.14-10.62,15-10.62,27.38c0,7.37.74,9,1.38,19.38a10,10,0,0,1-10,10h-31a10,10,0,0,1-10-10c-.71-14.61,1.07,20.84-.13-19.38-.57-18.76-16.56-36.41-16.56-64.32,0-4.1-1.75-11.63-1.69-15.2.61-6,5.19-16,12.94-10.72h0c.51.3,1,.64,1.52,1-1.36-11,10.42-20,17.61-11.63.6-7,5.86-8.5,11-8.8s9.11,7.18,10.83,9.71c2.09-16,4.55-33.1,2-49.57-1.14-21.72,14.08-20.33,16.29-1.62a282.79,282.79,0,0,1,1.21,43.1c-.49,8.7-1.86,20.8-.6,29.58,0,1.24,1.6,6.58,4.7,10.84,2.75,3.8,14.39-12.66,16.58-15.2C511.36,87.39,533.47,83,534.33,94.55Z"/><rect class="cls-4" x="430.97" y="713.23" width="51.05" height="141.99" rx="10"/><polyline class="cls-5" points="533.64 731.18 480.44 730.28 533.46 727.3"/><polyline class="cls-5" points="533.03 738.35 480.44 730.28 533.38 734.48"/><polyline class="cls-5" points="533.23 723.59 480.44 730.28 532.5 719.77"/><polyline class="cls-5" points="533.64 742.6 480.44 741.7 533.46 738.71"/><polyline class="cls-5" points="533.03 749.76 480.44 741.7 533.38 745.89"/><polyline class="cls-5" points="533.23 735 480.44 741.7 532.5 731.18"/><polyline class="cls-5" points="533.64 754.01 480.44 753.11 533.46 750.13"/><polyline class="cls-5" points="533.03 761.17 480.44 753.11 533.38 757.3"/><polyline class="cls-5" points="533.23 746.41 480.44 753.11 532.5 742.6"/><polyline class="cls-5" points="533.64 765.42 480.44 764.52 533.46 761.54"/><polyline class="cls-5" points="533.03 772.59 480.44 764.52 533.38 768.72"/><polyline class="cls-5" points="533.23 757.83 480.44 764.52 532.5 754.01"/><polyline class="cls-5" points="533.64 776.84 480.44 775.93 533.46 772.95"/><polyline class="cls-5" points="533.03 784 480.44 775.93 533.38 780.13"/><polyline class="cls-5" points="533.23 769.24 480.44 775.93 532.5 765.42"/><polyline class="cls-5" points="533.64 788.25 480.44 787.35 533.46 784.37"/><polyline class="cls-5" points="533.03 795.41 480.44 787.35 533.38 791.54"/><polyline class="cls-5" points="533.23 780.65 480.44 787.35 532.5 776.84"/><polyline class="cls-5" points="533.64 799.66 480.44 798.76 533.46 795.78"/><polyline class="cls-5" points="533.03 806.83 480.44 798.76 533.38 802.96"/><polyline class="cls-5" points="533.23 792.07 480.44 798.76 532.5 788.25"/><polyline class="cls-5" points="533.64 811.08 480.44 810.18 533.46 807.2"/><polyline class="cls-5" points="533.03 818.24 480.44 810.18 533.38 814.37"/><polyline class="cls-5" points="533.23 803.48 480.44 810.18 532.5 799.66"/><polyline class="cls-5" points="533.64 822.49 480.44 821.59 533.46 818.61"/><polyline class="cls-5" points="533.03 829.65 480.44 821.59 533.38 825.78"/><polyline class="cls-5" points="533.23 814.89 480.44 821.59 532.5 811.08"/><polyline class="cls-5" points="533.64 833.9 480.44 833 533.46 830.02"/><polyline class="cls-5" points="533.03 841.07 480.44 833 533.38 837.2"/><polyline class="cls-5" points="533.23 826.31 480.44 833 532.5 822.49"/><polyline class="cls-5" points="533.64 845.32 480.44 844.42 533.46 841.43"/><polyline class="cls-5" points="533.03 852.48 480.44 844.42 533.38 848.61"/><polyline class="cls-5" points="533.23 837.72 480.44 844.42 532.5 833.9"/><polyline class="cls-5" points="377.77 731.18 430.97 730.28 377.95 727.3"/><polyline class="cls-5" points="378.38 738.35 430.97 730.28 378.03 734.48"/><polyline class="cls-5" points="378.18 723.59 430.97 730.28 378.91 719.77"/><polyline class="cls-5" points="377.77 742.6 430.97 741.7 377.95 738.71"/><polyline class="cls-5" points="378.38 749.76 430.97 741.7 378.03 745.89"/><polyline class="cls-5" points="378.18 735 430.97 741.7 378.91 731.18"/><polyline class="cls-5" points="377.77 754.01 430.97 753.11 377.95 750.13"/><polyline class="cls-5" points="378.38 761.17 430.97 753.11 378.03 757.3"/><polyline class="cls-5" points="378.18 746.41 430.97 753.11 378.91 742.6"/><polyline class="cls-5" points="377.77 765.42 430.97 764.52 377.95 761.54"/><polyline class="cls-5" points="378.38 772.59 430.97 764.52 378.03 768.72"/><polyline class="cls-5" points="378.18 757.83 430.97 764.52 378.91 754.01"/><polyline class="cls-5" points="377.77 776.84 430.97 775.93 377.95 772.95"/><polyline class="cls-5" points="378.38 784 430.97 775.93 378.03 780.13"/><polyline class="cls-5" points="378.18 769.24 430.97 775.93 378.91 765.42"/><polyline class="cls-5" points="377.77 788.25 430.97 787.35 377.95 784.37"/><polyline class="cls-5" points="378.38 795.41 430.97 787.35 378.03 791.54"/><polyline class="cls-5" points="378.18 780.65 430.97 787.35 378.91 776.84"/><polyline class="cls-5" points="377.77 799.66 430.97 798.76 377.95 795.78"/><polyline class="cls-5" points="378.38 806.83 430.97 798.76 378.03 802.96"/><polyline class="cls-5" points="378.18 792.07 430.97 798.76 378.91 788.25"/><polyline class="cls-5" points="377.77 811.08 430.97 810.18 377.95 807.2"/><polyline class="cls-5" points="378.38 818.24 430.97 810.18 378.03 814.37"/><polyline class="cls-5" points="378.18 803.48 430.97 810.18 378.91 799.66"/><polyline class="cls-5" points="377.77 822.49 430.97 821.59 377.95 818.61"/><polyline class="cls-5" points="378.38 829.65 430.97 821.59 378.03 825.78"/><polyline class="cls-5" points="378.18 814.89 430.97 821.59 378.91 811.08"/><polyline class="cls-5" points="377.77 833.9 430.97 833 377.95 830.02"/><polyline class="cls-5" points="378.38 841.07 430.97 833 378.03 837.2"/><polyline class="cls-5" points="378.18 826.31 430.97 833 378.91 822.49"/><polyline class="cls-5" points="377.77 845.32 430.97 844.42 377.95 841.43"/><polyline class="cls-5" points="378.38 852.48 430.97 844.42 378.03 848.61"/><polyline class="cls-5" points="378.18 837.72 430.97 844.42 378.91 833.9"/><polyline class="cls-5" points="456.42 908.23 455.51 855.02 452.53 908.05"/><polyline class="cls-5" points="463.58 907.62 455.51 855.02 459.71 907.97"/><polyline class="cls-5" points="448.82 907.81 455.51 855.02 445 907.08"/><polyline class="cls-5" points="470.96 908.23 470.06 855.02 467.08 908.05"/><polyline class="cls-5" points="478.12 907.62 470.06 855.02 474.25 907.97"/><polyline class="cls-5" points="463.37 907.81 470.06 855.02 459.55 907.08"/><polyline class="cls-5" points="494.63 903.56 476.07 853.69 490.91 904.68"/><polyline class="cls-5" points="501.18 900.6 476.07 853.69 497.65 902.22"/><polyline class="cls-5" points="487.33 905.69 476.07 853.69 483.49 906.27"/><polyline class="cls-5" points="519.5 886.58 478.65 852.48 516.83 889.4"/><polyline class="cls-5" points="523.72 880.76 478.65 852.48 521.45 883.92"/><polyline class="cls-5" points="514.22 892.05 478.65 852.48 511.17 894.47"/><polyline class="cls-5" points="530.6 866.21 480.44 848.45 529.07 869.79"/><polyline class="cls-5" points="532.53 859.29 480.44 848.45 531.5 863.04"/><polyline class="cls-5" points="527.55 873.18 480.44 848.45 525.53 876.5"/><polyline class="cls-5" points="419.97 903.56 438.53 853.69 423.69 904.68"/><polyline class="cls-5" points="413.42 900.6 438.53 853.69 416.95 902.22"/><polyline class="cls-5" points="427.27 905.69 438.53 853.69 431.12 906.27"/><polyline class="cls-5" points="395.1 886.58 435.95 852.48 397.78 889.4"/><polyline class="cls-5" points="390.88 880.76 435.95 852.48 393.15 883.92"/><polyline class="cls-5" points="400.38 892.05 435.95 852.48 403.43 894.47"/><polyline class="cls-5" points="384 866.21 434.16 848.45 385.53 869.79"/><polyline class="cls-5" points="382.07 859.29 434.16 848.45 383.1 863.04"/><polyline class="cls-5" points="387.05 873.18 434.16 848.45 389.07 876.5"/><polyline class="cls-5" points="444.54 908.23 443.64 855.02 440.66 908.05"/><polyline class="cls-5" points="451.7 907.62 443.64 855.02 447.83 907.97"/><polyline class="cls-5" points="436.94 907.81 443.64 855.02 433.13 907.08"/></g><g id="description"><text class="cls-6" transform="translate(156.49 20.53)">Sturdy Finger</text><text class="cls-6" transform="translate(156.49 450.16)">Slip Resistant Grip</text><text class="cls-6" transform="translate(607.1 450.16)">Extend But<tspan class="cls-7" x="114.93" y="0">t</tspan><tspan x="122.44" y="0">on</tspan></text><text class="cls-6" transform="translate(604.32 703.23)">Reliable Brush</text><line class="cls-8" x1="156.49" y1="30.53" x2="455.97" y2="30.53"/><line class="cls-8" x1="156.49" y1="460.16" x2="404.58" y2="460.16"/><line class="cls-8" x1="508.41" y1="460.16" x2="756.49" y2="460.16"/><line class="cls-8" x1="508.41" y1="713.23" x2="756.49" y2="713.23"/></g></g></svg>