<svg width="134" height="586" viewBox="0 0 134 586" fill="none" xmlns="http://www.w3.org/2000/svg">
<g clip-path="url(#clip0_3:573)">
<path d="M30.1179 265.998L30.1179 585.945L65.3659 585.945L65.3658 265.998L30.1179 265.998Z" fill="#666666"/>
<path d="M134 90.7347C133.669 91.9795 125.229 95.2574 123.533 95.8798C120.099 98.6183 117.948 101.813 114.266 104.552C109.095 111.315 104.089 127.206 100.738 131.812C97.4282 136.376 91.5949 145.463 85.5134 151.604C79.4319 157.703 73.971 167.952 73.971 181.478C73.971 189.528 74.7984 321.266 75.4603 332.593C75.4603 338.61 70.5786 343.506 64.5798 343.506L30.8212 343.506C24.8225 343.506 19.9407 338.61 19.9407 332.593C19.1547 316.66 21.0991 225.336 19.8166 181.478C19.196 161.023 1.8203 141.77 1.8203 111.356C1.8203 106.875 -0.0827625 98.6598 -2.10508e-05 94.801C0.661912 88.2037 5.62641 77.3742 14.0661 83.1001C14.6039 83.4321 15.1831 83.8055 15.7209 84.1789C14.2315 72.1462 27.0565 62.437 34.8756 71.4823C35.5375 63.8892 41.2467 62.2295 46.8731 61.8976C52.4995 61.5656 56.7607 69.7396 58.6638 72.4781C60.9392 55.0514 63.6283 36.3798 60.8564 18.4136C59.6153 -5.27848 76.1636 -3.74323 78.5631 16.6295C80.0939 29.1602 80.7144 49.7818 79.887 63.6402C79.3492 73.142 77.8598 86.3365 79.2251 95.8798C79.1837 97.249 80.9627 103.058 84.3551 107.705C87.3338 111.854 99.9932 93.8881 102.393 91.1497C109.053 82.8927 133.09 78.1211 134 90.7347Z" fill="#B3B3B3"/>
</g>
<defs>
<clipPath id="clip0_3:573">
<rect width="585" height="134" fill="white" transform="translate(0 585.945) rotate(-90)"/>
</clipPath>
</defs>
</svg>
