<svg xmlns="http://www.w3.org/2000/svg" xmlns:xlink="http://www.w3.org/1999/xlink" viewBox="0 0 157.06 896.51"><defs><style>.cls-1{fill:#e1e1e1;}.cls-2{fill:#d3b555;}.cls-3{fill:url(#linear-gradient);}.cls-4{fill:url(#linear-gradient-2);}.cls-5{fill:url(#linear-gradient-3);}.cls-6{fill:url(#linear-gradient-4);}.cls-7{fill:url(#linear-gradient-5);}.cls-8{fill:url(#linear-gradient-6);}.cls-9{fill:url(#linear-gradient-7);}.cls-10{fill:url(#linear-gradient-8);}.cls-11{fill:url(#linear-gradient-9);}.cls-12{fill:url(#linear-gradient-16);}.cls-13{fill:url(#linear-gradient-17);}.cls-100,.cls-101,.cls-102,.cls-103,.cls-104,.cls-105,.cls-106,.cls-14,.cls-15,.cls-16,.cls-17,.cls-18,.cls-19,.cls-20,.cls-21,.cls-22,.cls-23,.cls-24,.cls-25,.cls-26,.cls-27,.cls-28,.cls-29,.cls-30,.cls-31,.cls-32,.cls-33,.cls-34,.cls-35,.cls-36,.cls-37,.cls-38,.cls-39,.cls-40,.cls-41,.cls-42,.cls-43,.cls-44,.cls-45,.cls-46,.cls-47,.cls-48,.cls-49,.cls-50,.cls-51,.cls-52,.cls-53,.cls-54,.cls-55,.cls-56,.cls-57,.cls-58,.cls-59,.cls-60,.cls-61,.cls-62,.cls-63,.cls-64,.cls-65,.cls-66,.cls-67,.cls-68,.cls-69,.cls-70,.cls-71,.cls-72,.cls-73,.cls-74,.cls-75,.cls-76,.cls-77,.cls-78,.cls-79,.cls-80,.cls-81,.cls-82,.cls-83,.cls-84,.cls-85,.cls-86,.cls-87,.cls-88,.cls-89,.cls-90,.cls-91,.cls-92,.cls-93,.cls-94,.cls-95,.cls-96,.cls-97,.cls-98,.cls-99{fill:none;stroke-linecap:round;stroke-miterlimit:10;}.cls-14{stroke:url(#linear-gradient-18);}.cls-15{stroke:url(#linear-gradient-19);}.cls-16{stroke:url(#linear-gradient-20);}.cls-17{stroke:url(#linear-gradient-21);}.cls-18{stroke:url(#linear-gradient-22);}.cls-19{stroke:url(#linear-gradient-23);}.cls-20{stroke:url(#linear-gradient-24);}.cls-21{stroke:url(#linear-gradient-25);}.cls-22{stroke:url(#linear-gradient-26);}.cls-23{stroke:url(#linear-gradient-27);}.cls-24{stroke:url(#linear-gradient-28);}.cls-25{stroke:url(#linear-gradient-29);}.cls-26{stroke:url(#linear-gradient-30);}.cls-27{stroke:url(#linear-gradient-31);}.cls-28{stroke:url(#linear-gradient-32);}.cls-29{stroke:url(#linear-gradient-33);}.cls-30{stroke:url(#linear-gradient-34);}.cls-31{stroke:url(#linear-gradient-35);}.cls-32{stroke:url(#linear-gradient-36);}.cls-33{stroke:url(#linear-gradient-37);}.cls-34{stroke:url(#linear-gradient-38);}.cls-35{stroke:url(#linear-gradient-39);}.cls-36{stroke:url(#linear-gradient-40);}.cls-37{stroke:url(#linear-gradient-41);}.cls-38{stroke:url(#linear-gradient-42);}.cls-39{stroke:url(#linear-gradient-43);}.cls-40{stroke:url(#linear-gradient-44);}.cls-41{stroke:url(#linear-gradient-45);}.cls-42{stroke:url(#linear-gradient-46);}.cls-43{stroke:url(#linear-gradient-47);}.cls-44{stroke:url(#linear-gradient-48);}.cls-45{stroke:url(#linear-gradient-49);}.cls-46{stroke:url(#linear-gradient-50);}.cls-47{stroke:url(#linear-gradient-51);}.cls-48{stroke:url(#linear-gradient-52);}.cls-49{stroke:url(#linear-gradient-53);}.cls-50{stroke:url(#linear-gradient-54);}.cls-51{stroke:url(#linear-gradient-55);}.cls-52{stroke:url(#linear-gradient-56);}.cls-53{stroke:url(#linear-gradient-57);}.cls-54{stroke:url(#linear-gradient-58);}.cls-55{stroke:url(#linear-gradient-59);}.cls-56{stroke:url(#linear-gradient-60);}.cls-57{stroke:url(#linear-gradient-61);}.cls-58{stroke:url(#linear-gradient-62);}.cls-59{stroke:url(#linear-gradient-63);}.cls-60{stroke:url(#linear-gradient-64);}.cls-61{stroke:url(#linear-gradient-65);}.cls-62{stroke:url(#linear-gradient-66);}.cls-63{stroke:url(#linear-gradient-67);}.cls-64{stroke:url(#linear-gradient-68);}.cls-65{stroke:url(#linear-gradient-69);}.cls-66{stroke:url(#linear-gradient-70);}.cls-67{stroke:url(#linear-gradient-71);}.cls-68{stroke:url(#linear-gradient-72);}.cls-69{stroke:url(#linear-gradient-73);}.cls-70{stroke:url(#linear-gradient-74);}.cls-71{stroke:url(#linear-gradient-75);}.cls-72{stroke:url(#linear-gradient-76);}.cls-73{stroke:url(#linear-gradient-77);}.cls-74{stroke:url(#linear-gradient-78);}.cls-75{stroke:url(#linear-gradient-79);}.cls-76{stroke:url(#linear-gradient-80);}.cls-77{stroke:url(#linear-gradient-81);}.cls-78{stroke:url(#linear-gradient-82);}.cls-79{stroke:url(#linear-gradient-83);}.cls-80{stroke:url(#linear-gradient-84);}.cls-81{stroke:url(#linear-gradient-85);}.cls-82{stroke:url(#linear-gradient-86);}.cls-83{stroke:url(#linear-gradient-87);}.cls-84{stroke:url(#linear-gradient-88);}.cls-85{stroke:url(#linear-gradient-89);}.cls-86{stroke:url(#linear-gradient-90);}.cls-87{stroke:url(#linear-gradient-91);}.cls-88{stroke:url(#linear-gradient-92);}.cls-89{stroke:url(#linear-gradient-93);}.cls-90{stroke:url(#linear-gradient-94);}.cls-91{stroke:url(#linear-gradient-95);}.cls-92{stroke:url(#linear-gradient-96);}.cls-93{stroke:url(#linear-gradient-97);}.cls-94{stroke:url(#linear-gradient-98);}.cls-95{stroke:url(#linear-gradient-99);}.cls-96{stroke:url(#linear-gradient-100);}.cls-97{stroke:url(#linear-gradient-101);}.cls-98{stroke:url(#linear-gradient-102);}.cls-99{stroke:url(#linear-gradient-103);}.cls-100{stroke:url(#linear-gradient-104);}.cls-101{stroke:url(#linear-gradient-105);}.cls-102{stroke:url(#linear-gradient-106);}.cls-103{stroke:url(#linear-gradient-107);}.cls-104{stroke:url(#linear-gradient-108);}.cls-105{stroke:url(#linear-gradient-109);}.cls-106{stroke:url(#linear-gradient-110);}</style><linearGradient id="linear-gradient" x1="54.23" y1="447.94" x2="102.73" y2="447.94" gradientUnits="userSpaceOnUse"><stop offset="0" stop-color="#ddbf5f"/><stop offset="0.25" stop-color="#e1c773"/><stop offset="0.5" stop-color="#e5cf87"/><stop offset="0.75" stop-color="#ddbf5f"/><stop offset="1" stop-color="#ddbf5f"/></linearGradient><linearGradient id="linear-gradient-2" x1="54.23" y1="377.94" x2="102.73" y2="377.94" xlink:href="#linear-gradient"/><linearGradient id="linear-gradient-3" x1="54.23" y1="397.94" x2="102.73" y2="397.94" xlink:href="#linear-gradient"/><linearGradient id="linear-gradient-4" x1="54.23" y1="417.94" x2="102.73" y2="417.94" xlink:href="#linear-gradient"/><linearGradient id="linear-gradient-5" x1="54.23" y1="437.94" x2="102.73" y2="437.94" xlink:href="#linear-gradient"/><linearGradient id="linear-gradient-6" x1="54.23" y1="457.94" x2="102.73" y2="457.94" xlink:href="#linear-gradient"/><linearGradient id="linear-gradient-7" x1="54.23" y1="477.94" x2="102.73" y2="477.94" xlink:href="#linear-gradient"/><linearGradient id="linear-gradient-8" x1="54.23" y1="497.94" x2="102.73" y2="497.94" xlink:href="#linear-gradient"/><linearGradient id="linear-gradient-9" x1="54.23" y1="517.94" x2="102.73" y2="517.94" xlink:href="#linear-gradient"/><linearGradient id="linear-gradient-16" x1="33.81" y1="97.44" x2="157.06" y2="97.44" xlink:href="#linear-gradient"/><linearGradient id="linear-gradient-17" x1="53.7" y1="772.01" x2="104.75" y2="772.01" xlink:href="#linear-gradient"/><linearGradient id="linear-gradient-18" x1="103.14" y1="717.02" x2="156.87" y2="717.02" xlink:href="#linear-gradient"/><linearGradient id="linear-gradient-19" x1="103.1" y1="722.1" x2="156.61" y2="722.1" xlink:href="#linear-gradient"/><linearGradient id="linear-gradient-20" x1="103.07" y1="712.8" x2="156.46" y2="712.8" xlink:href="#linear-gradient"/><linearGradient id="linear-gradient-21" x1="103.14" y1="728.44" x2="156.87" y2="728.44" xlink:href="#linear-gradient"/><linearGradient id="linear-gradient-22" x1="103.1" y1="733.51" x2="156.61" y2="733.51" xlink:href="#linear-gradient"/><linearGradient id="linear-gradient-23" x1="103.07" y1="724.22" x2="156.46" y2="724.22" xlink:href="#linear-gradient"/><linearGradient id="linear-gradient-24" x1="103.14" y1="739.85" x2="156.87" y2="739.85" xlink:href="#linear-gradient"/><linearGradient id="linear-gradient-25" x1="103.1" y1="744.92" x2="156.61" y2="744.92" xlink:href="#linear-gradient"/><linearGradient id="linear-gradient-26" x1="103.07" y1="735.63" x2="156.46" y2="735.63" xlink:href="#linear-gradient"/><linearGradient id="linear-gradient-27" x1="103.14" y1="751.26" x2="156.87" y2="751.26" xlink:href="#linear-gradient"/><linearGradient id="linear-gradient-28" x1="103.1" y1="756.34" x2="156.61" y2="756.34" xlink:href="#linear-gradient"/><linearGradient id="linear-gradient-29" x1="103.07" y1="747.04" x2="156.46" y2="747.04" xlink:href="#linear-gradient"/><linearGradient id="linear-gradient-30" x1="103.14" y1="762.68" x2="156.87" y2="762.68" xlink:href="#linear-gradient"/><linearGradient id="linear-gradient-31" x1="103.1" y1="767.75" x2="156.61" y2="767.75" xlink:href="#linear-gradient"/><linearGradient id="linear-gradient-32" x1="103.07" y1="758.46" x2="156.46" y2="758.46" xlink:href="#linear-gradient"/><linearGradient id="linear-gradient-33" x1="103.14" y1="774.09" x2="156.87" y2="774.09" xlink:href="#linear-gradient"/><linearGradient id="linear-gradient-34" x1="103.1" y1="779.16" x2="156.61" y2="779.16" xlink:href="#linear-gradient"/><linearGradient id="linear-gradient-35" x1="103.07" y1="769.87" x2="156.46" y2="769.87" xlink:href="#linear-gradient"/><linearGradient id="linear-gradient-36" x1="103.14" y1="785.5" x2="156.87" y2="785.5" xlink:href="#linear-gradient"/><linearGradient id="linear-gradient-37" x1="103.1" y1="790.58" x2="156.61" y2="790.58" xlink:href="#linear-gradient"/><linearGradient id="linear-gradient-38" x1="103.07" y1="781.29" x2="156.46" y2="781.29" xlink:href="#linear-gradient"/><linearGradient id="linear-gradient-39" x1="103.14" y1="796.92" x2="156.87" y2="796.92" xlink:href="#linear-gradient"/><linearGradient id="linear-gradient-40" x1="103.1" y1="801.99" x2="156.61" y2="801.99" xlink:href="#linear-gradient"/><linearGradient id="linear-gradient-41" x1="103.07" y1="792.7" x2="156.46" y2="792.7" xlink:href="#linear-gradient"/><linearGradient id="linear-gradient-42" x1="103.14" y1="808.33" x2="156.87" y2="808.33" xlink:href="#linear-gradient"/><linearGradient id="linear-gradient-43" x1="103.1" y1="813.4" x2="156.61" y2="813.4" xlink:href="#linear-gradient"/><linearGradient id="linear-gradient-44" x1="103.07" y1="804.11" x2="156.46" y2="804.11" xlink:href="#linear-gradient"/><linearGradient id="linear-gradient-45" x1="103.14" y1="819.74" x2="156.87" y2="819.74" xlink:href="#linear-gradient"/><linearGradient id="linear-gradient-46" x1="103.1" y1="824.82" x2="156.61" y2="824.82" xlink:href="#linear-gradient"/><linearGradient id="linear-gradient-47" x1="103.07" y1="815.53" x2="156.46" y2="815.53" xlink:href="#linear-gradient"/><linearGradient id="linear-gradient-48" x1="103.14" y1="831.16" x2="156.87" y2="831.16" xlink:href="#linear-gradient"/><linearGradient id="linear-gradient-49" x1="103.1" y1="836.23" x2="156.61" y2="836.23" xlink:href="#linear-gradient"/><linearGradient id="linear-gradient-50" x1="103.07" y1="826.94" x2="156.46" y2="826.94" xlink:href="#linear-gradient"/><linearGradient id="linear-gradient-51" x1="0" y1="717.02" x2="53.73" y2="717.02" xlink:href="#linear-gradient"/><linearGradient id="linear-gradient-52" x1="0.26" y1="722.1" x2="53.78" y2="722.1" xlink:href="#linear-gradient"/><linearGradient id="linear-gradient-53" x1="0.42" y1="712.8" x2="53.8" y2="712.8" xlink:href="#linear-gradient"/><linearGradient id="linear-gradient-54" x1="0" y1="728.44" x2="53.73" y2="728.44" xlink:href="#linear-gradient"/><linearGradient id="linear-gradient-55" x1="0.26" y1="733.51" x2="53.78" y2="733.51" xlink:href="#linear-gradient"/><linearGradient id="linear-gradient-56" x1="0.42" y1="724.22" x2="53.8" y2="724.22" xlink:href="#linear-gradient"/><linearGradient id="linear-gradient-57" x1="0" y1="739.85" x2="53.73" y2="739.85" xlink:href="#linear-gradient"/><linearGradient id="linear-gradient-58" x1="0.26" y1="744.92" x2="53.78" y2="744.92" xlink:href="#linear-gradient"/><linearGradient id="linear-gradient-59" x1="0.42" y1="735.63" x2="53.8" y2="735.63" xlink:href="#linear-gradient"/><linearGradient id="linear-gradient-60" x1="0" y1="751.26" x2="53.73" y2="751.26" xlink:href="#linear-gradient"/><linearGradient id="linear-gradient-61" x1="0.26" y1="756.34" x2="53.78" y2="756.34" xlink:href="#linear-gradient"/><linearGradient id="linear-gradient-62" x1="0.42" y1="747.04" x2="53.8" y2="747.04" xlink:href="#linear-gradient"/><linearGradient id="linear-gradient-63" x1="0" y1="762.68" x2="53.73" y2="762.68" xlink:href="#linear-gradient"/><linearGradient id="linear-gradient-64" x1="0.26" y1="767.75" x2="53.78" y2="767.75" xlink:href="#linear-gradient"/><linearGradient id="linear-gradient-65" x1="0.42" y1="758.46" x2="53.8" y2="758.46" xlink:href="#linear-gradient"/><linearGradient id="linear-gradient-66" x1="0" y1="774.09" x2="53.73" y2="774.09" xlink:href="#linear-gradient"/><linearGradient id="linear-gradient-67" x1="0.26" y1="779.16" x2="53.78" y2="779.16" xlink:href="#linear-gradient"/><linearGradient id="linear-gradient-68" x1="0.42" y1="769.87" x2="53.8" y2="769.87" xlink:href="#linear-gradient"/><linearGradient id="linear-gradient-69" x1="0" y1="785.5" x2="53.73" y2="785.5" xlink:href="#linear-gradient"/><linearGradient id="linear-gradient-70" x1="0.26" y1="790.58" x2="53.78" y2="790.58" xlink:href="#linear-gradient"/><linearGradient id="linear-gradient-71" x1="0.42" y1="781.29" x2="53.8" y2="781.29" xlink:href="#linear-gradient"/><linearGradient id="linear-gradient-72" x1="0" y1="796.92" x2="53.73" y2="796.92" xlink:href="#linear-gradient"/><linearGradient id="linear-gradient-73" x1="0.26" y1="801.99" x2="53.78" y2="801.99" xlink:href="#linear-gradient"/><linearGradient id="linear-gradient-74" x1="0.42" y1="792.7" x2="53.8" y2="792.7" xlink:href="#linear-gradient"/><linearGradient id="linear-gradient-75" x1="0" y1="808.33" x2="53.73" y2="808.33" xlink:href="#linear-gradient"/><linearGradient id="linear-gradient-76" x1="0.26" y1="813.4" x2="53.78" y2="813.4" xlink:href="#linear-gradient"/><linearGradient id="linear-gradient-77" x1="0.42" y1="804.11" x2="53.8" y2="804.11" xlink:href="#linear-gradient"/><linearGradient id="linear-gradient-78" x1="0" y1="819.74" x2="53.73" y2="819.74" xlink:href="#linear-gradient"/><linearGradient id="linear-gradient-79" x1="0.26" y1="824.82" x2="53.78" y2="824.82" xlink:href="#linear-gradient"/><linearGradient id="linear-gradient-80" x1="0.42" y1="815.53" x2="53.8" y2="815.53" xlink:href="#linear-gradient"/><linearGradient id="linear-gradient-81" x1="0" y1="831.16" x2="53.73" y2="831.16" xlink:href="#linear-gradient"/><linearGradient id="linear-gradient-82" x1="0.26" y1="836.23" x2="53.78" y2="836.23" xlink:href="#linear-gradient"/><linearGradient id="linear-gradient-83" x1="0.42" y1="826.94" x2="53.8" y2="826.94" xlink:href="#linear-gradient"/><linearGradient id="linear-gradient-84" x1="74.77" y1="869.64" x2="79.65" y2="869.64" xlink:href="#linear-gradient"/><linearGradient id="linear-gradient-85" x1="77.75" y1="869.49" x2="86.81" y2="869.49" xlink:href="#linear-gradient"/><linearGradient id="linear-gradient-86" x1="67.23" y1="869.4" x2="78.74" y2="869.4" xlink:href="#linear-gradient"/><linearGradient id="linear-gradient-87" x1="89.31" y1="869.64" x2="94.19" y2="869.64" xlink:href="#linear-gradient"/><linearGradient id="linear-gradient-88" x1="92.29" y1="869.49" x2="101.36" y2="869.49" xlink:href="#linear-gradient"/><linearGradient id="linear-gradient-89" x1="81.78" y1="869.4" x2="93.29" y2="869.4" xlink:href="#linear-gradient"/><linearGradient id="linear-gradient-90" x1="98.32" y1="867.13" x2="117.86" y2="867.13" xlink:href="#linear-gradient"/><linearGradient id="linear-gradient-91" x1="98.35" y1="865.86" x2="124.42" y2="865.86" xlink:href="#linear-gradient"/><linearGradient id="linear-gradient-92" x1="98.31" y1="867.96" x2="110.56" y2="867.96" xlink:href="#linear-gradient"/><linearGradient id="linear-gradient-93" x1="101.03" y1="858.78" x2="142.73" y2="858.78" xlink:href="#linear-gradient"/><linearGradient id="linear-gradient-94" x1="101.08" y1="856.02" x2="146.95" y2="856.02" xlink:href="#linear-gradient"/><linearGradient id="linear-gradient-95" x1="100.98" y1="861.34" x2="137.45" y2="861.34" xlink:href="#linear-gradient"/><linearGradient id="linear-gradient-96" x1="102.97" y1="846.91" x2="153.83" y2="846.91" xlink:href="#linear-gradient"/><linearGradient id="linear-gradient-97" x1="103.03" y1="843.53" x2="155.77" y2="843.53" xlink:href="#linear-gradient"/><linearGradient id="linear-gradient-98" x1="102.91" y1="850.29" x2="150.78" y2="850.29" xlink:href="#linear-gradient"/><linearGradient id="linear-gradient-99" x1="42.2" y1="867.13" x2="61.74" y2="867.13" xlink:href="#linear-gradient"/><linearGradient id="linear-gradient-100" x1="35.65" y1="865.86" x2="61.72" y2="865.86" xlink:href="#linear-gradient"/><linearGradient id="linear-gradient-101" x1="49.5" y1="867.96" x2="61.76" y2="867.96" xlink:href="#linear-gradient"/><linearGradient id="linear-gradient-102" x1="17.34" y1="858.78" x2="59.03" y2="858.78" xlink:href="#linear-gradient"/><linearGradient id="linear-gradient-103" x1="13.11" y1="856.02" x2="58.98" y2="856.02" xlink:href="#linear-gradient"/><linearGradient id="linear-gradient-104" x1="22.62" y1="861.34" x2="59.08" y2="861.34" xlink:href="#linear-gradient"/><linearGradient id="linear-gradient-105" x1="6.24" y1="846.91" x2="57.1" y2="846.91" xlink:href="#linear-gradient"/><linearGradient id="linear-gradient-106" x1="4.3" y1="843.53" x2="57.03" y2="843.53" xlink:href="#linear-gradient"/><linearGradient id="linear-gradient-107" x1="9.28" y1="850.29" x2="57.16" y2="850.29" xlink:href="#linear-gradient"/><linearGradient id="linear-gradient-108" x1="62.89" y1="869.64" x2="67.77" y2="869.64" xlink:href="#linear-gradient"/><linearGradient id="linear-gradient-109" x1="65.87" y1="869.49" x2="74.93" y2="869.49" xlink:href="#linear-gradient"/><linearGradient id="linear-gradient-110" x1="55.36" y1="869.4" x2="66.86" y2="869.4" xlink:href="#linear-gradient"/></defs><g id="Layer_2" data-name="Layer 2"><g id="Pro_-_Contracted" data-name="Pro - Contracted"><rect id="stem" class="cls-1" x="63.02" y="126.33" width="32.41" height="645.68"/><g id="handle_copy_3" data-name="handle copy 3"><polygon class="cls-2" points="112.2 462.57 102.21 462.57 102.21 433.31 107.29 433.31 107.28 447.94 112.2 462.57"/><rect class="cls-3" x="53.7" y="344.87" width="51.05" height="206.14" rx="10"/><path class="cls-4" d="M53.7,370.48c-2.71,0-4.91,3.34-4.91,7.46s2.2,7.47,4.91,7.47Z"/><path class="cls-5" d="M53.7,390.48c-2.71,0-4.91,3.34-4.91,7.46s2.2,7.47,4.91,7.47Z"/><path class="cls-6" d="M53.7,410.48c-2.71,0-4.91,3.34-4.91,7.46s2.2,7.47,4.91,7.47Z"/><path class="cls-7" d="M53.7,430.48c-2.71,0-4.91,3.34-4.91,7.46s2.2,7.47,4.91,7.47Z"/><path class="cls-8" d="M53.7,450.48c-2.71,0-4.91,3.34-4.91,7.46s2.2,7.47,4.91,7.47Z"/><path class="cls-9" d="M53.7,470.48c-2.71,0-4.91,3.34-4.91,7.46s2.2,7.47,4.91,7.47Z"/><path class="cls-10" d="M53.7,490.48c-2.71,0-4.91,3.34-4.91,7.46s2.2,7.47,4.91,7.47Z"/><path class="cls-11" d="M53.7,510.48c-2.71,0-4.91,3.34-4.91,7.46s2.2,7.47,4.91,7.47Z"/><path class="cls-4" d="M104.75,370.48c2.72,0,4.92,3.34,4.92,7.46s-2.2,7.47-4.92,7.47Z"/><path class="cls-5" d="M104.75,390.48c2.72,0,4.92,3.34,4.92,7.46s-2.2,7.47-4.92,7.47Z"/><path class="cls-6" d="M104.75,410.48c2.72,0,4.92,3.34,4.92,7.46s-2.2,7.47-4.92,7.47Z"/><path class="cls-9" d="M104.75,470.48c2.72,0,4.92,3.34,4.92,7.46s-2.2,7.47-4.92,7.47Z"/><path class="cls-10" d="M104.75,490.48c2.72,0,4.92,3.34,4.92,7.46s-2.2,7.47-4.92,7.47Z"/><path class="cls-11" d="M104.75,510.48c2.72,0,4.92,3.34,4.92,7.46s-2.2,7.47-4.92,7.47Z"/></g><g id="pointer_copy_3" data-name="pointer copy 3"><path class="cls-12" d="M157.06,82.33c-.3,1.13-8.07,4.14-9.64,4.7-3.15,2.53-5.13,5.43-8.51,8-4.77,6.2-9.38,20.79-12.43,25s-8.41,12.54-14,18.14-10.62,15-10.62,27.38c0,7.37.74,9,1.38,19.38a10,10,0,0,1-10,10h-31a10,10,0,0,1-10-10c-.71-14.61,1.07,20.84-.13-19.38-.56-18.76-16.56-36.41-16.56-64.32,0-4.1-1.75-11.63-1.69-15.2.61-6,5.19-16,12.94-10.72h0c.51.3,1,.64,1.52,1-1.36-11,10.42-20,17.61-11.63.6-7,5.86-8.5,11-8.8S86,63,87.73,65.54c2.09-16,4.56-33.1,2-49.57C88.61-5.75,103.84-4.35,106,14.35a282.82,282.82,0,0,1,1.21,43.1c-.48,8.7-1.86,20.8-.6,29.58,0,1.24,1.61,6.58,4.7,10.84,2.76,3.8,14.4-12.66,16.58-15.2C134.1,75.18,156.21,70.77,157.06,82.33Z"/></g><g id="Brush_copy_3" data-name="Brush copy 3"><rect class="cls-13" x="53.7" y="701.01" width="51.05" height="141.99" rx="10"/><polyline class="cls-14" points="156.37 718.96 103.17 718.06 156.2 715.08"/><polyline class="cls-15" points="155.77 726.13 103.17 718.06 156.11 722.26"/><polyline class="cls-16" points="155.96 711.37 103.17 718.06 155.23 707.55"/><polyline class="cls-17" points="156.37 730.38 103.17 729.48 156.2 726.5"/><polyline class="cls-18" points="155.77 737.54 103.17 729.48 156.11 733.67"/><polyline class="cls-19" points="155.96 722.78 103.17 729.48 155.23 718.96"/><polyline class="cls-20" points="156.37 741.79 103.17 740.89 156.2 737.91"/><polyline class="cls-21" points="155.77 748.96 103.17 740.89 156.11 745.08"/><polyline class="cls-22" points="155.96 734.2 103.17 740.89 155.23 730.38"/><polyline class="cls-23" points="156.37 753.2 103.17 752.3 156.2 749.32"/><polyline class="cls-24" points="155.77 760.37 103.17 752.3 156.11 756.5"/><polyline class="cls-25" points="155.96 745.61 103.17 752.3 155.23 741.79"/><polyline class="cls-26" points="156.37 764.62 103.17 763.72 156.2 760.74"/><polyline class="cls-27" points="155.77 771.78 103.17 763.72 156.11 767.91"/><polyline class="cls-28" points="155.96 757.02 103.17 763.72 155.23 753.2"/><polyline class="cls-29" points="156.37 776.03 103.17 775.13 156.2 772.15"/><polyline class="cls-30" points="155.77 783.2 103.17 775.13 156.11 779.32"/><polyline class="cls-31" points="155.96 768.43 103.17 775.13 155.23 764.62"/><polyline class="cls-32" points="156.37 787.45 103.17 786.54 156.2 783.56"/><polyline class="cls-33" points="155.77 794.61 103.17 786.54 156.11 790.74"/><polyline class="cls-34" points="155.96 779.85 103.17 786.54 155.23 776.03"/><polyline class="cls-35" points="156.37 798.86 103.17 797.96 156.2 794.98"/><polyline class="cls-36" points="155.77 806.02 103.17 797.96 156.11 802.15"/><polyline class="cls-37" points="155.96 791.26 103.17 797.96 155.23 787.45"/><polyline class="cls-38" points="156.37 810.27 103.17 809.37 156.2 806.39"/><polyline class="cls-39" points="155.77 817.43 103.17 809.37 156.11 813.56"/><polyline class="cls-40" points="155.96 802.68 103.17 809.37 155.23 798.86"/><polyline class="cls-41" points="156.37 821.68 103.17 820.78 156.2 817.8"/><polyline class="cls-42" points="155.77 828.85 103.17 820.78 156.11 824.98"/><polyline class="cls-43" points="155.96 814.09 103.17 820.78 155.23 810.27"/><polyline class="cls-44" points="156.37 833.1 103.17 832.2 156.2 829.22"/><polyline class="cls-45" points="155.77 840.26 103.17 832.2 156.11 836.39"/><polyline class="cls-46" points="155.96 825.5 103.17 832.2 155.23 821.68"/><polyline class="cls-47" points="0.5 718.96 53.7 718.06 0.68 715.08"/><polyline class="cls-48" points="1.11 726.13 53.7 718.06 0.76 722.26"/><polyline class="cls-49" points="0.92 711.37 53.7 718.06 1.65 707.55"/><polyline class="cls-50" points="0.5 730.38 53.7 729.48 0.68 726.5"/><polyline class="cls-51" points="1.11 737.54 53.7 729.48 0.76 733.67"/><polyline class="cls-52" points="0.92 722.78 53.7 729.48 1.65 718.96"/><polyline class="cls-53" points="0.5 741.79 53.7 740.89 0.68 737.91"/><polyline class="cls-54" points="1.11 748.96 53.7 740.89 0.76 745.08"/><polyline class="cls-55" points="0.92 734.2 53.7 740.89 1.65 730.38"/><polyline class="cls-56" points="0.5 753.2 53.7 752.3 0.68 749.32"/><polyline class="cls-57" points="1.11 760.37 53.7 752.3 0.76 756.5"/><polyline class="cls-58" points="0.92 745.61 53.7 752.3 1.65 741.79"/><polyline class="cls-59" points="0.5 764.62 53.7 763.72 0.68 760.74"/><polyline class="cls-60" points="1.11 771.78 53.7 763.72 0.76 767.91"/><polyline class="cls-61" points="0.92 757.02 53.7 763.72 1.65 753.2"/><polyline class="cls-62" points="0.5 776.03 53.7 775.13 0.68 772.15"/><polyline class="cls-63" points="1.11 783.2 53.7 775.13 0.76 779.32"/><polyline class="cls-64" points="0.92 768.43 53.7 775.13 1.65 764.62"/><polyline class="cls-65" points="0.5 787.45 53.7 786.54 0.68 783.56"/><polyline class="cls-66" points="1.11 794.61 53.7 786.54 0.76 790.74"/><polyline class="cls-67" points="0.92 779.85 53.7 786.54 1.65 776.03"/><polyline class="cls-68" points="0.5 798.86 53.7 797.96 0.68 794.98"/><polyline class="cls-69" points="1.11 806.02 53.7 797.96 0.76 802.15"/><polyline class="cls-70" points="0.92 791.26 53.7 797.96 1.65 787.45"/><polyline class="cls-71" points="0.5 810.27 53.7 809.37 0.68 806.39"/><polyline class="cls-72" points="1.11 817.43 53.7 809.37 0.76 813.56"/><polyline class="cls-73" points="0.92 802.68 53.7 809.37 1.65 798.86"/><polyline class="cls-74" points="0.5 821.68 53.7 820.78 0.68 817.8"/><polyline class="cls-75" points="1.11 828.85 53.7 820.78 0.76 824.98"/><polyline class="cls-76" points="0.92 814.09 53.7 820.78 1.65 810.27"/><polyline class="cls-77" points="0.5 833.1 53.7 832.2 0.68 829.22"/><polyline class="cls-78" points="1.11 840.26 53.7 832.2 0.76 836.39"/><polyline class="cls-79" points="0.92 825.5 53.7 832.2 1.65 821.68"/><polyline class="cls-80" points="79.15 896.01 78.25 842.8 75.27 895.83"/><polyline class="cls-81" points="86.31 895.4 78.25 842.8 82.44 895.75"/><polyline class="cls-82" points="71.55 895.59 78.25 842.8 67.73 894.86"/><polyline class="cls-83" points="93.69 896.01 92.79 842.8 89.81 895.83"/><polyline class="cls-84" points="100.86 895.4 92.79 842.8 96.98 895.75"/><polyline class="cls-85" points="86.1 895.59 92.79 842.8 82.28 894.86"/><polyline class="cls-86" points="117.36 891.34 98.8 841.47 113.64 892.46"/><polyline class="cls-87" points="123.92 888.38 98.8 841.47 120.38 890"/><polyline class="cls-88" points="110.06 893.47 98.8 841.47 106.22 894.06"/><polyline class="cls-89" points="142.23 874.36 101.38 840.26 139.56 877.18"/><polyline class="cls-90" points="146.45 868.54 101.38 840.26 144.19 871.7"/><polyline class="cls-91" points="136.95 879.84 101.38 840.26 133.9 882.25"/><polyline class="cls-92" points="153.33 854 103.17 836.23 151.8 857.57"/><polyline class="cls-93" points="155.27 847.07 103.17 836.23 154.24 850.82"/><polyline class="cls-94" points="150.28 860.97 103.17 836.23 148.26 864.29"/><polyline class="cls-95" points="42.7 891.34 61.26 841.47 46.42 892.46"/><polyline class="cls-96" points="36.15 888.38 61.26 841.47 39.69 890"/><polyline class="cls-97" points="50 893.47 61.26 841.47 53.85 894.06"/><polyline class="cls-98" points="17.84 874.36 58.69 840.26 20.51 877.18"/><polyline class="cls-99" points="13.61 868.54 58.69 840.26 15.88 871.7"/><polyline class="cls-100" points="23.12 879.84 58.69 840.26 26.16 882.25"/><polyline class="cls-101" points="6.74 854 56.9 836.23 8.26 857.57"/><polyline class="cls-102" points="4.8 847.07 56.9 836.23 5.83 850.82"/><polyline class="cls-103" points="9.78 860.97 56.9 836.23 11.8 864.29"/><polyline class="cls-104" points="67.27 896.01 66.37 842.8 63.39 895.83"/><polyline class="cls-105" points="74.43 895.4 66.37 842.8 70.56 895.75"/><polyline class="cls-106" points="59.67 895.59 66.37 842.8 55.86 894.86"/></g></g></g></svg>