<svg xmlns="http://www.w3.org/2000/svg" xmlns:xlink="http://www.w3.org/1999/xlink" viewBox="0 0 896.51 157.06"><defs><style>.cls-1{fill:#e1e1e1;}.cls-2{fill:#d3b555;}.cls-3{fill:url(#linear-gradient);}.cls-4{fill:url(#linear-gradient-2);}.cls-5{fill:url(#linear-gradient-3);}.cls-6{fill:url(#linear-gradient-4);}.cls-7{fill:url(#linear-gradient-5);}.cls-8{fill:url(#linear-gradient-6);}.cls-9{fill:url(#linear-gradient-7);}.cls-10{fill:url(#linear-gradient-8);}.cls-11{fill:url(#linear-gradient-9);}.cls-12{fill:url(#linear-gradient-16);}.cls-13{fill:url(#linear-gradient-17);}.cls-100,.cls-101,.cls-102,.cls-103,.cls-104,.cls-105,.cls-106,.cls-14,.cls-15,.cls-16,.cls-17,.cls-18,.cls-19,.cls-20,.cls-21,.cls-22,.cls-23,.cls-24,.cls-25,.cls-26,.cls-27,.cls-28,.cls-29,.cls-30,.cls-31,.cls-32,.cls-33,.cls-34,.cls-35,.cls-36,.cls-37,.cls-38,.cls-39,.cls-40,.cls-41,.cls-42,.cls-43,.cls-44,.cls-45,.cls-46,.cls-47,.cls-48,.cls-49,.cls-50,.cls-51,.cls-52,.cls-53,.cls-54,.cls-55,.cls-56,.cls-57,.cls-58,.cls-59,.cls-60,.cls-61,.cls-62,.cls-63,.cls-64,.cls-65,.cls-66,.cls-67,.cls-68,.cls-69,.cls-70,.cls-71,.cls-72,.cls-73,.cls-74,.cls-75,.cls-76,.cls-77,.cls-78,.cls-79,.cls-80,.cls-81,.cls-82,.cls-83,.cls-84,.cls-85,.cls-86,.cls-87,.cls-88,.cls-89,.cls-90,.cls-91,.cls-92,.cls-93,.cls-94,.cls-95,.cls-96,.cls-97,.cls-98,.cls-99{fill:none;stroke-linecap:round;stroke-miterlimit:10;}.cls-14{stroke:url(#linear-gradient-18);}.cls-15{stroke:url(#linear-gradient-19);}.cls-16{stroke:url(#linear-gradient-20);}.cls-17{stroke:url(#linear-gradient-21);}.cls-18{stroke:url(#linear-gradient-22);}.cls-19{stroke:url(#linear-gradient-23);}.cls-20{stroke:url(#linear-gradient-24);}.cls-21{stroke:url(#linear-gradient-25);}.cls-22{stroke:url(#linear-gradient-26);}.cls-23{stroke:url(#linear-gradient-27);}.cls-24{stroke:url(#linear-gradient-28);}.cls-25{stroke:url(#linear-gradient-29);}.cls-26{stroke:url(#linear-gradient-30);}.cls-27{stroke:url(#linear-gradient-31);}.cls-28{stroke:url(#linear-gradient-32);}.cls-29{stroke:url(#linear-gradient-33);}.cls-30{stroke:url(#linear-gradient-34);}.cls-31{stroke:url(#linear-gradient-35);}.cls-32{stroke:url(#linear-gradient-36);}.cls-33{stroke:url(#linear-gradient-37);}.cls-34{stroke:url(#linear-gradient-38);}.cls-35{stroke:url(#linear-gradient-39);}.cls-36{stroke:url(#linear-gradient-40);}.cls-37{stroke:url(#linear-gradient-41);}.cls-38{stroke:url(#linear-gradient-42);}.cls-39{stroke:url(#linear-gradient-43);}.cls-40{stroke:url(#linear-gradient-44);}.cls-41{stroke:url(#linear-gradient-45);}.cls-42{stroke:url(#linear-gradient-46);}.cls-43{stroke:url(#linear-gradient-47);}.cls-44{stroke:url(#linear-gradient-48);}.cls-45{stroke:url(#linear-gradient-49);}.cls-46{stroke:url(#linear-gradient-50);}.cls-47{stroke:url(#linear-gradient-51);}.cls-48{stroke:url(#linear-gradient-52);}.cls-49{stroke:url(#linear-gradient-53);}.cls-50{stroke:url(#linear-gradient-54);}.cls-51{stroke:url(#linear-gradient-55);}.cls-52{stroke:url(#linear-gradient-56);}.cls-53{stroke:url(#linear-gradient-57);}.cls-54{stroke:url(#linear-gradient-58);}.cls-55{stroke:url(#linear-gradient-59);}.cls-56{stroke:url(#linear-gradient-60);}.cls-57{stroke:url(#linear-gradient-61);}.cls-58{stroke:url(#linear-gradient-62);}.cls-59{stroke:url(#linear-gradient-63);}.cls-60{stroke:url(#linear-gradient-64);}.cls-61{stroke:url(#linear-gradient-65);}.cls-62{stroke:url(#linear-gradient-66);}.cls-63{stroke:url(#linear-gradient-67);}.cls-64{stroke:url(#linear-gradient-68);}.cls-65{stroke:url(#linear-gradient-69);}.cls-66{stroke:url(#linear-gradient-70);}.cls-67{stroke:url(#linear-gradient-71);}.cls-68{stroke:url(#linear-gradient-72);}.cls-69{stroke:url(#linear-gradient-73);}.cls-70{stroke:url(#linear-gradient-74);}.cls-71{stroke:url(#linear-gradient-75);}.cls-72{stroke:url(#linear-gradient-76);}.cls-73{stroke:url(#linear-gradient-77);}.cls-74{stroke:url(#linear-gradient-78);}.cls-75{stroke:url(#linear-gradient-79);}.cls-76{stroke:url(#linear-gradient-80);}.cls-77{stroke:url(#linear-gradient-81);}.cls-78{stroke:url(#linear-gradient-82);}.cls-79{stroke:url(#linear-gradient-83);}.cls-80{stroke:url(#linear-gradient-84);}.cls-81{stroke:url(#linear-gradient-85);}.cls-82{stroke:url(#linear-gradient-86);}.cls-83{stroke:url(#linear-gradient-87);}.cls-84{stroke:url(#linear-gradient-88);}.cls-85{stroke:url(#linear-gradient-89);}.cls-86{stroke:url(#linear-gradient-90);}.cls-87{stroke:url(#linear-gradient-91);}.cls-88{stroke:url(#linear-gradient-92);}.cls-89{stroke:url(#linear-gradient-93);}.cls-90{stroke:url(#linear-gradient-94);}.cls-91{stroke:url(#linear-gradient-95);}.cls-92{stroke:url(#linear-gradient-96);}.cls-93{stroke:url(#linear-gradient-97);}.cls-94{stroke:url(#linear-gradient-98);}.cls-95{stroke:url(#linear-gradient-99);}.cls-96{stroke:url(#linear-gradient-100);}.cls-97{stroke:url(#linear-gradient-101);}.cls-98{stroke:url(#linear-gradient-102);}.cls-99{stroke:url(#linear-gradient-103);}.cls-100{stroke:url(#linear-gradient-104);}.cls-101{stroke:url(#linear-gradient-105);}.cls-102{stroke:url(#linear-gradient-106);}.cls-103{stroke:url(#linear-gradient-107);}.cls-104{stroke:url(#linear-gradient-108);}.cls-105{stroke:url(#linear-gradient-109);}.cls-106{stroke:url(#linear-gradient-110);}</style><linearGradient id="linear-gradient" x1="620.92" y1="-118.25" x2="669.42" y2="-118.25" gradientTransform="translate(-197.35 197.47)" gradientUnits="userSpaceOnUse"><stop offset="0" stop-color="#ddbf5f"/><stop offset="0.25" stop-color="#e1c773"/><stop offset="0.5" stop-color="#e5cf87"/><stop offset="0.75" stop-color="#ddbf5f"/><stop offset="1" stop-color="#ddbf5f"/></linearGradient><linearGradient id="linear-gradient-2" x1="620.92" y1="-188.25" x2="669.42" y2="-188.25" gradientTransform="translate(330.32 -566.69) rotate(90)" xlink:href="#linear-gradient"/><linearGradient id="linear-gradient-3" x1="620.92" y1="-168.25" x2="669.42" y2="-168.25" gradientTransform="translate(330.32 -566.69) rotate(90)" xlink:href="#linear-gradient"/><linearGradient id="linear-gradient-4" x1="620.92" y1="-148.25" x2="669.42" y2="-148.25" gradientTransform="translate(330.32 -566.69) rotate(90)" xlink:href="#linear-gradient"/><linearGradient id="linear-gradient-5" x1="620.92" y1="-128.25" x2="669.42" y2="-128.25" gradientTransform="translate(330.32 -566.69) rotate(90)" xlink:href="#linear-gradient"/><linearGradient id="linear-gradient-6" x1="620.92" y1="-108.25" x2="669.42" y2="-108.25" gradientTransform="translate(330.32 -566.69) rotate(90)" xlink:href="#linear-gradient"/><linearGradient id="linear-gradient-7" x1="620.92" y1="-88.25" x2="669.42" y2="-88.25" gradientTransform="translate(330.32 -566.69) rotate(90)" xlink:href="#linear-gradient"/><linearGradient id="linear-gradient-8" x1="620.92" y1="-68.25" x2="669.42" y2="-68.25" gradientTransform="translate(330.32 -566.69) rotate(90)" xlink:href="#linear-gradient"/><linearGradient id="linear-gradient-9" x1="620.92" y1="-48.25" x2="669.42" y2="-48.25" gradientTransform="translate(330.32 -566.69) rotate(90)" xlink:href="#linear-gradient"/><linearGradient id="linear-gradient-16" x1="600.5" y1="-468.75" x2="723.75" y2="-468.75" gradientTransform="translate(330.32 -566.69) rotate(90)" xlink:href="#linear-gradient"/><linearGradient id="linear-gradient-17" x1="620.39" y1="205.82" x2="671.44" y2="205.82" gradientTransform="translate(-521.41 -126.59)" xlink:href="#linear-gradient"/><linearGradient id="linear-gradient-18" x1="669.83" y1="150.83" x2="723.56" y2="150.83" gradientTransform="translate(330.32 -566.69) rotate(90)" xlink:href="#linear-gradient"/><linearGradient id="linear-gradient-19" x1="669.78" y1="155.91" x2="723.3" y2="155.91" gradientTransform="translate(330.32 -566.69) rotate(90)" xlink:href="#linear-gradient"/><linearGradient id="linear-gradient-20" x1="669.76" y1="146.62" x2="723.15" y2="146.62" gradientTransform="translate(330.32 -566.69) rotate(90)" xlink:href="#linear-gradient"/><linearGradient id="linear-gradient-21" x1="669.83" y1="162.25" x2="723.56" y2="162.25" gradientTransform="translate(330.32 -566.69) rotate(90)" xlink:href="#linear-gradient"/><linearGradient id="linear-gradient-22" x1="669.78" y1="167.32" x2="723.3" y2="167.32" gradientTransform="translate(330.32 -566.69) rotate(90)" xlink:href="#linear-gradient"/><linearGradient id="linear-gradient-23" x1="669.76" y1="158.03" x2="723.15" y2="158.03" gradientTransform="translate(330.32 -566.69) rotate(90)" xlink:href="#linear-gradient"/><linearGradient id="linear-gradient-24" x1="669.83" y1="173.66" x2="723.56" y2="173.66" gradientTransform="translate(330.32 -566.69) rotate(90)" xlink:href="#linear-gradient"/><linearGradient id="linear-gradient-25" x1="669.78" y1="178.73" x2="723.3" y2="178.73" gradientTransform="translate(330.32 -566.69) rotate(90)" xlink:href="#linear-gradient"/><linearGradient id="linear-gradient-26" x1="669.76" y1="169.44" x2="723.15" y2="169.44" gradientTransform="translate(330.32 -566.69) rotate(90)" xlink:href="#linear-gradient"/><linearGradient id="linear-gradient-27" x1="669.83" y1="185.07" x2="723.56" y2="185.07" gradientTransform="translate(330.32 -566.69) rotate(90)" xlink:href="#linear-gradient"/><linearGradient id="linear-gradient-28" x1="669.78" y1="190.15" x2="723.3" y2="190.15" gradientTransform="translate(330.32 -566.69) rotate(90)" xlink:href="#linear-gradient"/><linearGradient id="linear-gradient-29" x1="669.76" y1="180.86" x2="723.15" y2="180.86" gradientTransform="translate(330.32 -566.69) rotate(90)" xlink:href="#linear-gradient"/><linearGradient id="linear-gradient-30" x1="669.83" y1="196.49" x2="723.56" y2="196.49" gradientTransform="translate(330.32 -566.69) rotate(90)" xlink:href="#linear-gradient"/><linearGradient id="linear-gradient-31" x1="669.78" y1="201.56" x2="723.3" y2="201.56" gradientTransform="translate(330.32 -566.69) rotate(90)" xlink:href="#linear-gradient"/><linearGradient id="linear-gradient-32" x1="669.76" y1="192.27" x2="723.15" y2="192.27" gradientTransform="translate(330.32 -566.69) rotate(90)" xlink:href="#linear-gradient"/><linearGradient id="linear-gradient-33" x1="669.83" y1="207.9" x2="723.56" y2="207.9" gradientTransform="translate(330.32 -566.69) rotate(90)" xlink:href="#linear-gradient"/><linearGradient id="linear-gradient-34" x1="669.78" y1="212.97" x2="723.3" y2="212.97" gradientTransform="translate(330.32 -566.69) rotate(90)" xlink:href="#linear-gradient"/><linearGradient id="linear-gradient-35" x1="669.76" y1="203.68" x2="723.15" y2="203.68" gradientTransform="translate(330.32 -566.69) rotate(90)" xlink:href="#linear-gradient"/><linearGradient id="linear-gradient-36" x1="669.83" y1="219.32" x2="723.56" y2="219.32" gradientTransform="translate(330.32 -566.69) rotate(90)" xlink:href="#linear-gradient"/><linearGradient id="linear-gradient-37" x1="669.78" y1="224.39" x2="723.3" y2="224.39" gradientTransform="translate(330.32 -566.69) rotate(90)" xlink:href="#linear-gradient"/><linearGradient id="linear-gradient-38" x1="669.76" y1="215.1" x2="723.15" y2="215.1" gradientTransform="translate(330.32 -566.69) rotate(90)" xlink:href="#linear-gradient"/><linearGradient id="linear-gradient-39" x1="669.83" y1="230.73" x2="723.56" y2="230.73" gradientTransform="translate(330.32 -566.69) rotate(90)" xlink:href="#linear-gradient"/><linearGradient id="linear-gradient-40" x1="669.78" y1="235.8" x2="723.3" y2="235.8" gradientTransform="translate(330.32 -566.69) rotate(90)" xlink:href="#linear-gradient"/><linearGradient id="linear-gradient-41" x1="669.76" y1="226.51" x2="723.15" y2="226.51" gradientTransform="translate(330.32 -566.69) rotate(90)" xlink:href="#linear-gradient"/><linearGradient id="linear-gradient-42" x1="669.83" y1="242.14" x2="723.56" y2="242.14" gradientTransform="translate(330.32 -566.69) rotate(90)" xlink:href="#linear-gradient"/><linearGradient id="linear-gradient-43" x1="669.78" y1="247.22" x2="723.3" y2="247.22" gradientTransform="translate(330.32 -566.69) rotate(90)" xlink:href="#linear-gradient"/><linearGradient id="linear-gradient-44" x1="669.76" y1="237.92" x2="723.15" y2="237.92" gradientTransform="translate(330.32 -566.69) rotate(90)" xlink:href="#linear-gradient"/><linearGradient id="linear-gradient-45" x1="669.83" y1="253.56" x2="723.56" y2="253.56" gradientTransform="translate(330.32 -566.69) rotate(90)" xlink:href="#linear-gradient"/><linearGradient id="linear-gradient-46" x1="669.78" y1="258.63" x2="723.3" y2="258.63" gradientTransform="translate(330.32 -566.69) rotate(90)" xlink:href="#linear-gradient"/><linearGradient id="linear-gradient-47" x1="669.76" y1="249.34" x2="723.15" y2="249.34" gradientTransform="translate(330.32 -566.69) rotate(90)" xlink:href="#linear-gradient"/><linearGradient id="linear-gradient-48" x1="669.83" y1="264.97" x2="723.56" y2="264.97" gradientTransform="translate(330.32 -566.69) rotate(90)" xlink:href="#linear-gradient"/><linearGradient id="linear-gradient-49" x1="669.78" y1="270.04" x2="723.3" y2="270.04" gradientTransform="translate(330.32 -566.69) rotate(90)" xlink:href="#linear-gradient"/><linearGradient id="linear-gradient-50" x1="669.76" y1="260.75" x2="723.15" y2="260.75" gradientTransform="translate(330.32 -566.69) rotate(90)" xlink:href="#linear-gradient"/><linearGradient id="linear-gradient-51" x1="566.69" y1="150.83" x2="620.42" y2="150.83" gradientTransform="translate(330.32 -566.69) rotate(90)" xlink:href="#linear-gradient"/><linearGradient id="linear-gradient-52" x1="566.95" y1="155.91" x2="620.47" y2="155.91" gradientTransform="translate(330.32 -566.69) rotate(90)" xlink:href="#linear-gradient"/><linearGradient id="linear-gradient-53" x1="567.1" y1="146.62" x2="620.49" y2="146.62" gradientTransform="translate(330.32 -566.69) rotate(90)" xlink:href="#linear-gradient"/><linearGradient id="linear-gradient-54" x1="566.69" y1="162.25" x2="620.42" y2="162.25" gradientTransform="translate(330.32 -566.69) rotate(90)" xlink:href="#linear-gradient"/><linearGradient id="linear-gradient-55" x1="566.95" y1="167.32" x2="620.47" y2="167.32" gradientTransform="translate(330.32 -566.69) rotate(90)" xlink:href="#linear-gradient"/><linearGradient id="linear-gradient-56" x1="567.1" y1="158.03" x2="620.49" y2="158.03" gradientTransform="translate(330.32 -566.69) rotate(90)" xlink:href="#linear-gradient"/><linearGradient id="linear-gradient-57" x1="566.69" y1="173.66" x2="620.42" y2="173.66" gradientTransform="translate(330.32 -566.69) rotate(90)" xlink:href="#linear-gradient"/><linearGradient id="linear-gradient-58" x1="566.95" y1="178.73" x2="620.47" y2="178.73" gradientTransform="translate(330.32 -566.69) rotate(90)" xlink:href="#linear-gradient"/><linearGradient id="linear-gradient-59" x1="567.1" y1="169.44" x2="620.49" y2="169.44" gradientTransform="translate(330.32 -566.69) rotate(90)" xlink:href="#linear-gradient"/><linearGradient id="linear-gradient-60" x1="566.69" y1="185.07" x2="620.42" y2="185.07" gradientTransform="translate(330.32 -566.69) rotate(90)" xlink:href="#linear-gradient"/><linearGradient id="linear-gradient-61" x1="566.95" y1="190.15" x2="620.47" y2="190.15" gradientTransform="translate(330.32 -566.69) rotate(90)" xlink:href="#linear-gradient"/><linearGradient id="linear-gradient-62" x1="567.1" y1="180.86" x2="620.49" y2="180.86" gradientTransform="translate(330.32 -566.69) rotate(90)" xlink:href="#linear-gradient"/><linearGradient id="linear-gradient-63" x1="566.69" y1="196.49" x2="620.42" y2="196.49" gradientTransform="translate(330.32 -566.69) rotate(90)" xlink:href="#linear-gradient"/><linearGradient id="linear-gradient-64" x1="566.95" y1="201.56" x2="620.47" y2="201.56" gradientTransform="translate(330.32 -566.69) rotate(90)" xlink:href="#linear-gradient"/><linearGradient id="linear-gradient-65" x1="567.1" y1="192.27" x2="620.49" y2="192.27" gradientTransform="translate(330.32 -566.69) rotate(90)" xlink:href="#linear-gradient"/><linearGradient id="linear-gradient-66" x1="566.69" y1="207.9" x2="620.42" y2="207.9" gradientTransform="translate(330.32 -566.69) rotate(90)" xlink:href="#linear-gradient"/><linearGradient id="linear-gradient-67" x1="566.95" y1="212.97" x2="620.47" y2="212.97" gradientTransform="translate(330.32 -566.69) rotate(90)" xlink:href="#linear-gradient"/><linearGradient id="linear-gradient-68" x1="567.1" y1="203.68" x2="620.49" y2="203.68" gradientTransform="translate(330.32 -566.69) rotate(90)" xlink:href="#linear-gradient"/><linearGradient id="linear-gradient-69" x1="566.69" y1="219.32" x2="620.42" y2="219.32" gradientTransform="translate(330.32 -566.69) rotate(90)" xlink:href="#linear-gradient"/><linearGradient id="linear-gradient-70" x1="566.95" y1="224.39" x2="620.47" y2="224.39" gradientTransform="translate(330.32 -566.69) rotate(90)" xlink:href="#linear-gradient"/><linearGradient id="linear-gradient-71" x1="567.1" y1="215.1" x2="620.49" y2="215.1" gradientTransform="translate(330.32 -566.69) rotate(90)" xlink:href="#linear-gradient"/><linearGradient id="linear-gradient-72" x1="566.69" y1="230.73" x2="620.42" y2="230.73" gradientTransform="translate(330.32 -566.69) rotate(90)" xlink:href="#linear-gradient"/><linearGradient id="linear-gradient-73" x1="566.95" y1="235.8" x2="620.47" y2="235.8" gradientTransform="translate(330.32 -566.69) rotate(90)" xlink:href="#linear-gradient"/><linearGradient id="linear-gradient-74" x1="567.1" y1="226.51" x2="620.49" y2="226.51" gradientTransform="translate(330.32 -566.69) rotate(90)" xlink:href="#linear-gradient"/><linearGradient id="linear-gradient-75" x1="566.69" y1="242.14" x2="620.42" y2="242.14" gradientTransform="translate(330.32 -566.69) rotate(90)" xlink:href="#linear-gradient"/><linearGradient id="linear-gradient-76" x1="566.95" y1="247.22" x2="620.47" y2="247.22" gradientTransform="translate(330.32 -566.69) rotate(90)" xlink:href="#linear-gradient"/><linearGradient id="linear-gradient-77" x1="567.1" y1="237.92" x2="620.49" y2="237.92" gradientTransform="translate(330.32 -566.69) rotate(90)" xlink:href="#linear-gradient"/><linearGradient id="linear-gradient-78" x1="566.69" y1="253.56" x2="620.42" y2="253.56" gradientTransform="translate(330.32 -566.69) rotate(90)" xlink:href="#linear-gradient"/><linearGradient id="linear-gradient-79" x1="566.95" y1="258.63" x2="620.47" y2="258.63" gradientTransform="translate(330.32 -566.69) rotate(90)" xlink:href="#linear-gradient"/><linearGradient id="linear-gradient-80" x1="567.1" y1="249.34" x2="620.49" y2="249.34" gradientTransform="translate(330.32 -566.69) rotate(90)" xlink:href="#linear-gradient"/><linearGradient id="linear-gradient-81" x1="566.69" y1="264.97" x2="620.42" y2="264.97" gradientTransform="translate(330.32 -566.69) rotate(90)" xlink:href="#linear-gradient"/><linearGradient id="linear-gradient-82" x1="566.95" y1="270.04" x2="620.47" y2="270.04" gradientTransform="translate(330.32 -566.69) rotate(90)" xlink:href="#linear-gradient"/><linearGradient id="linear-gradient-83" x1="567.1" y1="260.75" x2="620.49" y2="260.75" gradientTransform="translate(330.32 -566.69) rotate(90)" xlink:href="#linear-gradient"/><linearGradient id="linear-gradient-84" x1="641.45" y1="303.45" x2="646.34" y2="303.45" gradientTransform="translate(330.32 -566.69) rotate(90)" xlink:href="#linear-gradient"/><linearGradient id="linear-gradient-85" x1="644.44" y1="303.3" x2="653.5" y2="303.3" gradientTransform="translate(330.32 -566.69) rotate(90)" xlink:href="#linear-gradient"/><linearGradient id="linear-gradient-86" x1="633.92" y1="303.21" x2="645.43" y2="303.21" gradientTransform="translate(330.32 -566.69) rotate(90)" xlink:href="#linear-gradient"/><linearGradient id="linear-gradient-87" x1="656" y1="303.45" x2="660.88" y2="303.45" gradientTransform="translate(330.32 -566.69) rotate(90)" xlink:href="#linear-gradient"/><linearGradient id="linear-gradient-88" x1="658.98" y1="303.3" x2="668.04" y2="303.3" gradientTransform="translate(330.32 -566.69) rotate(90)" xlink:href="#linear-gradient"/><linearGradient id="linear-gradient-89" x1="648.47" y1="303.21" x2="659.98" y2="303.21" gradientTransform="translate(330.32 -566.69) rotate(90)" xlink:href="#linear-gradient"/><linearGradient id="linear-gradient-90" x1="665.01" y1="300.94" x2="684.55" y2="300.94" gradientTransform="translate(330.32 -566.69) rotate(90)" xlink:href="#linear-gradient"/><linearGradient id="linear-gradient-91" x1="665.03" y1="299.68" x2="691.1" y2="299.68" gradientTransform="translate(330.32 -566.69) rotate(90)" xlink:href="#linear-gradient"/><linearGradient id="linear-gradient-92" x1="665" y1="301.77" x2="677.25" y2="301.77" gradientTransform="translate(330.32 -566.69) rotate(90)" xlink:href="#linear-gradient"/><linearGradient id="linear-gradient-93" x1="667.72" y1="292.59" x2="709.42" y2="292.59" gradientTransform="translate(330.32 -566.69) rotate(90)" xlink:href="#linear-gradient"/><linearGradient id="linear-gradient-94" x1="667.77" y1="289.83" x2="713.64" y2="289.83" gradientTransform="translate(330.32 -566.69) rotate(90)" xlink:href="#linear-gradient"/><linearGradient id="linear-gradient-95" x1="667.67" y1="295.15" x2="704.14" y2="295.15" gradientTransform="translate(330.32 -566.69) rotate(90)" xlink:href="#linear-gradient"/><linearGradient id="linear-gradient-96" x1="669.66" y1="280.73" x2="720.52" y2="280.73" gradientTransform="translate(330.32 -566.69) rotate(90)" xlink:href="#linear-gradient"/><linearGradient id="linear-gradient-97" x1="669.72" y1="277.34" x2="722.45" y2="277.34" gradientTransform="translate(330.32 -566.69) rotate(90)" xlink:href="#linear-gradient"/><linearGradient id="linear-gradient-98" x1="669.6" y1="284.1" x2="717.47" y2="284.1" gradientTransform="translate(330.32 -566.69) rotate(90)" xlink:href="#linear-gradient"/><linearGradient id="linear-gradient-99" x1="608.89" y1="300.94" x2="628.43" y2="300.94" gradientTransform="translate(330.32 -566.69) rotate(90)" xlink:href="#linear-gradient"/><linearGradient id="linear-gradient-100" x1="602.34" y1="299.68" x2="628.41" y2="299.68" gradientTransform="translate(330.32 -566.69) rotate(90)" xlink:href="#linear-gradient"/><linearGradient id="linear-gradient-101" x1="616.19" y1="301.77" x2="628.45" y2="301.77" gradientTransform="translate(330.32 -566.69) rotate(90)" xlink:href="#linear-gradient"/><linearGradient id="linear-gradient-102" x1="584.02" y1="292.59" x2="625.72" y2="292.59" gradientTransform="translate(330.32 -566.69) rotate(90)" xlink:href="#linear-gradient"/><linearGradient id="linear-gradient-103" x1="579.8" y1="289.83" x2="625.67" y2="289.83" gradientTransform="translate(330.32 -566.69) rotate(90)" xlink:href="#linear-gradient"/><linearGradient id="linear-gradient-104" x1="589.3" y1="295.15" x2="625.77" y2="295.15" gradientTransform="translate(330.32 -566.69) rotate(90)" xlink:href="#linear-gradient"/><linearGradient id="linear-gradient-105" x1="572.93" y1="280.73" x2="623.78" y2="280.73" gradientTransform="translate(330.32 -566.69) rotate(90)" xlink:href="#linear-gradient"/><linearGradient id="linear-gradient-106" x1="570.99" y1="277.34" x2="623.72" y2="277.34" gradientTransform="translate(330.32 -566.69) rotate(90)" xlink:href="#linear-gradient"/><linearGradient id="linear-gradient-107" x1="575.97" y1="284.1" x2="623.85" y2="284.1" gradientTransform="translate(330.32 -566.69) rotate(90)" xlink:href="#linear-gradient"/><linearGradient id="linear-gradient-108" x1="629.58" y1="303.45" x2="634.46" y2="303.45" gradientTransform="translate(330.32 -566.69) rotate(90)" xlink:href="#linear-gradient"/><linearGradient id="linear-gradient-109" x1="632.56" y1="303.3" x2="641.62" y2="303.3" gradientTransform="translate(330.32 -566.69) rotate(90)" xlink:href="#linear-gradient"/><linearGradient id="linear-gradient-110" x1="622.05" y1="303.21" x2="633.55" y2="303.21" gradientTransform="translate(330.32 -566.69) rotate(90)" xlink:href="#linear-gradient"/></defs><g id="Layer_2" data-name="Layer 2"><g id="Pro_-_Contracted" data-name="Pro - Contracted"><rect id="stem" class="cls-1" x="431.13" y="-243.61" width="32.41" height="645.68" transform="translate(526.57 -368.11) rotate(90)"/><g id="handle_copy_3" data-name="handle copy 3"><polygon class="cls-2" points="433.93 112.2 433.93 102.21 463.19 102.21 463.19 107.29 448.56 107.28 433.93 112.2"/><rect class="cls-3" x="423.04" y="-23.84" width="51.05" height="206.14" rx="10" transform="translate(527.79 -369.34) rotate(90)"/><path class="cls-4" d="M526,53.7c0-2.71-3.34-4.91-7.47-4.91S511.1,51,511.1,53.7Z"/><path class="cls-5" d="M506,53.7c0-2.71-3.34-4.91-7.47-4.91S491.1,51,491.1,53.7Z"/><path class="cls-6" d="M486,53.7c0-2.71-3.34-4.91-7.47-4.91S471.1,51,471.1,53.7Z"/><path class="cls-7" d="M466,53.7c0-2.71-3.34-4.91-7.47-4.91S451.1,51,451.1,53.7Z"/><path class="cls-8" d="M446,53.7c0-2.71-3.34-4.91-7.47-4.91S431.1,51,431.1,53.7Z"/><path class="cls-9" d="M426,53.7c0-2.71-3.34-4.91-7.47-4.91S411.1,51,411.1,53.7Z"/><path class="cls-10" d="M406,53.7c0-2.71-3.34-4.91-7.47-4.91S391.1,51,391.1,53.7Z"/><path class="cls-11" d="M386,53.7c0-2.71-3.34-4.91-7.47-4.91S371.1,51,371.1,53.7Z"/><path class="cls-4" d="M526,104.75c0,2.72-3.34,4.92-7.47,4.92s-7.46-2.2-7.46-4.92Z"/><path class="cls-5" d="M506,104.75c0,2.72-3.34,4.92-7.47,4.92s-7.46-2.2-7.46-4.92Z"/><path class="cls-6" d="M486,104.75c0,2.72-3.34,4.92-7.47,4.92s-7.46-2.2-7.46-4.92Z"/><path class="cls-9" d="M426,104.75c0,2.72-3.34,4.92-7.47,4.92s-7.46-2.2-7.46-4.92Z"/><path class="cls-10" d="M406,104.75c0,2.72-3.34,4.92-7.47,4.92s-7.46-2.2-7.46-4.92Z"/><path class="cls-11" d="M386,104.75c0,2.72-3.34,4.92-7.47,4.92s-7.46-2.2-7.46-4.92Z"/></g><g id="pointer_copy_3" data-name="pointer copy 3"><path class="cls-12" d="M814.18,157.06c-1.13-.3-4.14-8.07-4.7-9.64-2.53-3.15-5.43-5.13-8-8.51-6.21-4.77-20.8-9.38-25-12.43s-12.54-8.41-18.14-14-15-10.62-27.38-10.62c-7.37,0-9,.74-19.39,1.38a10,10,0,0,1-10-10v-31a10,10,0,0,1,10-10c14.62-.71-20.84,1.07,19.39-.13,18.75-.56,36.4-16.56,64.32-16.56,4.09,0,11.63-1.75,15.2-1.69,6,.61,16,5.19,10.72,12.94h0c-.3.51-.64,1-1,1.52,11-1.36,20,10.42,11.63,17.61,7,.6,8.5,5.86,8.8,11S833.5,86,831,87.73c16,2.09,33.1,4.56,49.57,2,21.72-1.14,20.32,14.09,1.62,16.29a282.86,282.86,0,0,1-43.1,1.21c-8.7-.48-20.8-1.86-29.58-.6-1.24,0-6.58,1.61-10.84,4.7-3.8,2.76,12.65,14.4,15.2,16.58C821.33,134.1,825.74,156.21,814.18,157.06Z"/></g><g id="Brush_copy_3" data-name="Brush copy 3"><rect class="cls-13" x="98.98" y="8.23" width="51.05" height="141.99" rx="10" transform="translate(203.73 -45.27) rotate(90)"/><polyline class="cls-14" points="177.54 156.37 178.44 103.17 181.43 156.2"/><polyline class="cls-15" points="170.38 155.77 178.44 103.17 174.25 156.11"/><polyline class="cls-16" points="185.14 155.96 178.44 103.17 188.96 155.23"/><polyline class="cls-17" points="166.13 156.37 167.03 103.17 170.01 156.2"/><polyline class="cls-18" points="158.97 155.77 167.03 103.17 162.84 156.11"/><polyline class="cls-19" points="173.72 155.96 167.03 103.17 177.54 155.23"/><polyline class="cls-20" points="154.72 156.37 155.62 103.17 158.6 156.2"/><polyline class="cls-21" points="147.55 155.77 155.62 103.17 151.42 156.11"/><polyline class="cls-22" points="162.31 155.96 155.62 103.17 166.13 155.23"/><polyline class="cls-23" points="143.3 156.37 144.2 103.17 147.19 156.2"/><polyline class="cls-24" points="136.14 155.77 144.2 103.17 140.01 156.11"/><polyline class="cls-25" points="150.9 155.96 144.2 103.17 154.72 155.23"/><polyline class="cls-26" points="131.89 156.37 132.79 103.17 135.77 156.2"/><polyline class="cls-27" points="124.72 155.77 132.79 103.17 128.6 156.11"/><polyline class="cls-28" points="139.48 155.96 132.79 103.17 143.3 155.23"/><polyline class="cls-29" points="120.47 156.37 121.38 103.17 124.36 156.2"/><polyline class="cls-30" points="113.31 155.77 121.38 103.17 117.18 156.11"/><polyline class="cls-31" points="128.07 155.96 121.38 103.17 131.89 155.23"/><polyline class="cls-32" points="109.06 156.37 109.96 103.17 112.94 156.2"/><polyline class="cls-33" points="101.9 155.77 109.96 103.17 105.77 156.11"/><polyline class="cls-34" points="116.66 155.96 109.96 103.17 120.47 155.23"/><polyline class="cls-35" points="97.65 156.37 98.55 103.17 101.53 156.2"/><polyline class="cls-36" points="90.48 155.77 98.55 103.17 94.36 156.11"/><polyline class="cls-37" points="105.24 155.96 98.55 103.17 109.06 155.23"/><polyline class="cls-38" points="86.23 156.37 87.14 103.17 90.12 156.2"/><polyline class="cls-39" points="79.07 155.77 87.14 103.17 82.94 156.11"/><polyline class="cls-40" points="93.83 155.96 87.14 103.17 97.65 155.23"/><polyline class="cls-41" points="74.82 156.37 75.72 103.17 78.7 156.2"/><polyline class="cls-42" points="67.66 155.77 75.72 103.17 71.53 156.11"/><polyline class="cls-43" points="82.42 155.96 75.72 103.17 86.23 155.23"/><polyline class="cls-44" points="63.41 156.37 64.31 103.17 67.29 156.2"/><polyline class="cls-45" points="56.24 155.77 64.31 103.17 60.12 156.11"/><polyline class="cls-46" points="71 155.96 64.31 103.17 74.82 155.23"/><polyline class="cls-47" points="177.54 0.5 178.44 53.7 181.43 0.68"/><polyline class="cls-48" points="170.38 1.11 178.44 53.7 174.25 0.76"/><polyline class="cls-49" points="185.14 0.92 178.44 53.7 188.96 1.65"/><polyline class="cls-50" points="166.13 0.5 167.03 53.7 170.01 0.68"/><polyline class="cls-51" points="158.97 1.11 167.03 53.7 162.84 0.76"/><polyline class="cls-52" points="173.72 0.92 167.03 53.7 177.54 1.65"/><polyline class="cls-53" points="154.72 0.5 155.62 53.7 158.6 0.68"/><polyline class="cls-54" points="147.55 1.11 155.62 53.7 151.42 0.76"/><polyline class="cls-55" points="162.31 0.92 155.62 53.7 166.13 1.65"/><polyline class="cls-56" points="143.3 0.5 144.2 53.7 147.19 0.68"/><polyline class="cls-57" points="136.14 1.11 144.2 53.7 140.01 0.76"/><polyline class="cls-58" points="150.9 0.92 144.2 53.7 154.72 1.65"/><polyline class="cls-59" points="131.89 0.5 132.79 53.7 135.77 0.68"/><polyline class="cls-60" points="124.72 1.11 132.79 53.7 128.6 0.76"/><polyline class="cls-61" points="139.48 0.92 132.79 53.7 143.3 1.65"/><polyline class="cls-62" points="120.47 0.5 121.38 53.7 124.36 0.68"/><polyline class="cls-63" points="113.31 1.11 121.38 53.7 117.18 0.76"/><polyline class="cls-64" points="128.07 0.92 121.38 53.7 131.89 1.65"/><polyline class="cls-65" points="109.06 0.5 109.96 53.7 112.94 0.68"/><polyline class="cls-66" points="101.9 1.11 109.96 53.7 105.77 0.76"/><polyline class="cls-67" points="116.66 0.92 109.96 53.7 120.47 1.65"/><polyline class="cls-68" points="97.65 0.5 98.55 53.7 101.53 0.68"/><polyline class="cls-69" points="90.48 1.11 98.55 53.7 94.36 0.76"/><polyline class="cls-70" points="105.24 0.92 98.55 53.7 109.06 1.65"/><polyline class="cls-71" points="86.23 0.5 87.14 53.7 90.12 0.68"/><polyline class="cls-72" points="79.07 1.11 87.14 53.7 82.94 0.76"/><polyline class="cls-73" points="93.83 0.92 87.14 53.7 97.65 1.65"/><polyline class="cls-74" points="74.82 0.5 75.72 53.7 78.7 0.68"/><polyline class="cls-75" points="67.66 1.11 75.72 53.7 71.53 0.76"/><polyline class="cls-76" points="82.42 0.92 75.72 53.7 86.23 1.65"/><polyline class="cls-77" points="63.41 0.5 64.31 53.7 67.29 0.68"/><polyline class="cls-78" points="56.24 1.11 64.31 53.7 60.12 0.76"/><polyline class="cls-79" points="71 0.92 64.31 53.7 74.82 1.65"/><polyline class="cls-80" points="0.5 79.15 53.7 78.25 0.68 75.27"/><polyline class="cls-81" points="1.11 86.31 53.7 78.25 0.76 82.44"/><polyline class="cls-82" points="0.92 71.55 53.7 78.25 1.65 67.73"/><polyline class="cls-83" points="0.5 93.69 53.7 92.79 0.68 89.81"/><polyline class="cls-84" points="1.11 100.86 53.7 92.79 0.76 96.98"/><polyline class="cls-85" points="0.92 86.1 53.7 92.79 1.65 82.28"/><polyline class="cls-86" points="5.17 117.36 55.04 98.8 4.04 113.64"/><polyline class="cls-87" points="8.13 123.92 55.04 98.8 6.51 120.38"/><polyline class="cls-88" points="3.03 110.06 55.04 98.8 2.45 106.22"/><polyline class="cls-89" points="22.15 142.23 56.24 101.38 19.33 139.56"/><polyline class="cls-90" points="27.97 146.45 56.24 101.38 24.81 144.19"/><polyline class="cls-91" points="16.67 136.95 56.24 101.38 14.26 133.9"/><polyline class="cls-92" points="42.51 153.33 60.28 103.17 38.94 151.8"/><polyline class="cls-93" points="49.44 155.27 60.28 103.17 45.69 154.24"/><polyline class="cls-94" points="35.54 150.28 60.28 103.17 32.22 148.26"/><polyline class="cls-95" points="5.17 42.7 55.04 61.26 4.04 46.42"/><polyline class="cls-96" points="8.13 36.15 55.04 61.26 6.51 39.69"/><polyline class="cls-97" points="3.03 50 55.04 61.26 2.45 53.85"/><polyline class="cls-98" points="22.15 17.84 56.24 58.69 19.33 20.51"/><polyline class="cls-99" points="27.97 13.61 56.24 58.69 24.81 15.88"/><polyline class="cls-100" points="16.67 23.12 56.24 58.69 14.26 26.16"/><polyline class="cls-101" points="42.51 6.74 60.28 56.9 38.94 8.26"/><polyline class="cls-102" points="49.44 4.8 60.28 56.9 45.69 5.83"/><polyline class="cls-103" points="35.54 9.78 60.28 56.9 32.22 11.8"/><polyline class="cls-104" points="0.5 67.27 53.7 66.37 0.68 63.39"/><polyline class="cls-105" points="1.11 74.43 53.7 66.37 0.76 70.56"/><polyline class="cls-106" points="0.92 59.67 53.7 66.37 1.65 55.86"/></g></g></g></svg>